<?xml version="1.0" encoding="UTF-8" standalone="no"?>
<svg
   xmlns:dc="http://purl.org/dc/elements/1.1/"
   xmlns:cc="http://creativecommons.org/ns#"
   xmlns:rdf="http://www.w3.org/1999/02/22-rdf-syntax-ns#"
   xmlns:svg="http://www.w3.org/2000/svg"
   xmlns="http://www.w3.org/2000/svg"
   xmlns:sodipodi="http://sodipodi.sourceforge.net/DTD/sodipodi-0.dtd"
   xmlns:inkscape="http://www.inkscape.org/namespaces/inkscape"
   version="1.1"
   id="svg2"
   
  
   height="666.66669"
   viewBox="0 0 666.66669 666.66669"
   sodipodi:docname="3802307.eps"><metadata
     id="metadata8"><rdf:RDF><cc:Work
         rdf:about=""><dc:format>image/svg+xml</dc:format><dc:type
           rdf:resource="http://purl.org/dc/dcmitype/StillImage" /></cc:Work></rdf:RDF></metadata><defs
     id="defs6"><clipPath
       clipPathUnits="userSpaceOnUse"
       id="clipPath236"><path
         d="m 1770.76,789.16 c -11.76,-11.051 -27.79,-17.07 -45.12,-17.07 l -736.3,-26.121 c -31.613,0 -58.442,21.25 -61.055,48.41 L 887.18,1219.41 c 176.19,250.83 548.43,770.45 756.59,1060.65 L 1786.78,829.23 c 1.4,-14.89 -4.26,-29.089 -16.02,-40.07"
         id="path234" /></clipPath></defs><sodipodi:namedview
     pagecolor="#ffffff"
     bordercolor="#666666"
     borderopacity="1"
     objecttolerance="10"
     gridtolerance="10"
     guidetolerance="10"
     inkscape:pageopacity="0"
     inkscape:pageshadow="2"
     inkscape:window-width="640"
     inkscape:window-height="480"
     id="namedview4" /><g
     id="g10"
     inkscape:groupmode="layer"
     inkscape:label="ink_ext_XXXXXX"
     transform="matrix(1.3333333,0,0,-1.3333333,0,666.66667)"><g
       id="g12"
       transform="scale(0.1)"><path
         d="M 0,0 H 5000 V 5000 H 0 Z"
         style="fill:#ffffff;fill-opacity:1;fill-rule:nonzero;stroke:none"
         id="path14" /><path
         d="m 2103.96,1157.2 c -90.7,32.21 -178.99,69.16 -263.91,110.28 -545.35,264.06 -988.835,754.17 -1154.835,1342.25 -139.746,495.06 -49.77,1161.14 488.735,1376.43 131.92,52.73 278.25,68.22 418.47,45.9 145.66,-23.18 273.83,-104.09 420.6,-126.49 518.77,-79.15 867.84,447.97 1370.78,460.21 196.18,4.78 432.91,-52.61 585.04,-182.78 195.75,-167.5 317.49,-416.75 419.27,-648.39 107.94,-245.72 186.95,-506.01 211.52,-774.06 C 4659.32,2109.33 4342.49,1496.11 3759.47,1192.67 3252.6,928.852 2629.51,970.52 2103.96,1157.2"
         style="fill:#a3e0e1;fill-opacity:1;fill-rule:nonzero;stroke:none"
         id="path16" /><path
         d="m 3707.38,4251.86 c 0,-87.48 -70.92,-158.41 -158.41,-158.41 -87.48,0 -158.39,70.93 -158.39,158.41 0,87.48 70.91,158.41 158.39,158.41 87.49,0 158.41,-70.93 158.41,-158.41"
         style="fill:#72bccc;fill-opacity:1;fill-rule:nonzero;stroke:none"
         id="path18" /><path
         d="m 3553.25,4251.86 h -8.54 v 254.68 h 8.54 v -254.68"
         style="fill:#72bccc;fill-opacity:1;fill-rule:nonzero;stroke:none"
         id="path20" /><path
         d="m 3583.78,4506.54 c 0,-19.22 -15.59,-34.8 -34.81,-34.8 -19.21,0 -34.79,15.58 -34.79,34.8 0,19.22 15.58,34.8 34.79,34.8 19.22,0 34.81,-15.58 34.81,-34.8"
         style="fill:#72bccc;fill-opacity:1;fill-rule:nonzero;stroke:none"
         id="path22" /><path
         d="m 3545.27,4249.72 -127.33,220.57 7.39,4.26 127.35,-220.55 -7.41,-4.28"
         style="fill:#72bccc;fill-opacity:1;fill-rule:nonzero;stroke:none"
         id="path24" /><path
         d="m 3451.78,4489.82 c 9.61,-16.64 3.9,-37.93 -12.75,-47.54 -16.64,-9.61 -37.93,-3.9 -47.54,12.74 -9.61,16.64 -3.9,37.93 12.75,47.54 16.64,9.61 37.93,3.9 47.54,-12.74"
         style="fill:#72bccc;fill-opacity:1;fill-rule:nonzero;stroke:none"
         id="path26" /><path
         d="m 3546.84,4248.16 -220.56,127.34 4.28,7.39 220.55,-127.33 -4.27,-7.4"
         style="fill:#72bccc;fill-opacity:1;fill-rule:nonzero;stroke:none"
         id="path28" /><path
         d="m 3345.82,4409.34 c 16.64,-9.61 22.34,-30.9 12.73,-47.54 -9.6,-16.64 -30.89,-22.35 -47.53,-12.74 -16.64,9.61 -22.35,30.9 -12.74,47.54 9.61,16.64 30.89,22.35 47.54,12.74"
         style="fill:#72bccc;fill-opacity:1;fill-rule:nonzero;stroke:none"
         id="path30" /><path
         d="M 3548.97,4247.58 H 3294.3 v 8.55 h 254.67 v -8.55"
         style="fill:#72bccc;fill-opacity:1;fill-rule:nonzero;stroke:none"
         id="path32" /><path
         d="m 3294.3,4286.66 c 19.22,0 34.79,-15.58 34.79,-34.8 0,-19.22 -15.57,-34.8 -34.79,-34.8 -19.22,0 -34.81,15.58 -34.81,34.8 0,19.22 15.59,34.8 34.81,34.8"
         style="fill:#72bccc;fill-opacity:1;fill-rule:nonzero;stroke:none"
         id="path34" /><path
         d="m 3330.56,4120.82 -4.28,7.4 220.56,127.34 4.27,-7.4 -220.55,-127.34"
         style="fill:#72bccc;fill-opacity:1;fill-rule:nonzero;stroke:none"
         id="path36" /><path
         d="m 3311.02,4154.66 c 16.64,9.61 37.93,3.9 47.53,-12.74 9.61,-16.65 3.91,-37.93 -12.73,-47.54 -16.65,-9.61 -37.93,-3.91 -47.54,12.74 -9.61,16.65 -3.9,37.92 12.74,47.54"
         style="fill:#72bccc;fill-opacity:1;fill-rule:nonzero;stroke:none"
         id="path38" /><path
         d="m 3425.33,4029.16 -7.39,4.27 127.33,220.57 7.41,-4.28 -127.35,-220.56"
         style="fill:#72bccc;fill-opacity:1;fill-rule:nonzero;stroke:none"
         id="path40" /><path
         d="m 3391.49,4048.7 c 9.61,16.64 30.9,22.35 47.54,12.74 16.65,-9.61 22.36,-30.9 12.75,-47.55 -9.61,-16.63 -30.9,-22.34 -47.54,-12.73 -16.65,9.61 -22.36,30.89 -12.75,47.54"
         style="fill:#72bccc;fill-opacity:1;fill-rule:nonzero;stroke:none"
         id="path42" /><path
         d="m 3553.25,3997.18 h -8.54 v 254.68 h 8.54 v -254.68"
         style="fill:#72bccc;fill-opacity:1;fill-rule:nonzero;stroke:none"
         id="path44" /><path
         d="m 3514.18,3997.18 c 0,19.21 15.58,34.8 34.79,34.8 19.22,0 34.81,-15.59 34.81,-34.8 0,-19.22 -15.59,-34.8 -34.81,-34.8 -19.21,0 -34.79,15.58 -34.79,34.8"
         style="fill:#72bccc;fill-opacity:1;fill-rule:nonzero;stroke:none"
         id="path46" /><path
         d="m 3672.62,4029.16 -127.35,220.56 7.41,4.28 127.34,-220.57 -7.4,-4.27"
         style="fill:#72bccc;fill-opacity:1;fill-rule:nonzero;stroke:none"
         id="path48" /><path
         d="m 3646.18,4013.89 c -9.61,16.65 -3.9,37.94 12.74,47.55 16.64,9.61 37.93,3.9 47.54,-12.74 9.6,-16.65 3.9,-37.93 -12.74,-47.54 -16.65,-9.61 -37.93,-3.9 -47.54,12.73"
         style="fill:#72bccc;fill-opacity:1;fill-rule:nonzero;stroke:none"
         id="path50" /><path
         d="m 3767.4,4120.82 -220.56,127.34 4.27,7.4 220.56,-127.34 -4.27,-7.4"
         style="fill:#72bccc;fill-opacity:1;fill-rule:nonzero;stroke:none"
         id="path52" /><path
         d="m 3752.14,4094.38 c -16.65,9.61 -22.35,30.89 -12.75,47.54 9.61,16.64 30.9,22.35 47.54,12.74 16.65,-9.62 22.36,-30.89 12.75,-47.54 -9.61,-16.65 -30.9,-22.35 -47.54,-12.74"
         style="fill:#72bccc;fill-opacity:1;fill-rule:nonzero;stroke:none"
         id="path54" /><path
         d="m 3803.65,4247.58 h -254.68 v 8.55 h 254.68 v -8.55"
         style="fill:#72bccc;fill-opacity:1;fill-rule:nonzero;stroke:none"
         id="path56" /><path
         d="m 3803.66,4217.06 c -19.23,0 -34.8,15.58 -34.8,34.8 0,19.22 15.57,34.8 34.8,34.8 19.22,0 34.8,-15.58 34.8,-34.8 0,-19.22 -15.58,-34.8 -34.8,-34.8"
         style="fill:#72bccc;fill-opacity:1;fill-rule:nonzero;stroke:none"
         id="path58" /><path
         d="m 3551.11,4248.16 -4.27,7.4 220.56,127.33 4.27,-7.39 -220.56,-127.34"
         style="fill:#72bccc;fill-opacity:1;fill-rule:nonzero;stroke:none"
         id="path60" /><path
         d="m 3786.93,4349.06 c -16.64,-9.61 -37.93,-3.9 -47.54,12.74 -9.6,16.64 -3.9,37.93 12.75,47.54 16.64,9.61 37.93,3.9 47.54,-12.74 9.61,-16.64 3.9,-37.93 -12.75,-47.54"
         style="fill:#72bccc;fill-opacity:1;fill-rule:nonzero;stroke:none"
         id="path62" /><path
         d="m 3552.68,4249.72 -7.41,4.28 127.35,220.55 7.4,-4.26 -127.34,-220.57"
         style="fill:#72bccc;fill-opacity:1;fill-rule:nonzero;stroke:none"
         id="path64" /><path
         d="m 3706.46,4455.02 c -9.61,-16.64 -30.9,-22.35 -47.54,-12.74 -16.64,9.61 -22.35,30.9 -12.74,47.54 9.61,16.64 30.89,22.35 47.54,12.74 16.64,-9.61 22.34,-30.9 12.74,-47.54"
         style="fill:#72bccc;fill-opacity:1;fill-rule:nonzero;stroke:none"
         id="path66" /><path
         d="m 4574.99,1792.29 c -18.56,-49.36 -73.63,-74.32 -122.99,-55.75 -49.36,18.57 -74.32,73.64 -55.75,122.99 18.57,49.37 73.64,74.32 123,55.75 49.35,-18.57 74.31,-73.64 55.74,-122.99"
         style="fill:#72bccc;fill-opacity:1;fill-rule:nonzero;stroke:none"
         id="path68" /><path
         d="m 4488.03,1825 -4.82,1.82 54.07,143.69 4.81,-1.82 -54.06,-143.69"
         style="fill:#72bccc;fill-opacity:1;fill-rule:nonzero;stroke:none"
         id="path70" /><path
         d="m 4559.32,1962.22 c -4.09,-10.85 -16.18,-16.33 -27.03,-12.25 -10.83,4.07 -16.32,16.17 -12.24,27.02 4.08,10.84 16.18,16.33 27.02,12.25 10.84,-4.08 16.33,-16.18 12.25,-27.02"
         style="fill:#72bccc;fill-opacity:1;fill-rule:nonzero;stroke:none"
         id="path72" /><path
         d="m 4483.08,1825.49 -25.02,151.47 5.07,0.84 25.03,-151.47 -5.08,-0.84"
         style="fill:#72bccc;fill-opacity:1;fill-rule:nonzero;stroke:none"
         id="path74" /><path
         d="m 4481.29,1980.8 c 1.89,-11.43 -5.84,-22.23 -17.28,-24.12 -11.42,-1.89 -22.22,5.85 -24.11,17.28 -1.89,11.43 5.84,22.23 17.28,24.12 11.42,1.89 22.22,-5.84 24.11,-17.28"
         style="fill:#72bccc;fill-opacity:1;fill-rule:nonzero;stroke:none"
         id="path76" /><path
         d="m 4483.63,1824.28 -97.41,118.66 3.99,3.27 97.41,-118.66 -3.99,-3.27"
         style="fill:#72bccc;fill-opacity:1;fill-rule:nonzero;stroke:none"
         id="path78" /><path
         d="m 4404.42,1957.88 c 7.36,-8.95 6.06,-22.17 -2.9,-29.52 -8.95,-7.35 -22.17,-6.06 -29.52,2.9 -7.35,8.95 -6.05,22.18 2.9,29.53 8.96,7.35 22.18,6.05 29.52,-2.91"
         style="fill:#72bccc;fill-opacity:1;fill-rule:nonzero;stroke:none"
         id="path80" /><path
         d="m 4484.72,1823.5 -143.69,54.06 1.81,4.82 143.69,-54.06 -1.81,-4.82"
         style="fill:#72bccc;fill-opacity:1;fill-rule:nonzero;stroke:none"
         id="path82" /><path
         d="m 4349.32,1899.61 c 10.85,-4.08 16.32,-16.18 12.24,-27.02 -4.07,-10.85 -16.17,-16.33 -27.02,-12.25 -10.84,4.07 -16.32,16.17 -12.25,27.02 4.09,10.84 16.19,16.32 27.03,12.25"
         style="fill:#72bccc;fill-opacity:1;fill-rule:nonzero;stroke:none"
         id="path84" /><path
         d="m 4334.57,1798.34 -0.84,5.09 151.48,25.02 0.83,-5.08 -151.47,-25.03"
         style="fill:#72bccc;fill-opacity:1;fill-rule:nonzero;stroke:none"
         id="path86" /><path
         d="m 4330.73,1821.58 c 11.43,1.89 22.23,-5.85 24.12,-17.27 1.89,-11.44 -5.85,-22.24 -17.28,-24.12 -11.43,-1.89 -22.23,5.85 -24.11,17.27 -1.9,11.44 5.85,22.23 17.27,24.12"
         style="fill:#72bccc;fill-opacity:1;fill-rule:nonzero;stroke:none"
         id="path88" /><path
         d="m 4368.59,1726.51 -3.27,3.98 118.66,97.41 3.28,-3.98 -118.67,-97.41"
         style="fill:#72bccc;fill-opacity:1;fill-rule:nonzero;stroke:none"
         id="path90" /><path
         d="m 4353.65,1744.72 c 8.96,7.35 22.17,6.04 29.52,-2.91 7.36,-8.95 6.06,-22.17 -2.9,-29.52 -8.95,-7.36 -22.17,-6.05 -29.53,2.91 -7.34,8.95 -6.04,22.16 2.91,29.52"
         style="fill:#72bccc;fill-opacity:1;fill-rule:nonzero;stroke:none"
         id="path92" /><path
         d="m 4433.97,1681.31 -4.82,1.81 54.06,143.7 4.82,-1.82 -54.06,-143.69"
         style="fill:#72bccc;fill-opacity:1;fill-rule:nonzero;stroke:none"
         id="path94" /><path
         d="m 4411.92,1689.61 c 4.09,10.84 16.19,16.33 27.03,12.25 10.84,-4.09 16.32,-16.19 12.24,-27.03 -4.07,-10.84 -16.17,-16.32 -27.02,-12.24 -10.84,4.08 -16.32,16.17 -12.25,27.02"
         style="fill:#72bccc;fill-opacity:1;fill-rule:nonzero;stroke:none"
         id="path96" /><path
         d="m 4508.11,1674.02 -25.03,151.47 5.08,0.84 25.03,-151.47 -5.08,-0.84"
         style="fill:#72bccc;fill-opacity:1;fill-rule:nonzero;stroke:none"
         id="path98" /><path
         d="m 4489.95,1671.03 c -1.88,11.42 5.85,22.22 17.28,24.11 11.43,1.88 22.23,-5.85 24.12,-17.28 1.88,-11.43 -5.85,-22.23 -17.28,-24.12 -11.43,-1.88 -22.22,5.85 -24.12,17.29"
         style="fill:#72bccc;fill-opacity:1;fill-rule:nonzero;stroke:none"
         id="path100" /><path
         d="m 4581.04,1705.62 -97.41,118.66 3.99,3.27 97.4,-118.67 -3.98,-3.26"
         style="fill:#72bccc;fill-opacity:1;fill-rule:nonzero;stroke:none"
         id="path102" /><path
         d="m 4566.82,1693.94 c -7.36,8.95 -6.06,22.17 2.91,29.52 8.94,7.35 22.16,6.05 29.52,-2.9 7.35,-8.96 6.04,-22.17 -2.91,-29.52 -8.96,-7.36 -22.17,-6.06 -29.52,2.9"
         style="fill:#72bccc;fill-opacity:1;fill-rule:nonzero;stroke:none"
         id="path104" /><path
         d="m 4628.41,1769.43 -143.69,54.07 1.81,4.82 143.68,-54.06 -1.8,-4.83"
         style="fill:#72bccc;fill-opacity:1;fill-rule:nonzero;stroke:none"
         id="path106" /><path
         d="m 4621.92,1752.22 c -10.84,4.08 -16.32,16.17 -12.24,27.02 4.08,10.84 16.18,16.33 27.02,12.24 10.84,-4.08 16.33,-16.18 12.25,-27.02 -4.09,-10.84 -16.18,-16.33 -27.03,-12.24"
         style="fill:#72bccc;fill-opacity:1;fill-rule:nonzero;stroke:none"
         id="path108" /><path
         d="m 4486.04,1823.37 -0.83,5.08 151.46,25.03 0.84,-5.08 -151.47,-25.03"
         style="fill:#72bccc;fill-opacity:1;fill-rule:nonzero;stroke:none"
         id="path110" /><path
         d="m 4640.52,1830.24 c -11.44,-1.89 -22.24,5.84 -24.12,17.28 -1.9,11.43 5.85,22.23 17.27,24.11 11.44,1.9 22.23,-5.84 24.12,-17.27 1.89,-11.43 -5.85,-22.23 -17.27,-24.12"
         style="fill:#72bccc;fill-opacity:1;fill-rule:nonzero;stroke:none"
         id="path112" /><path
         d="m 4487.26,1823.92 -3.28,3.98 118.68,97.41 3.26,-3.98 -118.66,-97.41"
         style="fill:#72bccc;fill-opacity:1;fill-rule:nonzero;stroke:none"
         id="path114" /><path
         d="m 4617.6,1907.11 c -8.96,-7.35 -22.18,-6.06 -29.52,2.9 -7.36,8.95 -6.06,22.18 2.9,29.52 8.95,7.35 22.16,6.06 29.52,-2.9 7.35,-8.95 6.05,-22.18 -2.9,-29.52"
         style="fill:#72bccc;fill-opacity:1;fill-rule:nonzero;stroke:none"
         id="path116" /><path
         d="m 2337.08,3997.68 c -18.57,-49.36 -73.64,-74.32 -123,-55.75 -49.35,18.57 -74.31,73.64 -55.74,122.99 18.57,49.36 73.63,74.32 122.99,55.75 49.36,-18.57 74.32,-73.64 55.75,-122.99"
         style="fill:#72bccc;fill-opacity:1;fill-rule:nonzero;stroke:none"
         id="path118" /><path
         d="m 2250.12,4030.39 -4.82,1.82 54.06,143.68 4.82,-1.81 -54.06,-143.69"
         style="fill:#72bccc;fill-opacity:1;fill-rule:nonzero;stroke:none"
         id="path120" /><path
         d="m 2321.4,4167.6 c -4.08,-10.84 -16.17,-16.33 -27.02,-12.24 -10.84,4.07 -16.32,16.18 -12.25,27.02 4.09,10.84 16.19,16.32 27.03,12.25 10.84,-4.09 16.32,-16.18 12.24,-27.03"
         style="fill:#72bccc;fill-opacity:1;fill-rule:nonzero;stroke:none"
         id="path122" /><path
         d="m 2245.17,4030.88 -25.03,151.47 5.08,0.84 25.03,-151.47 -5.08,-0.84"
         style="fill:#72bccc;fill-opacity:1;fill-rule:nonzero;stroke:none"
         id="path124" /><path
         d="m 2243.38,4186.19 c 1.89,-11.43 -5.85,-22.23 -17.28,-24.12 -11.43,-1.88 -22.23,5.85 -24.12,17.28 -1.88,11.43 5.85,22.23 17.28,24.12 11.43,1.89 22.23,-5.85 24.12,-17.28"
         style="fill:#72bccc;fill-opacity:1;fill-rule:nonzero;stroke:none"
         id="path126" /><path
         d="m 2245.72,4029.66 -97.41,118.66 3.98,3.28 97.41,-118.67 -3.98,-3.27"
         style="fill:#72bccc;fill-opacity:1;fill-rule:nonzero;stroke:none"
         id="path128" /><path
         d="m 2166.51,4163.27 c 7.36,-8.95 6.05,-22.17 -2.9,-29.52 -8.96,-7.36 -22.17,-6.05 -29.52,2.9 -7.36,8.96 -6.06,22.17 2.9,29.53 8.95,7.34 22.18,6.05 29.52,-2.91"
         style="fill:#72bccc;fill-opacity:1;fill-rule:nonzero;stroke:none"
         id="path130" /><path
         d="m 2246.8,4028.89 -143.69,54.06 1.82,4.82 143.68,-54.06 -1.81,-4.82"
         style="fill:#72bccc;fill-opacity:1;fill-rule:nonzero;stroke:none"
         id="path132" /><path
         d="m 2111.41,4105 c 10.84,-4.09 16.32,-16.18 12.24,-27.03 -4.07,-10.84 -16.17,-16.33 -27.02,-12.24 -10.84,4.07 -16.33,16.17 -12.25,27.02 4.08,10.84 16.18,16.32 27.03,12.25"
         style="fill:#72bccc;fill-opacity:1;fill-rule:nonzero;stroke:none"
         id="path134" /><path
         d="m 2096.66,4003.73 -0.84,5.08 151.47,25.03 0.84,-5.09 -151.47,-25.02"
         style="fill:#72bccc;fill-opacity:1;fill-rule:nonzero;stroke:none"
         id="path136" /><path
         d="m 2092.82,4026.97 c 11.43,1.89 22.23,-5.84 24.11,-17.28 1.89,-11.43 -5.84,-22.23 -17.27,-24.11 -11.43,-1.89 -22.23,5.84 -24.12,17.27 -1.89,11.43 5.85,22.23 17.28,24.12"
         style="fill:#72bccc;fill-opacity:1;fill-rule:nonzero;stroke:none"
         id="path138" /><path
         d="m 2130.68,3931.9 -3.27,3.98 118.66,97.41 3.28,-3.98 -118.67,-97.41"
         style="fill:#72bccc;fill-opacity:1;fill-rule:nonzero;stroke:none"
         id="path140" /><path
         d="m 2115.74,3950.1 c 8.95,7.36 22.17,6.05 29.52,-2.9 7.35,-8.96 6.05,-22.18 -2.91,-29.52 -8.95,-7.36 -22.17,-6.05 -29.52,2.9 -7.35,8.96 -6.05,22.17 2.91,29.52"
         style="fill:#72bccc;fill-opacity:1;fill-rule:nonzero;stroke:none"
         id="path142" /><path
         d="m 2196.06,3886.7 -4.82,1.82 54.06,143.69 4.82,-1.82 -54.06,-143.69"
         style="fill:#72bccc;fill-opacity:1;fill-rule:nonzero;stroke:none"
         id="path144" /><path
         d="m 2174.01,3895 c 4.09,10.84 16.18,16.32 27.03,12.24 10.84,-4.08 16.32,-16.18 12.24,-27.02 -4.08,-10.84 -16.18,-16.33 -27.02,-12.25 -10.84,4.08 -16.32,16.18 -12.25,27.03"
         style="fill:#72bccc;fill-opacity:1;fill-rule:nonzero;stroke:none"
         id="path146" /><path
         d="m 2270.2,3879.41 -25.03,151.47 5.08,0.84 25.03,-151.47 -5.08,-0.84"
         style="fill:#72bccc;fill-opacity:1;fill-rule:nonzero;stroke:none"
         id="path148" /><path
         d="m 2252.04,3876.41 c -1.89,11.43 5.85,22.23 17.28,24.12 11.43,1.88 22.22,-5.85 24.11,-17.28 1.89,-11.43 -5.84,-22.23 -17.27,-24.12 -11.43,-1.89 -22.23,5.85 -24.12,17.28"
         style="fill:#72bccc;fill-opacity:1;fill-rule:nonzero;stroke:none"
         id="path150" /><path
         d="m 2343.13,3911 -97.41,118.66 3.98,3.27 97.41,-118.66 -3.98,-3.27"
         style="fill:#72bccc;fill-opacity:1;fill-rule:nonzero;stroke:none"
         id="path152" /><path
         d="m 2328.91,3899.33 c -7.36,8.95 -6.06,22.17 2.9,29.52 8.95,7.35 22.17,6.05 29.52,-2.91 7.35,-8.95 6.05,-22.17 -2.9,-29.52 -8.96,-7.35 -22.18,-6.05 -29.52,2.91"
         style="fill:#72bccc;fill-opacity:1;fill-rule:nonzero;stroke:none"
         id="path154" /><path
         d="m 2390.49,3974.82 -143.69,54.07 1.81,4.82 143.69,-54.06 -1.81,-4.83"
         style="fill:#72bccc;fill-opacity:1;fill-rule:nonzero;stroke:none"
         id="path156" /><path
         d="m 2384.01,3957.6 c -10.84,4.08 -16.32,16.18 -12.24,27.02 4.07,10.85 16.17,16.33 27.02,12.25 10.84,-4.08 16.32,-16.18 12.25,-27.02 -4.09,-10.84 -16.18,-16.32 -27.03,-12.25"
         style="fill:#72bccc;fill-opacity:1;fill-rule:nonzero;stroke:none"
         id="path158" /><path
         d="m 2248.13,4028.75 -0.84,5.09 151.47,25.03 0.84,-5.08 -151.47,-25.04"
         style="fill:#72bccc;fill-opacity:1;fill-rule:nonzero;stroke:none"
         id="path160" /><path
         d="m 2402.6,4035.63 c -11.43,-1.89 -22.23,5.85 -24.12,17.28 -1.89,11.43 5.85,22.23 17.28,24.11 11.43,1.89 22.23,-5.84 24.12,-17.27 1.89,-11.43 -5.85,-22.23 -17.28,-24.12"
         style="fill:#72bccc;fill-opacity:1;fill-rule:nonzero;stroke:none"
         id="path162" /><path
         d="m 2249.35,4029.31 -3.28,3.98 118.67,97.41 3.27,-3.98 -118.66,-97.41"
         style="fill:#72bccc;fill-opacity:1;fill-rule:nonzero;stroke:none"
         id="path164" /><path
         d="m 2379.68,4112.5 c -8.95,-7.36 -22.17,-6.06 -29.52,2.9 -7.35,8.95 -6.05,22.17 2.9,29.52 8.96,7.35 22.17,6.05 29.53,-2.9 7.35,-8.96 6.05,-22.18 -2.91,-29.52"
         style="fill:#72bccc;fill-opacity:1;fill-rule:nonzero;stroke:none"
         id="path166" /><path
         d="m 3625.34,716.27 c 0,-40.239 -462.68,-72.872 -1033.45,-72.872 -570.76,0 -1033.45,32.633 -1033.45,72.872 0,40.25 462.69,72.878 1033.45,72.878 570.77,0 1033.45,-32.628 1033.45,-72.878"
         style="fill:#92b9c9;fill-opacity:1;fill-rule:nonzero;stroke:none"
         id="path168" /><path
         d="m 4485.63,716.27 c 0,-40.239 -283.44,-72.872 -633.07,-72.872 -349.64,0 -633.07,32.633 -633.07,72.872 0,40.25 283.43,72.878 633.07,72.878 349.63,0 633.07,-32.628 633.07,-72.878"
         style="fill:#92b9c9;fill-opacity:1;fill-rule:nonzero;stroke:none"
         id="path170" /><path
         d="M 1602.63,719.832 866.328,693.711 c -63.433,0 -116.277,41.871 -121.547,96.301 L 461.68,3715.39 c -5.926,61.23 50.191,113.75 121.547,113.75 l 736.303,-26.13 c 63.43,0 116.28,-41.87 121.54,-96.31 l 283.1,-2873.118 c 5.93,-61.23 -50.19,-113.75 -121.54,-113.75"
         style="fill:#496378;fill-opacity:1;fill-rule:nonzero;stroke:none"
         id="path172" /><path
         d="M 1705.44,719.832 969.141,693.711 c -63.434,0 -116.274,41.871 -121.543,96.301 L 564.496,3715.39 c -5.926,61.23 50.188,113.75 121.543,113.75 l 736.301,-26.13 c 63.44,0 116.28,-41.87 121.55,-96.31 l 283.1,-2873.118 c 5.93,-61.23 -50.19,-113.75 -121.55,-113.75"
         style="fill:#80a1b4;fill-opacity:1;fill-rule:nonzero;stroke:none"
         id="path174" /><path
         d="M 1725.67,719.832 989.371,693.711 c -63.433,0 -116.281,41.871 -121.543,96.301 L 584.723,3715.39 c -5.922,61.23 50.187,113.75 121.547,113.75 l 736.3,-26.13 c 63.44,0 116.28,-41.87 121.55,-96.31 l 283.1,-2873.118 c 5.92,-61.23 -50.19,-113.75 -121.55,-113.75"
         style="fill:#23313a;fill-opacity:1;fill-rule:nonzero;stroke:none"
         id="path176" /><path
         d="m 1770.76,789.16 c -11.76,-11.051 -27.79,-17.07 -45.12,-17.07 l -736.3,-26.121 c -31.613,0 -58.442,21.25 -61.055,48.41 L 887.18,1219.41 645.227,3719.75 c -1.481,14.89 4.179,29.09 15.933,40.06 11.762,11.06 27.785,17.07 45.117,17.07 l 736.303,-26.13 c 31.62,0 58.45,-21.25 61.06,-48.42 L 1643.77,2280.06 1786.78,829.23 c 1.4,-14.89 -4.26,-29.089 -16.02,-40.07"
         style="fill:#dbd125;fill-opacity:1;fill-rule:nonzero;stroke:none"
         id="path178" /><path
         d="m 1629.31,2446.74 -781.927,-816.09 -44.473,459.57 809.01,513.11 17.39,-156.59"
         style="fill:#eef042;fill-opacity:1;fill-rule:nonzero;stroke:none"
         id="path180" /><path
         d="m 1770.76,789.16 c -11.76,-11.051 -27.79,-17.07 -45.12,-17.07 l -736.3,-26.121 c -31.613,0 -58.442,21.25 -61.055,48.41 L 887.18,1219.41 c 176.19,250.83 548.43,770.45 756.59,1060.65 L 1786.78,829.23 c 1.4,-14.89 -4.26,-29.089 -16.02,-40.07"
         style="fill:#eef042;fill-opacity:1;fill-rule:nonzero;stroke:none"
         id="path182" /><path
         d="m 899.945,3776.88 38.157,-58.89 c 7.613,-8.27 18.293,-13.04 29.535,-13.18 l 309.253,-3.87 c 12.53,-0.16 24.43,5.44 32.3,15.19 l 34.94,60.75 H 899.945"
         style="fill:#23313a;fill-opacity:1;fill-rule:nonzero;stroke:none"
         id="path184" /><path
         d="m 1169.56,1247.03 c 6.46,-80.54 -27.67,-148.98 -76.23,-152.88 -48.56,-3.9 -93.17,58.23 -99.635,138.77 -6.465,80.54 27.665,148.98 76.235,152.88 48.56,3.9 93.17,-58.23 99.63,-138.77"
         style="fill:#50c19a;fill-opacity:1;fill-rule:nonzero;stroke:none"
         id="path186" /><path
         d="m 1422.89,1268.25 c 6.46,-80.54 -27.66,-148.98 -76.22,-152.88 -48.57,-3.9 -93.17,58.23 -99.64,138.77 -6.46,80.54 27.67,148.99 76.23,152.88 48.57,3.9 93.17,-58.23 99.63,-138.77"
         style="fill:#50c19a;fill-opacity:1;fill-rule:nonzero;stroke:none"
         id="path188" /><path
         d="m 1669.38,1292.27 c 6.46,-80.54 -27.67,-149 -76.23,-152.9 -48.56,-3.89 -93.17,58.25 -99.63,138.78 -6.46,80.54 27.67,148.99 76.23,152.89 48.56,3.89 93.17,-58.24 99.63,-138.77"
         style="fill:#50c19a;fill-opacity:1;fill-rule:nonzero;stroke:none"
         id="path190" /><path
         d="m 1499.91,2738.02 c 22.13,-280.17 -96.89,-518.12 -265.83,-531.46 -168.94,-13.34 -323.826,202.98 -345.951,483.16 -22.121,280.17 96.894,518.12 265.831,531.46 168.94,13.34 323.83,-202.98 345.95,-483.16"
         style="fill:#ecf8f4;fill-opacity:1;fill-rule:nonzero;stroke:none"
         id="path192" /><path
         d="m 1023.37,2629.63 147.1,-169.58 c 22.18,-25.57 63.56,-18.59 76.13,12.85 l 160.28,401.06 c 4.41,11.03 4.3,23.35 -0.3,34.3 l -0.26,0.63 c -15.68,37.27 -68.66,36.79 -83.66,-0.76 l -134.75,-337.41 -95.33,117.08 c -25.8,31.68 -77.05,15.6 -80.14,-25.14 -0.91,-12.03 3.03,-23.92 10.93,-33.03"
         style="fill:#50c19a;fill-opacity:1;fill-rule:nonzero;stroke:none"
         id="path194" /><path
         d="m 965.102,1878.2 c -11.469,0 -21.075,8.98 -21.719,20.57 -0.664,12.01 8.531,22.28 20.535,22.95 l 627.092,34.83 c 11.96,0.79 22.28,-8.51 22.94,-20.52 0.67,-12.02 -8.53,-22.29 -20.53,-22.95 l -627.088,-34.84 -1.23,-0.04"
         style="fill:#ecf8f4;fill-opacity:1;fill-rule:nonzero;stroke:none"
         id="path196" /><path
         d="m 1435.6,3445.32 -0.62,0.01 -627.089,17.42 c -12.024,0.34 -21.5,10.35 -21.161,22.37 0.336,12.01 10.422,21.37 22.368,21.16 l 627.092,-17.42 c 12.02,-0.34 21.49,-10.35 21.16,-22.37 -0.33,-11.82 -10.02,-21.17 -21.75,-21.17"
         style="fill:#ecf8f4;fill-opacity:1;fill-rule:nonzero;stroke:none"
         id="path198" /><path
         d="m 965.102,1710.52 c -11.336,0 -20.899,8.79 -21.7,20.27 -0.836,11.99 8.219,22.39 20.215,23.22 l 627.083,43.56 c 12.08,0.78 22.4,-8.23 23.24,-20.23 0.83,-11.99 -8.22,-22.39 -20.22,-23.22 l -627.083,-43.54 -1.535,-0.06"
         style="fill:#ecf8f4;fill-opacity:1;fill-rule:nonzero;stroke:none"
         id="path200" /><path
         d="m 1798.72,3196.92 c 0,0 -41.03,141.09 -43.4,163.92 -2.38,22.81 -15.2,96.85 21.7,118.62 36.89,21.78 15.11,87.09 54.31,100.16 42.95,14.31 96.5,11.82 140.98,10.32 55.13,-1.85 126.37,-27.09 149.76,-83.26 17.29,-41.51 -3.94,-116.76 -13.33,-159.77 l -310.02,-149.99"
         style="fill:#3e271f;fill-opacity:1;fill-rule:nonzero;stroke:none"
         id="path202" /><path
         d="m 1798.72,3196.92 c 0,0 -41.03,141.09 -43.4,163.92 -0.03,0.26 -0.06,0.54 -0.09,0.82 -0.73,6.7 -2.22,17.31 -3.16,29.56 1.68,1.45 4.62,3.02 8.47,4.62 6.85,2.86 16.58,5.86 27.15,8.65 0.55,-18.23 3.04,-34.8 3.96,-43.65 0.1,-0.9 0.25,-1.98 0.46,-3.22 -2.91,-5.77 -4.74,-11.86 -5.01,-17.88 -0.03,-0.66 -0.04,-1.32 -0.04,-1.97 0.02,-8.68 2.72,-17.18 8.16,-24.06 0.07,-0.09 0.16,-0.18 0.26,-0.29 v 0 c 1.23,-1.22 4.9,-3.74 8.74,-6.22 3.52,-13.24 7.41,-27.49 11.22,-41.2 -2.39,-22.39 -9.04,-46.01 -16.7,-69.07 l -0.02,-0.01"
         style="fill:#654016;fill-opacity:1;fill-rule:nonzero;stroke:none"
         id="path204" /><path
         d="m 2085.96,3199.13 c -4.35,-19.86 -12.58,-31.84 -23.04,-39.36 -33.83,-24.68 -90,-3.06 -105.85,-53.23 -3.41,-10.93 -10.35,-25.97 -13.64,-40.77 -2.7,-11.87 -2.93,-23.73 2.82,-32.9 2.7,-4.23 7.76,-8.58 6.58,-14.1 -1.17,-5.41 -7.75,-8.57 -12.45,-10.34 -9.64,-3.52 -20.68,-3.17 -30.79,-2.35 -43.82,3.35 -129.19,23.51 -141.08,75.55 -3.18,13.91 0.95,28.34 5.05,42.02 15.53,51.82 49.81,122.26 41.57,176.98 0.05,-0.36 -17.96,10.62 -19.91,13.08 -5.85,7.4 -8.54,16.68 -8.12,26.03 0.88,19.67 18.37,39.96 35.85,48.16 31.56,14.81 43.89,-27.16 54.22,-49.54 3.64,-7.88 7.99,-17.86 18.09,-13.75 11.52,4.58 21.03,13.75 20.56,26.44 -0.35,9.98 -3.05,19.74 0.59,29.49 8.69,22.56 36.19,33.13 50.88,51.11 10.92,13.39 10.34,25.38 10.81,41.24 0.35,11.87 13.39,16.33 22.91,19.98 17.62,6.69 48.17,17.62 66.15,6.1 11.39,-7.4 15.27,-23.61 19.85,-35.48 5.17,-13.63 12.22,-26.55 16.22,-40.54 16.57,-59.8 -4.23,-164.49 -17.27,-223.82"
         style="fill:#f9a76c;fill-opacity:1;fill-rule:nonzero;stroke:none"
         id="path206" /><path
         d="m 1815.12,3300.62 c -0.21,0 -3.19,1.75 -6.8,3.99 v 0 c 3.61,-2.24 6.59,-3.99 6.8,-3.99 v 0 m -6.84,4.01 c -1.31,0.81 -2.69,1.69 -4.06,2.57 v 0 c 1.37,-0.88 2.75,-1.75 4.06,-2.57 v 0"
         style="fill:#654016;fill-opacity:1;fill-rule:nonzero;stroke:none"
         id="path208" /><path
         d="m 1804.22,3307.2 c -3.84,2.48 -7.51,5 -8.74,6.22 1.23,-1.22 4.9,-3.74 8.74,-6.22 v 0"
         style="fill:#a7651b;fill-opacity:1;fill-rule:nonzero;stroke:none"
         id="path210" /><path
         d="m 1815.12,3300.62 c 0,0 0.01,0 0.01,0.01 0,-0.01 -0.01,-0.01 -0.01,-0.01"
         style="fill:#654016;fill-opacity:1;fill-rule:nonzero;stroke:none"
         id="path212" /><path
         d="m 1799.42,3368.9 c 9.61,15.6 23.25,30.87 35.05,30.87 3.75,0 7.31,-1.54 10.5,-5.1 2.38,-2.66 4,-5.73 5.08,-9.03 -4.23,3.33 -9.03,5.36 -14.58,5.36 -3.8,0 -7.96,-0.96 -12.52,-3.1 -8.47,-3.97 -16.95,-10.79 -23.53,-19"
         style="fill:#654016;fill-opacity:1;fill-rule:nonzero;stroke:none"
         id="path214" /><path
         d="m 1837.22,3135.22 c -6.55,3.67 -13.19,7.17 -19.99,10.39 -8.33,3.9 -21.28,10.41 -32.52,10.41 -0.11,0 -0.21,0 -0.32,0 14.34,40.37 31.97,86.54 32,126.81 0,0.45 0,0.9 -0.01,1.34 0.33,-0.72 0.67,-1.43 1.05,-2.12 4.71,-8.79 12.33,-16.53 18.81,-24.02 1.88,-2.19 3.8,-4.33 5.74,-6.45 -2.56,-37.09 -4.67,-78.56 -4.76,-116.36 m 5.48,126.45 c -9.42,10.43 -18.37,21.29 -26.8,32.54 -0.2,2.16 -0.45,4.3 -0.77,6.42 v 0 0 0 c 0,-0.01 -0.01,-0.01 -0.01,-0.01 v 0 c -0.21,0 -3.19,1.75 -6.8,3.99 -0.19,0.27 -0.39,0.55 -0.59,0.83 v 0 0 c 0.19,-0.27 0.37,-0.53 0.55,-0.81 -1.31,0.82 -2.69,1.69 -4.06,2.57 -3.84,2.48 -7.51,5 -8.74,6.22 v 0 c -0.1,0.11 -0.19,0.2 -0.26,0.29 -5.44,6.88 -8.14,15.38 -8.16,24.06 0,0.65 0.01,1.31 0.04,1.97 0.26,5.79 5.17,17.56 12.32,29.16 6.58,8.21 15.06,15.03 23.53,19 4.56,2.14 8.72,3.1 12.52,3.1 5.55,0 10.35,-2.03 14.58,-5.36 2.54,-7.83 2.02,-17.01 1.26,-25.44 -0.88,-9.74 -4.67,-46.05 -8.11,-91.73 -0.17,-2.24 -0.33,-4.52 -0.5,-6.8"
         style="fill:#f9d831;fill-opacity:1;fill-rule:nonzero;stroke:none"
         id="path216" /><path
         d="m 2103.23,3422.95 c -4,13.99 -11.05,26.91 -16.22,40.54 -4.58,11.87 -8.46,28.08 -19.85,35.48 -16.88,10.82 -44.84,1.85 -62.78,-4.83 2.3,-77.65 13.05,-155.19 -42.41,-210.64 -8.71,-13.07 -28.31,-10.89 -46.81,-8.71 -18.51,2.17 -35.93,4.35 -40.28,-8.72 -30.51,-78.45 -37.02,-169.99 -14.09,-251.69 17.96,-4.64 35.34,-7.27 48.8,-8.3 10.11,-0.82 21.15,-1.17 30.79,2.35 4.7,1.77 11.28,4.93 12.45,10.34 1.18,5.52 -3.88,9.87 -6.58,14.1 -5.75,9.17 -5.52,21.03 -2.82,32.9 3.29,14.8 10.23,29.84 13.64,40.77 15.85,50.17 72.02,28.55 105.85,53.23 10.46,7.52 18.69,19.5 23.04,39.36 13.04,59.33 33.84,164.02 17.27,223.82"
         style="fill:#f9a76c;fill-opacity:1;fill-rule:nonzero;stroke:none"
         id="path218" /><path
         d="m 2050.75,3157.38 2.26,-0.05 c -16.71,-11.47 -37.03,-10.91 -56.15,-16.01 -19.14,-5.08 -33.6,-15.19 -39.79,-34.78 -4.21,-13.47 -9.43,-27.92 -14.15,-40.59 -11.42,9.7 -12.32,29.25 -15.13,42.95 -2.62,12.82 -4,25.83 -4.28,38.91 -0.8,37.95 31.97,22.76 56.46,18.65 23.12,-3.89 47.27,-8.47 70.78,-9.08"
         style="fill:#f36152;fill-opacity:1;fill-rule:nonzero;stroke:none"
         id="path220" /><path
         d="m 2076.85,3308.95 c -33.33,4.61 -106.21,-5.51 -134.55,-9.82 0.41,1.27 0.26,2.69 -0.89,3.75 -11.5,10.49 -22.96,22.07 -35.36,31.45 -12.89,9.73 -27.78,17.58 -41.44,26.23 6.31,-14.95 15.45,-18.85 27.18,-28.4 14.26,-11.61 28.66,-23.03 43.31,-34.15 -2.84,-0.45 -4.43,-0.72 -4.43,-0.72 -8.71,-18.06 -11.03,-38.53 -10.08,-58.36 0.45,-9.33 1.65,-18.62 3.39,-27.79 1.3,-6.88 6.7,-15.94 3.59,-22.78 -11.11,4.07 -22.8,15.8 -32.11,23.32 -33.38,27.01 -63.01,58.65 -87.73,93.76 4.93,-7 5.71,-15.97 9.7,-23.39 4.71,-8.79 12.33,-16.53 18.81,-24.02 10.29,-11.91 21.48,-22.68 32.02,-34.27 7.35,-8.09 14.74,-15.78 23.78,-22.06 6.53,-4.54 13.34,-8.66 20.44,-12.26 2.95,-1.5 18.39,-5.69 19.27,-8.36 1.7,-5.11 2.91,-8.15 2.91,-8.15 0,0 51.5,-60.44 118.35,-15.6 66.85,44.85 56.35,128.72 56.35,128.72 0,0 9.35,17.12 -32.51,22.9"
         style="fill:#50c19a;fill-opacity:1;fill-rule:nonzero;stroke:none"
         id="path222" /><path
         d="m 1934.66,3172.92 c 0,0.01 0,0.01 0,0.01 0,0 0,0 0,-0.01"
         style="fill:#f9d831;fill-opacity:1;fill-rule:nonzero;stroke:none"
         id="path224" /><path
         d="m 1995,3141.19 c -36.11,3.65 -59.96,31.3 -60.34,31.73 0,0.01 0,0.01 0,0.01 v 0 0 c 0,0 -1.21,3.04 -2.91,8.15 -0.88,2.67 -16.32,6.86 -19.27,8.36 -7.1,3.6 -13.91,7.72 -20.44,12.26 -9.04,6.28 -16.43,13.97 -23.78,22.06 -8.6,9.46 -17.64,18.38 -26.28,27.82 -1.94,2.12 -3.86,4.26 -5.74,6.45 -6.48,7.49 -14.1,15.23 -18.81,24.02 -0.38,0.69 -0.72,1.4 -1.05,2.12 -3.13,6.97 -4.19,14.93 -8.65,21.27 24.72,-35.11 54.35,-66.75 87.73,-93.76 9.31,-7.52 21,-19.25 32.11,-23.32 0.68,1.5 0.96,3.1 0.95,4.76 0,5.94 -3.52,12.65 -4.54,18.02 -1.74,9.17 -2.94,18.46 -3.39,27.79 -0.11,2.32 -0.18,4.65 -0.19,6.99 -0.13,17.61 2.58,35.43 10.27,51.37 0,0 1.59,0.27 4.43,0.72 v 0 0 c -14.65,11.12 -29.05,22.54 -43.31,34.15 v 0 c -11.45,9.33 -20.44,13.27 -26.73,27.36 -0.15,0.34 -0.3,0.69 -0.45,1.04 13.66,-8.65 28.55,-16.5 41.44,-26.23 12.4,-9.38 23.86,-20.96 35.36,-31.45 0.78,-0.71 1.1,-1.59 1.1,-2.47 0,-0.43 -0.07,-0.86 -0.21,-1.28 v 0 0 c 4.48,0.68 10.16,1.52 16.52,2.4 -6.53,-58.79 6.96,-114.94 36.18,-160.34"
         style="fill:#6cc964;fill-opacity:1;fill-rule:nonzero;stroke:none"
         id="path226" /><path
         d="m 1982.02,3028.97 c -9.51,-14.77 -30.15,-27.62 -47.95,-22.15 -7.89,2.42 -14.77,7.58 -21.45,12.14 -12.04,8.09 -24.07,16.08 -36.52,23.57 -22.96,13.85 -47.03,27.41 -72.63,35.91 -11.13,3.74 -22.65,5.26 -34.09,7.99 -8.09,1.92 -14.26,4.85 -14.06,14.16 0.21,10.32 4.05,21.34 6.58,31.15 1.92,7.39 4.25,15.89 10.62,20.64 12.44,9.21 33.08,-1.32 44.71,-6.77 26.51,-12.55 50.68,-29.34 75.67,-44.41 21.24,-12.85 42.78,-21.25 66.25,-29.04 13.25,-4.44 29.24,-10.51 28.23,-27.31 -0.21,-5.67 -2.33,-11.12 -5.36,-15.88"
         style="fill:#f1494e;fill-opacity:1;fill-rule:nonzero;stroke:none"
         id="path228" /><g
         id="g230"><g
           id="g232"
           clip-path="url(#clipPath236)"><path
             d="m 1509.57,803.09 c -32.3,21.289 -29.09,65.441 -43.15,96.801 -17.16,38.289 -51.69,74.168 -87.66,95.058 -41.18,23.931 -104.94,34.991 -147.2,6.931 -33.72,-22.392 -75.3,-82.29 -37.65,-117.579 77.96,-73.821 190.29,-144.762 293.27,-176.422 22.22,-6.82 65.1,-28.93 80.91,-1.277 9.73,17.039 17.93,43.457 6.08,62.867 -13.86,22.722 -44.01,20.062 -64.6,33.621"
             style="fill:#323c47;fill-opacity:1;fill-rule:nonzero;stroke:none"
             id="path238" /><path
             d="m 1367.48,759.379 c -64.1,34.812 -125.4,79.312 -173.57,124.922 v 0 c -10.59,9.918 -14.91,21.801 -14.9,34.23 0.02,31.789 28.31,67.258 52.55,83.349 1.61,1.08 3.25,2.09 4.92,3.05 1.99,-7.649 5.89,-14.43 12.44,-19.969 7.81,-6.582 15.32,-11.82 21.57,-19.289 -28.37,-27.613 -52.24,-74.293 -20.78,-103.781 38.13,-36.102 84.48,-71.493 133.94,-101.93 l -16.17,-0.582"
             style="fill:#4b6024;fill-opacity:1;fill-rule:nonzero;stroke:none"
             id="path240" /></g></g><path
         d="m 1954.48,1609.96 c -12.54,-52.25 -12.19,-106.43 -51.38,-149.2 -9.58,-10.54 -20.82,-19.42 -32.32,-27.87 -8.09,-6 -16.37,-11.76 -24.3,-17.76 -18.72,-14.11 -36.84,-29.27 -53.91,-45.56 -33.09,-31.26 -61.4,-66.62 -88.49,-103.2 -31.61,-42.77 -61.92,-87.53 -98.24,-126.73 -16.81,-18.12 -35.62,-34.14 -54.52,-49.99 -12.11,-10.28 -25.17,-20.65 -33.8,-34.05 -6.96,-10.8 -9.58,-23.61 -16.11,-34.58 -8.19,-13.59 -24.04,-19.42 -33.88,-31.438 -9.32,-11.242 -14.2,-25.523 -12.02,-39.98 2.09,-13.231 11.58,-29.961 -3.13,-39.012 -13.33,-8.11 -31.18,-9.238 -45.9,-12.551 -25.35,-5.75 -47.38,-11.32 -71.68,0.52 -28.05,13.761 -43.55,36.761 -60.44,61.933 -6.88,10.449 -15.94,16.457 -25.44,24.469 -9.49,8.019 -13.41,18.639 -14.02,30.739 -0.96,19.34 5.84,38.07 17.51,53.3 14.1,18.65 33.35,33.36 50.86,48.78 18.2,15.94 36.32,32.23 53.65,49.21 35.36,34.84 66.72,72.73 94.94,113.66 28.82,41.72 55.04,85.27 84.04,126.9 27.96,39.98 59.23,75.95 96.41,107.82 33.71,28.83 75.86,56.01 96.33,96.86 9.06,17.85 13.5,38.05 19.95,56.95 24.04,70.12 4.88,150.07 -0.96,223.32 -4.88,60.79 -7.75,128.46 31.09,175.58 13.94,-3.39 27.96,-6.7 41.9,-10.1 12.54,2.61 26.12,1.39 38.4,-2.79 8.71,-2.96 16.73,-7.23 24.31,-12.37 14.63,-3.57 29.17,-7.05 43.8,-10.62 l -10.1,-19.25 c 36.67,-39.28 63.49,-88.06 77.86,-140.05 5.4,-19.16 9.06,-38.76 10.8,-58.44 6.8,-74.73 -34.05,-132.91 -51.21,-204.5"
         style="fill:#355485;fill-opacity:1;fill-rule:nonzero;stroke:none"
         id="path242" /><path
         d="m 1275.75,958.41 c -0.46,0.692 -0.93,1.379 -1.39,2.082 -1.23,1.848 -2.52,3.567 -3.87,5.18 v 0 c 1.35,-1.613 2.64,-3.332 3.87,-5.18 0.46,-0.703 0.93,-1.39 1.39,-2.082"
         style="fill:#4b6024;fill-opacity:1;fill-rule:nonzero;stroke:none"
         id="path244" /><path
         d="m 1332.15,900.051 c -25.57,13.488 -40.59,34.84 -56.4,58.359 -0.46,0.692 -0.93,1.379 -1.39,2.082 -1.23,1.848 -2.52,3.567 -3.87,5.18 -6.25,7.469 -13.76,12.707 -21.57,19.289 -6.55,5.539 -10.45,12.32 -12.44,19.969 -0.88,3.42 -1.39,7.03 -1.58,10.77 -0.06,1.21 -0.09,2.42 -0.09,3.62 0,18.05 6.66,35.4 17.6,49.68 14.1,18.65 33.35,33.36 50.86,48.78 18.2,15.94 36.32,32.23 53.65,49.21 35.36,34.84 66.72,72.73 94.94,113.66 28.82,41.72 55.04,85.27 84.04,126.9 27.96,39.98 59.23,75.95 96.41,107.82 33.71,28.83 75.86,56.01 96.33,96.86 9.06,17.85 13.5,38.05 19.95,56.95 8.78,25.61 11.8,52.53 11.8,79.96 0.02,47.67 -9.05,96.86 -12.76,143.36 -1.48,18.4 -2.77,37.44 -2.78,56.34 -0.01,21.48 1.65,42.8 6.58,62.83 9.26,-2.82 19.03,-4.27 28.73,-5.5 2.75,-9.03 6.27,-17.84 10.77,-26.3 3.75,-7.02 8.13,-13.64 12.92,-19.96 -9.42,-37.79 -7.1,-80.2 -3.93,-119.7 5.84,-73.26 25,-153.21 0.96,-223.32 -6.44,-18.9 -10.88,-39.11 -19.94,-56.96 -20.47,-40.85 -62.62,-68.03 -96.33,-96.85 -37.19,-31.88 -68.46,-67.85 -96.42,-107.83 -29,-41.63 -55.21,-85.17 -84.04,-126.89 -28.22,-40.94 -59.57,-78.83 -94.94,-113.66 -17.33,-16.99 -35.45,-33.27 -53.65,-49.21 -17.5,-15.42 -36.75,-30.14 -50.86,-48.77 -11.67,-15.25 -18.46,-33.982 -17.51,-53.298 0.61,-12.113 4.53,-22.742 14.03,-30.75 9.49,-8.012 18.55,-14.031 25.43,-24.481 1.85,-2.742 3.67,-5.461 5.5,-8.14"
         style="fill:#457a3e;fill-opacity:1;fill-rule:nonzero;stroke:none"
         id="path246" /><path
         d="m 1954.48,1609.96 c -12.54,-52.25 -12.19,-106.43 -51.38,-149.2 -9.58,-10.54 -20.82,-19.42 -32.32,-27.87 -11.47,78.47 23.22,128.38 22.53,205.31 -0.71,78.1 -68.89,113.6 -77.83,181.05 -2.88,21.69 -5.49,43.37 -8.1,65.06 -6.36,54.25 -14.64,119.06 55.31,94.06 9.83,-3.49 19.59,-8.01 29.17,-13.41 39.02,-21.6 75.16,-56.7 103.03,-92.06 5.4,-19.16 9.06,-38.76 10.8,-58.44 6.8,-74.73 -34.05,-132.91 -51.21,-204.5"
         style="fill:#2b4977;fill-opacity:1;fill-rule:nonzero;stroke:none"
         id="path248" /><path
         d="m 1771.91,2050.38 c 2.33,-24.48 7.39,-48.65 19.02,-70.51 9.51,-17.8 23.06,-33.07 37.22,-47.23 19.53,-19.32 41.18,-36.32 60.29,-56.05 18.42,-18.91 32.48,-41.06 45.42,-63.92 29.34,-51.9 56.55,-105.31 90.84,-154.27 15.38,-21.85 35.1,-40.06 50.68,-61.7 8.9,-12.44 10.42,-27.62 17.91,-40.57 9,-15.38 22.96,-26.1 27.71,-44 3.24,-12.44 3.04,-25.6 -1.01,-37.83 -3.64,-11.03 -9.2,-21.35 -13.05,-32.38 -4.24,-11.83 -7.28,-24.07 -9.61,-36.41 -4.24,-22.45 -6.68,-45.22 -9,-67.87 -7.08,-67.78 -14.26,-135.56 -21.04,-203.43 -2.94,-28.83 -5.46,-57.76 -6.78,-86.8 -1.01,-21.75 -2.42,-44.91 2.43,-66.25 3.74,-16.789 12.65,-28.43 6.37,-46.019 -5.26,-14.672 -16.08,-26 -22.86,-39.871 -8.8,-18.301 -10.42,-39.848 -12.95,-59.668 -1.62,-12.454 -6.17,-32.071 1.22,-44.012 7.89,-12.641 28.93,-8.699 40.96,-6.781 26.1,4.05 52.3,10.011 77.19,19.023 22.15,8 43.09,19.02 62.92,31.668 18.1,11.629 41.07,25.391 51.89,44.699 8.9,15.883 7.38,36.02 8.09,53.52 0.91,24.679 9.11,47.34 12.65,71.611 8.09,54.73 -1.01,110.77 6.47,165.7 3.95,28.83 11.63,56.85 16.49,85.47 4.66,27.11 3.74,54.12 4.35,81.64 0.4,20.13 3.03,39.25 10.32,58.06 7.58,19.63 19.62,38.24 21.85,59.58 2.43,24.28 -1.83,50.18 -4.56,74.26 -3.13,27 -6.97,54.52 -15.47,80.41 -8.8,26.81 -24.48,50.68 -34.8,76.88 -11.83,29.85 -20.94,60.79 -30.96,91.34 -18.4,56.25 -41.57,110.68 -63.12,165.71 -10.31,26.39 -19.21,53.4 -30.14,79.7 -5.97,14.46 -12.44,27.62 -23.87,38.44 -9.81,9.31 -15.99,18.41 -21.14,30.96 l -351.93,-43.1"
         style="fill:#406194;fill-opacity:1;fill-rule:nonzero;stroke:none"
         id="path250" /><path
         d="m 2056.08,782.691 c -8.64,0 -17.01,1.918 -21.36,8.899 -3.09,4.992 -4.09,11.32 -4.09,17.91 0,9.18 1.93,18.852 2.87,26.102 2.53,19.82 4.15,41.367 12.95,59.668 6.78,13.871 17.6,25.199 22.86,39.871 1.56,4.359 2.18,8.359 2.18,12.16 0,11.519 -5.73,21.23 -8.55,33.859 -2.65,11.668 -3.43,23.89 -3.43,36.12 0,10.13 0.54,20.28 1,30.13 1.32,29.04 3.84,57.97 6.78,86.8 6.78,67.87 13.96,135.65 21.04,203.43 2.32,22.65 4.76,45.42 9,67.87 2.33,12.34 5.37,24.58 9.61,36.41 3.85,11.03 9.41,21.35 13.05,32.38 2.2,6.64 3.26,13.56 3.26,20.48 -0.01,5.83 -0.77,11.66 -2.25,17.35 -4.75,17.9 -18.71,28.62 -27.71,44 -7.49,12.95 -9.01,28.13 -17.91,40.57 -15.58,21.64 -35.3,39.85 -50.68,61.7 -12.42,17.74 -23.92,36.06 -34.92,54.68 -19.37,32.78 -37.21,66.49 -55.92,99.59 -12.94,22.86 -27,45.01 -45.42,63.92 -19.11,19.73 -40.76,36.73 -60.29,56.05 -7.92,7.92 -15.66,16.2 -22.61,25.08 -5.46,6.97 -10.43,14.32 -14.61,22.15 -4.5,8.46 -8.02,17.27 -10.77,26.3 1.49,-0.19 2.97,-0.37 4.46,-0.56 v 0 c 36.37,-4.45 65.9,-9.27 93.9,-11.4 1.92,-4.87 4.11,-9.66 6.6,-14.34 9.51,-17.8 23.07,-33.07 37.23,-47.23 19.52,-19.32 41.17,-36.32 60.29,-56.05 18.41,-18.91 32.47,-41.06 45.42,-63.92 29.33,-51.9 56.54,-105.31 90.84,-154.27 15.37,-21.85 35.1,-40.06 50.68,-61.7 8.9,-12.44 10.42,-27.62 17.9,-40.57 9,-15.38 22.96,-26.1 27.72,-44 3.23,-12.44 3.03,-25.6 -1.02,-37.83 -3.64,-11.03 -9.2,-21.35 -13.04,-32.38 -4.25,-11.83 -7.29,-24.07 -9.61,-36.41 -4.25,-22.45 -6.68,-45.22 -9.01,-67.87 -7.08,-67.78 -14.26,-135.56 -21.04,-203.43 -2.93,-28.83 -5.46,-57.76 -6.77,-86.8 -1.01,-21.75 -2.43,-44.91 2.42,-66.25 3.74,-16.789 12.65,-28.43 6.38,-46.019 -5.26,-14.672 -16.09,-26 -22.87,-39.871 -8.79,-18.301 -10.42,-39.848 -12.94,-59.668 -1.44,-11.102 -5.17,-27.872 -0.73,-39.852 -16.73,-4.621 -33.79,-8.211 -50.84,-10.871 -0.15,-0.02 -0.3,-0.039 -0.45,-0.07 -5.39,-0.86 -12.58,-2.129 -19.6,-2.118"
         style="fill:#569253;fill-opacity:1;fill-rule:nonzero;stroke:none"
         id="path252" /><path
         d="m 1755.32,3098.36 c -9.61,-9.71 -19.02,-19.52 -28.01,-29.74 -38.15,-43.6 -63.33,-94.68 -73.15,-151.94 -9.8,-56.74 -2.52,-113.29 8.5,-169.33 11.84,-60.19 25.09,-120.17 36.62,-180.47 10.83,-56.74 18.72,-113.89 24.48,-171.45 5.9,-59.18 -6.5,-112.28 -6.13,-171.37 0.26,-40.95 -17.48,-78.85 -14.75,-119.46 1.92,-28.6 5.76,-71.12 33.16,-86.49 14.68,-8.25 31.87,-10.44 48.58,-12.5 90.07,-11.02 138.13,-24.31 225.1,6.6 40.86,14.38 88.13,16.78 126.66,37.25 14.3,7.6 23.23,11.49 27.09,27.84 1.58,6.74 -2.14,39.62 -12.98,39.36 16.32,0.39 25.36,21.51 20.08,36.95 -7.76,22.65 -25.16,30.19 -31.41,53.9 -8.01,30.33 -6.73,65.78 -9.66,96.98 l -13.96,148.8 c -10.01,77.89 -19.52,155.98 -31.16,233.67 -11.83,78.9 -21.34,159.93 -44.91,236.4 -12.24,39.75 -31.56,73.34 -57.56,105.61 l -226.59,69.39"
         style="fill:#f1494e;fill-opacity:1;fill-rule:nonzero;stroke:none"
         id="path254" /><path
         d="m 1906.02,1993.16 c -36.71,0 -73,6.53 -121.4,12.45 v 0 c -16.71,2.06 -33.9,4.25 -48.58,12.5 -2.11,1.18 -4.09,2.53 -5.93,4.02 -22.05,17.82 -25.45,56.07 -27.23,82.47 -0.2,2.93 -0.29,5.86 -0.29,8.76 0.03,37.03 15.02,72.11 15.04,109.74 0,0.32 0,0.64 0,0.96 -0.01,0.93 -0.01,1.85 -0.01,2.77 0.01,46.59 7.72,89.55 7.73,134.87 0.01,11.07 -0.45,22.29 -1.59,33.73 -5.76,57.56 -13.65,114.71 -24.48,171.45 -1.17,6.13 -2.36,12.25 -3.56,18.37 -10.65,54.11 -22.42,108.03 -33.05,162.1 -11.03,56.04 -18.31,112.59 -8.51,169.33 9.82,57.26 35,108.34 73.15,151.94 8.99,10.22 18.4,20.03 28.01,29.74 l 59.86,-18.33 c -3.52,-3.77 -7.03,-7.53 -10.44,-11.41 -10.45,-11.94 -19.93,-24.45 -28.38,-37.49 -5.61,1 -11.11,1.52 -16.47,1.52 -5.39,0 -10.63,-0.53 -15.66,-1.65 -1.1,-0.25 -2.18,-0.52 -3.26,-0.82 v 0 c -58.73,-16.48 -71.57,-66.63 -71.57,-117.62 0,-15.61 1.21,-31.29 2.67,-46.12 2.53,-25.72 5.66,-50.71 12.54,-75.69 7.59,-27.52 16.6,-54.63 23.98,-82.24 0.58,-2.15 1.12,-4.31 1.64,-6.47 -1.32,-3.96 -2.38,-9.3 -3.12,-16.28 -6.19,-58.21 23.76,-131.68 35.96,-188.6 9.89,-46.21 21.2,-95.12 54.43,-128.72 1.72,-1.74 3.48,-3.42 5.29,-5.05 0.18,-46.83 -8.03,-91.09 -7.73,-139.33 0.26,-40.95 -17.48,-78.85 -14.74,-119.46 1.92,-28.6 5.75,-71.12 33.16,-86.49 14.67,-8.25 31.87,-10.44 48.58,-12.5 30.54,-3.74 56.21,-7.69 80.24,-10.14 -12.42,-1.62 -24.37,-2.31 -36.28,-2.31"
         style="fill:#f57629;fill-opacity:1;fill-rule:nonzero;stroke:none"
         id="path256" /><path
         d="m 1743.07,2497.16 c 9.89,-46.21 21.2,-95.12 54.43,-128.72 24.73,-25.01 58.6,-38.34 91.42,-50.99 75.59,-29.14 151.19,-58.28 226.78,-87.42 -2.21,49.1 -4.43,98.19 -6.65,147.29 -93.29,35.11 -178.82,90.24 -250.1,159.83 -35.9,35.05 -68.22,73.78 -96.09,115.5 -14.19,21.23 -48.82,98.33 -55.75,33.11 -6.19,-58.21 23.76,-131.68 35.96,-188.6"
         style="fill:#d9393c;fill-opacity:1;fill-rule:nonzero;stroke:none"
         id="path258" /><path
         d="m 1966.17,2735.26 c 12.39,-86.53 -12.53,-176.51 8.75,-261.29 -3.55,14.12 -30.93,36.15 -39.92,49.06 -12.47,17.87 -23.58,36.68 -33.3,56.18 -19.77,39.7 -33.73,82.27 -41.54,125.92 -7.8,43.63 -9.46,88.39 -4.53,132.44 2.91,26 15.84,110.42 50.29,60.84 31.29,-45.03 52.54,-109.34 60.25,-163.15"
         style="fill:#d9393c;fill-opacity:1;fill-rule:nonzero;stroke:none"
         id="path260" /><path
         d="m 2044.33,784.309 c -6.48,-25.188 -7.59,-56.848 -0.31,-82.028 7.08,-24.39 32.58,-24.179 53.72,-25.09 76.27,-3.453 152.94,-1.832 229.32,-1.32 41.57,0.301 83.25,-0.211 124.82,2.02 18.92,1.019 52.71,-0.809 65.05,18.007 10.41,15.981 5.16,42.684 -0.41,59.184 -3.83,11.418 -9.71,18.609 -21.64,21.637 -15.78,4.051 -32.88,4.152 -48.96,5.871 -27.21,2.941 -53.11,8.898 -75.87,24.691 -26.81,18.711 -47.34,44.098 -76.57,59.578 -8.5,4.45 -17.1,8.59 -25.7,12.84"
         style="fill:#323c47;fill-opacity:1;fill-rule:nonzero;stroke:none"
         id="path262" /><path
         d="m 2738.79,2773.35 c 0.4,-1.99 -0.19,-4.7 0.06,-7.81 0.38,-5.97 0.7,-11.86 1.08,-17.84 l 11.28,-188.03 c 2.18,-36.72 4.39,-73.51 6.55,-110.22 3.57,-58.98 7,-117.94 10.56,-176.92 0.81,-13.48 1.57,-27.08 2.38,-40.57 -87.52,-5.15 -175.08,-10.44 -262.61,-15.59 -12.16,-0.76 -24.36,-1.42 -36.51,-2.17 l -153.68,-9.19 c -60.73,-3.62 -121.46,-7.26 -182.19,-10.88 l -5.48,-0.32 c -8.92,-0.54 -17.92,-1.12 -26.88,-1.57 -3.59,61.27 -7.3,122.57 -10.89,183.84 -5.84,97.73 -11.64,195.37 -17.48,293.11 -1.39,22.48 -2.66,44.92 -4.05,67.4 0.6,-1.15 17.84,1.08 19.29,1.1 17.63,1.08 35.26,2.15 52.85,3.1 56.66,3.4 113.37,6.72 170.03,10.12 67.2,4.05 134.36,7.97 201.56,12.01 54.55,3.25 109.1,6.5 163.64,9.75 15.61,0.96 31.24,1.85 46.84,2.81 2.95,0.16 8.2,1.52 11.03,0.69 1.63,-0.52 2.35,-1.5 2.62,-2.82"
         style="fill:#ca9347;fill-opacity:1;fill-rule:nonzero;stroke:none"
         id="path264" /><path
         d="m 2750.06,2771.98 -672.89,-33.49 26.66,-535.57 672.88,33.49 -26.65,535.57"
         style="fill:#ca9347;fill-opacity:1;fill-rule:nonzero;stroke:none"
         id="path266" /><path
         d="m 2477.79,2426.61 -95.41,-4.74 -16.47,330.99 95.41,4.75 16.47,-331"
         style="fill:#ebc286;fill-opacity:1;fill-rule:nonzero;stroke:none"
         id="path268" /><path
         d="m 2748.69,2770.2 c 0.4,-1.99 -0.18,-4.7 0.06,-7.81 0.38,-5.97 0.71,-11.86 1.08,-17.84 l 11.28,-188.03 c 2.18,-36.71 4.39,-73.5 6.56,-110.22 3.56,-58.99 6.99,-117.93 10.55,-176.91 0.81,-13.49 1.58,-27.1 2.38,-40.57 -87.51,-5.17 -175.08,-10.45 -262.61,-15.61 -12.16,-0.75 -24.35,-1.41 -36.51,-2.17 l -153.68,-9.18 c -60.73,-3.63 -121.46,-7.25 -182.19,-10.87 l -42.26,1.25 592.34,94.43 39.35,485.66 13.65,-2.13"
         style="fill:#cc6a36;fill-opacity:1;fill-rule:nonzero;stroke:none"
         id="path270" /><path
         d="m 2734.41,2281.92 -102.36,-5.09 -5.09,102.35 102.36,5.1 5.09,-102.36"
         style="fill:#425d69;fill-opacity:1;fill-rule:nonzero;stroke:none"
         id="path272" /><path
         d="m 2595.7,2340.87 -102.35,-5.09 -0.79,15.86 102.36,5.09 0.78,-15.86"
         style="fill:#425d69;fill-opacity:1;fill-rule:nonzero;stroke:none"
         id="path274" /><path
         d="m 2597.56,2303.71 -102.36,-5.1 -0.79,15.86 102.36,5.09 0.79,-15.85"
         style="fill:#425d69;fill-opacity:1;fill-rule:nonzero;stroke:none"
         id="path276" /><path
         d="m 2425.42,2342.94 c -14.42,-0.28 -28.66,-4.81 -43.43,-5.17 -33.71,-0.81 -63.4,17.85 -92.66,32.04 -100.1,48.47 -206.25,94.39 -299.4,155.63 -23.33,15.34 -97.89,184.83 -85.33,187.16 -56.14,-10.39 -112.29,-20.78 -168.44,-31.16 23.3,-78.51 31.55,-226.91 120.21,-263.84 69.63,-29 138.37,-61.75 208.99,-88.03 74.77,-27.83 154.72,-37.86 229.73,-64.91 58.66,-21.16 103.83,-83.09 169,-83.77 12.81,-0.13 25.55,1.67 38.24,3.47 13.38,1.89 26.76,3.79 40.14,5.68 6.94,0.98 14.08,2.03 20.14,5.55 6.06,3.52 10.87,10.15 10.06,17.11 -6.54,-1.03 -24.83,19.22 -33.54,22.2 -19.3,6.59 -35.58,13.07 -42.74,32.65 9.88,-29.66 50.41,-19.93 70.96,-10.93 -33.2,28.1 -83.11,72.72 -125.67,84.45 -5.46,1.5 -10.87,1.98 -16.26,1.87"
         style="fill:#f9a76c;fill-opacity:1;fill-rule:nonzero;stroke:none"
         id="path278" /><path
         d="m 2556.41,2252.52 c -2.61,2.65 -4.93,5.66 -6.83,9.23 2.19,-3.75 5.04,-6.6 8.34,-8.74 l -1.51,-0.49"
         style="fill:#f9d831;fill-opacity:1;fill-rule:nonzero;stroke:none"
         id="path280" /><path
         d="m 2430.47,2337.75 c -8.17,0 -16.1,1.17 -23.86,3.07 6.28,1.04 12.53,1.99 18.81,2.12 0.47,0.01 0.95,0.01 1.42,0.01 4.92,0 9.86,-0.51 14.84,-1.88 1.85,-0.51 3.72,-1.17 5.58,-1.79 -4.88,-0.74 -9.78,-1.38 -14.75,-1.51 -0.68,-0.01 -1.36,-0.02 -2.04,-0.02"
         style="fill:#f9d831;fill-opacity:1;fill-rule:nonzero;stroke:none"
         id="path282" /><path
         d="m 2465.46,2180.88 c -0.46,0 -0.92,0 -1.37,0.01 -26.78,0.28 -50.18,10.9 -72.52,24.78 v 0 c 22.34,-13.88 45.74,-24.5 72.52,-24.78 0.43,-0.01 0.86,-0.01 1.29,-0.01 5.85,0 11.69,0.39 17.51,0.98 -5.8,-0.59 -11.61,-0.98 -17.43,-0.98"
         style="fill:#cdedd0;fill-opacity:1;fill-rule:nonzero;stroke:none"
         id="path284" /><path
         d="m 2465.38,2180.88 c -0.43,0 -0.86,0 -1.29,0.01 -26.78,0.28 -50.18,10.9 -72.52,24.78 -13.1,8.14 -25.83,17.39 -38.68,26.35 -18.57,12.95 -37.37,25.27 -57.8,32.64 -1.17,0.42 -2.35,0.84 -3.52,1.25 -73.99,26.12 -152.61,36.26 -226.21,63.66 v 0 c -70.62,26.28 -139.36,59.03 -208.99,88.03 -73.25,30.51 -91.62,137.11 -108.92,217.52 3.82,1.99 7.56,4.21 11.23,6.12 l -0.02,0.06 c 0.92,0.47 1.83,0.93 2.73,1.35 10.55,4.97 21.36,8.75 32.35,11.49 18.92,-81.61 33.95,-203.55 113.15,-236.54 69.63,-29 138.37,-61.75 208.99,-88.03 74.77,-27.83 154.72,-37.86 229.73,-64.91 52.35,-18.88 93.99,-70.1 148.63,-81.43 -3.78,-0.51 -7.56,-0.98 -11.35,-1.37 -5.82,-0.59 -11.66,-0.98 -17.51,-0.98"
         style="fill:#f9d831;fill-opacity:1;fill-rule:nonzero;stroke:none"
         id="path286" /><path
         d="m 1922.43,2900.6 c 1.52,-7.08 2.94,-14.06 4.35,-21.14 9.82,-50.58 -0.5,-101.86 -0.2,-152.75 0.1,-13.85 1.52,-27.61 2.83,-41.37 0.61,-6.58 1.62,-13.55 0.61,-20.13 -2.63,-16.99 -23.27,-11.53 -35.2,-9.51 -45.01,7.59 -91.35,6.78 -133.43,-13.05 -8.6,-4.04 -17.6,-10.72 -27.11,-12.54 -8.39,-1.72 -10.92,4.55 -12.64,11.74 -5.16,22.05 -7.08,44.6 -13.05,66.66 -7.38,27.61 -16.39,54.72 -23.98,82.24 -6.88,24.98 -10.01,49.97 -12.54,75.69 -6.24,63.26 -7.81,142.22 68.9,163.74 64.65,18.13 168.09,-67.19 181.46,-129.58"
         style="fill:#f1494e;fill-opacity:1;fill-rule:nonzero;stroke:none"
         id="path288" /><path
         d="m 1731.65,2629.82 c -0.01,0 -0.02,0 -0.02,0 0,0 0.01,0 0.02,0 v 0 m 0.01,0 c 0.81,0 1.68,0.09 2.62,0.29 v 0 0 c -0.94,-0.2 -1.81,-0.29 -2.62,-0.29 m 3.77,0.53 c 4.09,0.95 8.09,2.76 12.01,4.81 0,-0.02 0,-0.03 0.01,-0.04 -3.92,-2.03 -7.92,-3.82 -12.02,-4.77"
         style="fill:#f05622;fill-opacity:1;fill-rule:nonzero;stroke:none"
         id="path290" /><path
         d="m 1740.97,3030.18 c 1.08,0.3 2.16,0.57 3.26,0.82 -1.1,-0.25 -2.19,-0.52 -3.26,-0.82"
         style="fill:#f8b61b;fill-opacity:1;fill-rule:nonzero;stroke:none"
         id="path292" /><path
         d="m 1747.45,2635.12 c -0.01,0.01 -0.01,0.02 -0.01,0.04 3.82,2 7.56,4.23 11.22,6.14 l 0.02,-0.06 c -3.67,-1.91 -7.41,-4.13 -11.23,-6.12"
         style="fill:#f5f125;fill-opacity:1;fill-rule:nonzero;stroke:none"
         id="path294" /><path
         d="m 1731.65,2629.82 c -0.01,0 -0.02,0 -0.02,0 -6.21,0.02 -8.4,5.49 -9.92,11.72 -0.03,0.1 -0.05,0.2 -0.07,0.31 -4.66,19.9 -6.68,40.21 -11.41,60.19 -0.52,2.16 -1.06,4.32 -1.64,6.47 -7.38,27.61 -16.39,54.72 -23.98,82.24 -6.88,24.98 -10.01,49.97 -12.54,75.69 -1.46,14.83 -2.67,30.51 -2.67,46.12 0,50.99 12.84,101.14 71.57,117.62 v 0 c 1.07,0.3 2.16,0.57 3.26,0.82 4.99,1.11 10.2,1.64 15.55,1.64 6.35,0 12.91,-0.74 19.59,-2.12 l -1.52,-0.34 c -76.71,-21.52 -75.14,-100.48 -68.9,-163.74 2.53,-25.72 5.66,-50.71 12.54,-75.69 7.59,-27.52 16.59,-54.63 23.98,-82.24 5.97,-22.06 7.89,-44.61 13.05,-66.66 l 0.14,-0.55 c -3.66,-1.91 -7.4,-4.14 -11.22,-6.14 v 0 c -3.92,-2.05 -7.92,-3.86 -12.01,-4.81 -0.38,-0.09 -0.77,-0.17 -1.15,-0.24 v 0 c -0.94,-0.2 -1.81,-0.29 -2.62,-0.29 h -0.01"
         style="fill:#f57629;fill-opacity:1;fill-rule:nonzero;stroke:none"
         id="path296" /><path
         d="m 1760.54,3395.84 c 23.91,9.99 82.83,21.67 90.47,20.28 17.04,-3.1 34.06,-10 51.1,-6.93 15.12,2.71 29.2,14.33 43.54,20.2 22.77,9.34 46.11,12.45 70.26,16.24 32.69,5.14 61.99,6.85 93.75,-5.6 4.66,-1.82 9.68,-3.91 14.51,-2.59 15.8,4.31 11.07,47.11 7.6,57.93 -7.33,22.88 -28.69,47.25 -44.58,64.74 -34.33,37.79 -80.4,65.21 -132.62,65.21 -53.06,0.01 -112.24,-14.59 -152.14,-53.56 -41.71,-40.72 -76.23,-127.69 -51.78,-183.77 -0.98,2.24 3,4.98 9.89,7.85"
         style="fill:#f1494e;fill-opacity:1;fill-rule:nonzero;stroke:none"
         id="path298" /><path
         d="m 1918.58,3416.13 c -3.89,0.71 -21.08,-1.99 -40.17,-6.11 7.9,-1.49 15.8,-2.25 23.7,-0.83 6.08,1.09 11.99,3.64 17.82,6.66 l -1.35,0.28"
         style="fill:#d9393c;fill-opacity:1;fill-rule:nonzero;stroke:none"
         id="path300" /><path
         d="m 1750.52,3388.45 c -0.01,0.08 -0.02,0.16 -0.02,0.24 0,-0.08 0.01,-0.16 0.02,-0.24 m 205.41,236.87 v 0 0 m -0.21,0 c -0.02,0 -0.05,0 -0.08,0 0.03,0 0.06,0 0.08,0 m -0.33,0 c -0.05,0 -0.11,0 -0.17,0 0.06,0 0.12,0 0.17,0 m -0.27,0 c -0.06,0 -0.12,0 -0.18,0 0.06,0 0.12,0 0.18,0 m -0.27,0 c -0.09,0 -0.18,0 -0.28,0 0.1,0 0.19,0 0.28,0"
         style="fill:#cdedd0;fill-opacity:1;fill-rule:nonzero;stroke:none"
         id="path302" /><path
         d="m 1750.65,3387.99 c -5.64,12.93 -8.14,27.49 -8.14,42.75 -0.01,50.96 27.82,109.69 59.92,141.02 39.89,38.97 99.06,53.56 152.12,53.56 h 0.02 v 0 c 0.1,0 0.19,0 0.28,0 0.03,0 0.06,0 0.09,0 0.06,0 0.12,0 0.18,0 0.03,0 0.07,0 0.1,0 0.06,0 0.12,0 0.17,0 0.09,0 0.17,0 0.25,0 0.03,0 0.06,0 0.08,0 0.07,0 0.14,0 0.21,0 v 0 c 9.2,-0.09 18.2,-1.03 26.98,-2.72 -41.34,-5.79 -82.66,-21.3 -112.91,-50.84 -36.51,-35.65 -67.52,-106.76 -58.26,-161.54 -18.64,-3.99 -39.27,-9.4 -51.2,-14.38 -6.19,-2.58 -10.03,-5.05 -10.04,-7.15 0,-0.08 0.01,-0.16 0.02,-0.24 0.02,-0.16 0.06,-0.31 0.13,-0.46"
         style="fill:#f57629;fill-opacity:1;fill-rule:nonzero;stroke:none"
         id="path304" /><path
         d="m 2088.42,3446.34 c 7,-1.49 14.06,-3.49 21.24,-6.31 4.66,-1.82 9.68,-3.91 14.51,-2.59 4.59,1.25 7.41,5.79 9.07,11.81 -14.65,0.7 -29.4,-0.64 -44.82,-2.91"
         style="fill:#d9393c;fill-opacity:1;fill-rule:nonzero;stroke:none"
         id="path306" /><path
         d="m 2006.11,3584.84 c 32.1,7.11 64.91,-15.13 80.77,-43.93 15.86,-28.8 18.67,-62.74 21.14,-95.52 -0.58,7.64 -149.31,-12.88 -159.06,-13.67 -18.93,48.08 -2.73,139.87 57.15,153.12"
         style="fill:#ffffff;fill-opacity:1;fill-rule:nonzero;stroke:none"
         id="path308" /><path
         d="m 1913.18,3408.43 c -3.53,0.1 -6.96,0.4 -10.3,0.96 -10.59,1.78 -20.94,9.85 -21.6,20.58 -2.19,35.73 96.68,50.86 119.47,53.73 56.21,7.06 112.34,0.16 166.99,-13.63 11.96,-3.02 24.63,-7.42 31.62,-17.58 25.9,-37.69 -45.18,-31.99 -61.79,-31.45 -47.43,1.55 -94.79,1.73 -142.19,-0.96 -25.23,-1.44 -56,-12.33 -82.2,-11.65"
         style="fill:#f1494e;fill-opacity:1;fill-rule:nonzero;stroke:none"
         id="path310" /><path
         d="m 2137.57,3441.2 c -47.43,1.54 -94.79,1.73 -142.19,-0.97 -42.25,-2.41 -83.29,-17.4 -123.53,-29.17 42.54,-0.22 81.71,7.12 123.53,9.02 47.4,2.69 94.76,2.51 142.19,0.96 16.18,-0.53 84.03,-5.93 63.56,28.63 -12.45,-11.83 -51.75,-8.86 -63.56,-8.47"
         style="fill:#d9393c;fill-opacity:1;fill-rule:nonzero;stroke:none"
         id="path312" /><path
         d="m 1798.1,2052.85 c 93.54,-28.02 195.98,-25.41 287.98,7.31 31.26,11.51 45.87,29.05 68.38,53.49 -45.27,-14.41 -92.83,-31.25 -139.41,-40.42 -58.91,-11.59 -158.12,-38 -216.95,-20.38"
         style="fill:#d9393c;fill-opacity:1;fill-rule:nonzero;stroke:none"
         id="path314" /><path
         d="m 2545.5,2203.91 c -18.99,6.51 -38.61,12.92 -58.21,17.21 -4.95,1.09 -8.89,-6.49 -3.67,-8.7 18.91,-8 38.98,-14.32 58.67,-20.12 7.5,-2.2 10.47,9.12 3.21,11.61"
         style="fill:#f36152;fill-opacity:1;fill-rule:nonzero;stroke:none"
         id="path316" /><path
         d="m 2501.38,2185.96 c -17.71,7.51 -37.7,11.64 -56.4,15.89 -4.32,0.97 -5.85,-5.02 -1.81,-6.55 17.57,-6.6 36.23,-14.19 54.74,-17.58 4.6,-0.85 8.51,6.1 3.47,8.24"
         style="fill:#f36152;fill-opacity:1;fill-rule:nonzero;stroke:none"
         id="path318" /><path
         d="m 3613.49,2740.49 c -15.43,-31.84 -31.07,-64.36 -35.72,-99.43 -4.65,-35.07 3.47,-73.76 29.47,-97.75 42.9,-39.58 116.69,-21.86 155.88,21.39 39.18,43.25 52.76,103.22 64.9,160.3 19.06,89.62 38.12,179.25 57.19,268.87 10.31,48.44 56.32,141.82 -19.22,140.54 -62.27,-1.06 -99.2,-77.73 -121.19,-122.86 -43.97,-90.25 -87.54,-180.71 -131.31,-271.06"
         style="fill:#41937b;fill-opacity:1;fill-rule:nonzero;stroke:none"
         id="path320" /><path
         d="m 3634.09,2700.21 c -11.13,5.1 -22.17,10.22 -32.97,15.75 -51.53,26.39 -98.45,60.34 -149.07,88.19 -32.35,16.94 -64.18,34.98 -96.35,52.28 -24.01,12.91 -53.04,39.57 -79.6,44.95 -5.56,-20.35 3.66,-40.52 15.54,-56.56 -47.75,-6.48 -95.49,-15.69 -144.1,-20.87 -7.28,-20.01 0.45,-43.46 15.63,-58.38 15.19,-14.92 36.59,-22.18 57.79,-24.1 55.23,-5.02 113.55,20.15 167.55,1.13 36.11,-12.73 65.45,-52.82 93.29,-78.66 40.28,-37.45 80.42,-74.02 123.17,-108.56 30.66,8.53 43.31,26.73 50.08,57.82 6.78,31.09 7.98,73.78 -20.96,87.01"
         style="fill:#9d592b;fill-opacity:1;fill-rule:nonzero;stroke:none"
         id="path322" /><path
         d="m 4095.85,980.531 c 17.49,-35 80.17,-157.961 37.79,-189.429 -5.99,-4.454 -13.13,-7.043 -20.16,-9.571 -15.55,-5.582 -31.1,-11.172 -46.64,-16.75 -94.15,-34.039 -177.5,-47.101 -276.95,-54.992 -9.55,-0.75 -20.12,-1.207 -27.58,4.813 -34.11,27.507 34.81,34.429 45.73,39.738 30.59,14.879 60.23,52.012 82.78,76.84 29.97,33.011 57.33,64.629 78.5,104.031 13.45,25.051 4.66,24.269 27.16,39.84 5.95,4.109 88.74,26.139 89.15,25.379 3.34,-6.371 6.77,-13.02 10.22,-19.899"
         style="fill:#354a54;fill-opacity:1;fill-rule:nonzero;stroke:none"
         id="path324" /><path
         d="m 3708.6,2111 c 0.2,9.12 0.31,18.31 0.51,27.42 l 296.44,259.52 c 6.92,-10.73 13.37,-21.81 19.29,-33.1 24.4,-46.72 37.78,-98.06 39.37,-150.71 1.42,-47.83 -6.76,-95.13 -18.67,-141.34 -13.64,-53.14 -28.85,-105.74 -39.98,-159.44 -12.02,-58.31 -22.07,-117.75 -39.32,-174.87 -13.62,-45.13 -33.57,-87.75 -31.28,-135.95 0.94,-20.2 2.95,-41.62 10.17,-60.64 7.23,-19.12 20.36,-35.33 32.56,-51.41 29.72,-39.32 57.49,-78.97 77.7,-124.14 21.21,-47.1 30.24,-95.71 34.44,-146.86 4.47,-54.36 6.02,-110.29 18.6,-163.62 4.32,-18.19 13.42,-34.53 18.14,-52.52 3.88,-14.692 3.24,-30.399 1.32,-45.379 L 3999.1,927.93 c -5.77,13.582 -10.32,27.781 -12.6,42.379 -2.81,17.98 -1.52,36.311 -3.9,54.391 -5.44,41.17 -21.11,78.13 -40.05,114.68 -22.17,42.83 -44.23,85.67 -63.56,129.93 -17.66,40.34 -32.71,82.61 -55.64,120.31 -21.91,36.22 -53.76,63.45 -81.1,95.17 -16.5,19.18 -28.45,39.72 -31.15,65.16 -2.3,21.25 0.18,42.78 1.13,64.08 0.88,18.14 0.61,36.34 0.02,54.49 -1.71,52.16 -3.54,104.3 -4.35,156.44 -1.75,99.55 13.6,210.54 -2.36,307.49 -15.22,92.36 -32.17,171.49 41.1,248.47 67.09,70.48 182.5,89.02 268.28,43.11 6.4,-16.66 -0.45,-37.37 -15.5,-46.94"
         style="fill:#558397;fill-opacity:1;fill-rule:nonzero;stroke:none"
         id="path326" /><path
         d="m 3948.16,916.148 c 9.42,-37.976 43.64,-171.687 -4.6,-193.097 -6.82,-3.039 -14.36,-4 -21.77,-4.93 -16.4,-2.039 -32.8,-4.09 -49.19,-6.129 -88.26,-11.012 -173.85,-13.871 -262.62,-14.832 -41.18,-0.449 -97.54,21.012 -28.66,46.309 47.11,17.293 93.13,43.07 134.09,71.871 36.47,25.64 70.1,50.5 99.38,84.301 18.62,21.5 9.87,22.668 35.23,32.929 6.71,2.711 92.31,6.071 92.54,5.239 1.86,-6.95 3.76,-14.2 5.6,-21.661"
         style="fill:#425d69;fill-opacity:1;fill-rule:nonzero;stroke:none"
         id="path328" /><path
         d="m 3888.77,2392.75 c 58.25,38.88 173.74,58.23 233.39,9.05 61.74,-50.89 21.47,-129.27 5.99,-206.68 -41.68,-208.38 -141.34,-368.95 -212.74,-561.3 -37.85,-101.99 24.87,-179.27 46.23,-274.99 29.39,-131.74 -9.77,-262.35 -5.02,-393.471 0.55,-15.179 -3.52,-30.371 -8.69,-44.558 l -132.25,-0.992 c -2.63,14.531 -3.95,29.382 -2.97,44.121 1.22,18.152 6.5,35.761 8.15,53.91 3.74,41.36 -3.41,80.85 -13.87,120.68 -21.36,81.43 -39.39,177.74 -67.23,262.57 -30.58,93.15 -61.91,143.24 -51.33,243.26 16.69,157.88 73.8,306.51 98.81,462.43 16.85,105.08 0.56,218.61 101.53,285.97"
         style="fill:#6a98a7;fill-opacity:1;fill-rule:nonzero;stroke:none"
         id="path330" /><path
         d="m 3747.13,2265.63 c 40.66,-46.12 94.76,-81.12 154.66,-95 59.9,-13.88 125.43,-5.73 177.98,26.19 19.58,11.88 37.87,27.73 46.51,48.94 8.64,21.2 5.21,48.48 -12.64,62.81 -13.81,11.1 -32.74,12.56 -50.43,13.58 -119.89,6.82 -239.77,13.66 -359.67,20.5 4.56,-60.28 54.03,-114.22 113.69,-123.96"
         style="fill:#558397;fill-opacity:1;fill-rule:nonzero;stroke:none"
         id="path332" /><path
         d="m 3802.67,3244.77 c 49.6,-28.01 110.5,-5.8 166.04,-1.17 10.13,1.23 -1.31,52.81 -3.06,58.12 -14.95,45.44 -30.38,91.8 -59.18,129.99 -22.95,30.44 -41.71,62.76 -71.64,87.72 -7.78,6.49 -104.92,58.73 -105.28,51.93 -3.03,-56.72 5.14,-110.8 12.17,-167.35 5.63,-45.36 2.37,-105.48 37.78,-141.36 7.38,-7.47 15.13,-13.34 23.17,-17.88"
         style="fill:#3e271f;fill-opacity:1;fill-rule:nonzero;stroke:none"
         id="path334" /><path
         d="m 3824.48,3697.68 c 56.02,24.86 126.15,27.91 173.99,5.59 92.35,-43.09 101.3,-132.17 114.99,-220.98 6.47,-41.96 51.48,-173.2 18.92,-207.13 -8.18,-8.53 -20.29,-11.78 -31.75,-14.66 -32.57,-8.18 -65.16,-16.37 -97.74,-24.56 -23.23,-5.83 -47.25,-11.72 -70.9,-7.89 -55.89,9.05 -59.31,52.85 -78.62,93.82 -22.65,48.05 -59.95,90.27 -83.18,139.04 -24.42,51.23 -52.43,122.9 -19.2,176.64 16.21,26.23 42.72,46.47 73.49,60.13"
         style="fill:#3e271f;fill-opacity:1;fill-rule:nonzero;stroke:none"
         id="path336" /><path
         d="m 4123.03,2519.35 c 0.05,-12.05 0.34,-24.06 0.95,-35.99 3.95,-75.96 67.52,-135.74 -9.46,-202.9 -37.58,-32.78 -89.61,-43.54 -139.43,-45.69 -144.46,-6.24 -368.18,37.51 -305.06,217.43 29.87,85.18 42.11,199.27 34.93,289.24 -3.77,47.22 -13.6,93.91 -15.27,141.25 -3.21,90.19 42.38,129.11 83.45,200.49 35.01,60.83 75,108.8 146.14,125.87 37.93,9.09 80.82,7.73 119.51,8.66 37.9,0.92 65.6,-10.92 90.31,-39.76 36.48,-42.56 17.43,-87 12.58,-140.98 -10.88,-120.9 -11.38,-242.4 -13.83,-363.68 -1.02,-50.79 -5.05,-102.76 -4.82,-153.94"
         style="fill:#50c19a;fill-opacity:1;fill-rule:nonzero;stroke:none"
         id="path338" /><path
         d="m 3980.66,2826.56 c 6.08,-24.48 20.02,-46.15 33.75,-67.32 47.44,-73.13 94.87,-146.25 142.3,-219.37 3.75,115.61 -2.84,231.57 -19.66,346.01 -4.12,28.03 -9.26,56.99 -25.39,80.28 -76.55,110.44 -146.93,-75.35 -131,-139.6"
         style="fill:#41937b;fill-opacity:1;fill-rule:nonzero;stroke:none"
         id="path340" /><path
         d="m 4054.61,2507.64 c -5.2,-11.08 -10.43,-22.06 -16.07,-32.82 -23.24,-44.58 -52.55,-86.3 -84.28,-125.17 -58.73,-71.64 -121.12,-141.67 -156.92,-225.93 -3.18,-7.49 36.24,6.51 38.31,7.76 14.1,8.53 24.64,31.56 33.87,44.48 -8.06,-54.42 -29.49,-102.95 -48.15,-154.53 -4.98,-13.75 87.61,22.75 98.5,36.48 29.03,36.63 45.58,92.9 57.69,137.32 4.51,16.72 7.66,33.4 16.26,48.66 23.53,41.91 62.88,76.54 95.59,111.12 37.84,39.92 74.8,79.71 109.75,122.12 -8.24,30.73 -26.32,43.57 -57.34,50.64 -31.02,7.06 -73.7,8.68 -87.21,-20.13"
         style="fill:#9d592b;fill-opacity:1;fill-rule:nonzero;stroke:none"
         id="path342" /><path
         d="m 4087.88,2745.51 c 5.37,-23.75 12.24,-47.08 18.78,-70.5 3.68,-13.36 8.72,-27.48 9.28,-41.51 0.48,-15.76 -11.83,-33.21 -19.18,-46.4 -10.11,-17.96 -22.05,-34.28 -33.71,-51.21 -4.88,-6.99 -19.24,-24.45 -5.49,-29.35 13.49,-4.86 32.85,0.3 46.38,1.4 23.45,1.98 50.64,4.1 71.19,-9.84 3.41,-2.35 6.71,-5.08 9.81,-7.97 4.18,-3.84 11.65,-14.42 18.29,-14.47 5.27,0 8.46,6.06 10.93,9.85 6.1,9.51 11.66,19.33 17.63,28.92 15.88,25.44 33.21,51.76 37.77,81.99 5.62,37.39 -1.85,78.16 -5.61,115.52 -4.68,46.25 -8.94,92.62 -17.48,138.35 -3.85,20.4 -8.73,40.75 -9.39,61.6 -0.65,21.21 1.21,42.44 0.34,63.58 -1.49,35.03 -11.27,67.83 -27.53,98.89 -17.29,33.06 -40.49,66.38 -71.86,87.43 -13.56,9.07 -28.69,16.43 -44.15,21.76 -8.37,2.88 -18.81,6.21 -27.69,4.03 -14.54,-3.57 -14.25,-23.5 -16.17,-35.25 -4.76,-29.1 -22.1,-50.21 -29.25,-77.39 -13.33,-50.64 -11.22,-100.21 11.61,-146.37 30.06,-60.76 40.59,-117.42 55.5,-183.06"
         style="fill:#50c19a;fill-opacity:1;fill-rule:nonzero;stroke:none"
         id="path344" /><path
         d="m 3761.07,3339.79 c 4.08,-18.59 11.77,-29.81 21.57,-36.86 31.68,-23.1 84.26,-2.86 99.12,-49.83 3.19,-10.23 9.69,-24.32 12.76,-38.18 2.53,-11.11 2.76,-22.22 -2.64,-30.8 -2.52,-3.96 -7.26,-8.04 -6.16,-13.21 1.1,-5.06 7.26,-8.02 11.66,-9.67 9.02,-3.3 19.34,-2.98 28.78,-2.21 56.55,4.6 99.49,33.9 149.07,54.89 -14.47,21.26 -43.66,31.37 -58.27,54.25 -24.18,37.88 -25.6,93.71 -20.39,137.03 4.22,35.04 33.85,64.75 21.28,99.51 -8.91,24.64 -33.34,18.04 -45.11,-0.22 -6.93,-10.68 -10.88,-22.89 -16.17,-34.33 -3.41,-7.37 -7.48,-16.72 -16.94,-12.87 -33.19,13.21 -17.34,77 -32.23,105.3 -14.05,26.74 -39.47,41.79 -66.78,52.24 -16.51,6.27 -45.11,16.51 -61.95,5.73 -10.66,-6.94 -14.29,-22.12 -18.59,-33.23 -4.84,-12.76 -11.44,-24.86 -15.18,-37.96 -15.52,-56 3.96,-154.02 16.17,-209.58"
         style="fill:#9d592b;fill-opacity:1;fill-rule:nonzero;stroke:none"
         id="path346" /><path
         d="m 3915.89,3706.78 c 55.56,-19.93 100.1,-71.66 117.03,-131.25 15.18,-53.38 8.4,-92.3 -3.35,-145.22 -10.45,31.04 -20.89,62.08 -31.34,93.11 -13.49,-3.04 -31.91,-2.24 -36.14,-16.86 -3.49,-12.06 2.23,-24.6 -3.13,-37.92 -18.94,12.09 -44.79,29.57 -51.94,52.23 -6.47,20.54 -7.22,46.64 -10.32,67.95 2.39,-16.49 -8.01,-35.83 -8.15,-52.72 -12.71,1.69 -25.55,-0.88 -38.35,-1.74 -56.8,-3.84 -39.72,37.65 -50.14,73.39 -0.7,-5.46 -5.04,-65.48 -6.1,-65.52 -21.92,-0.68 -43.83,-1.37 -65.75,-2.05 -9.76,25.92 -9.01,44.38 1.77,70.58 16.71,40.64 24.4,64.43 63.04,85.37 42.58,23.07 85.25,24.15 122.87,10.65"
         style="fill:#3e271f;fill-opacity:1;fill-rule:nonzero;stroke:none"
         id="path348" /><path
         d="m 3794.04,3300.71 -2.12,-0.05 c 15.64,-10.74 34.67,-10.22 52.58,-14.99 17.91,-4.77 31.46,-14.23 37.26,-32.57 3.93,-12.62 8.83,-26.14 13.24,-38.01 10.69,9.09 11.54,27.39 14.17,40.22 2.45,12 3.75,24.19 4,36.43 0.76,35.54 -29.93,21.31 -52.86,17.46 -21.65,-3.63 -44.26,-7.93 -66.27,-8.49"
         style="fill:#8d3922;fill-opacity:1;fill-rule:nonzero;stroke:none"
         id="path350" /><path
         d="m 3769.6,3442.63 c 31.21,4.31 99.45,-5.16 125.98,-9.2 -0.38,1.19 -0.25,2.52 0.84,3.5 18.97,17.32 38.52,34.09 58.4,50.35 4.94,4.03 12.06,-2.9 7.09,-7.09 -19.43,-16.43 -39.31,-32.42 -59.59,-47.81 2.66,-0.42 4.15,-0.67 4.15,-0.67 16.94,-35.12 7.72,-79.53 1.11,-101.98 19,10.58 36.85,18.3 52.12,35.3 17.59,19.59 22.26,40.73 31.13,64.33 1.28,3.38 6.31,2.99 6.46,-0.87 1.6,-43.95 -48.26,-101.03 -91.83,-105.59 -1.58,-4.79 -2.73,-7.64 -2.73,-7.64 0,0 -48.21,-56.59 -110.81,-14.6 -62.59,41.99 -52.77,120.53 -52.77,120.53 0,0 -8.74,16.02 30.45,21.44"
         style="fill:#ffffff;fill-opacity:1;fill-rule:nonzero;stroke:none"
         id="path352" /><path
         d="m 3286.02,2772.04 c -4.22,9.95 -13.42,18.41 -20.32,26.67 -7.8,9.34 -15.61,18.69 -23.41,28.04 -3.77,4.5 -10.09,-1.95 -6.43,-6.42 0.74,-0.92 1.49,-1.82 2.24,-2.74 -30.87,-0.62 -63.12,-7.54 -92.93,-13.85 -3.89,-0.82 -3.09,-7.32 0.95,-7.01 31.88,2.42 66.74,4.93 97.6,13.99 5.1,-6.24 10.2,-12.47 15.29,-18.7 6.85,-8.38 13.27,-18.62 22.32,-24.67 3.18,-2.13 5.88,1.88 4.69,4.69"
         style="fill:#8d3922;fill-opacity:1;fill-rule:nonzero;stroke:none"
         id="path354" /><path
         d="m 3256.5,2791.59 c -30.85,-0.3 -62.65,-8.76 -92.98,-13.91 -5.61,-0.96 -3.19,-9.33 2.33,-8.49 30.07,4.56 62.54,6.47 91.55,15.74 3.57,1.13 3.05,6.7 -0.9,6.66"
         style="fill:#8d3922;fill-opacity:1;fill-rule:nonzero;stroke:none"
         id="path356" /><path
         d="m 3272.61,2773.31 c -10.77,-0.35 -21.37,-4.93 -31.57,-8.22 -11.61,-3.74 -23.21,-7.5 -34.82,-11.24 -5.39,-1.75 -3.14,-10.2 2.36,-8.56 11.68,3.48 23.36,6.96 35.04,10.44 10.26,3.05 21.7,5.25 30.76,11.06 2.8,1.79 1.85,6.63 -1.77,6.52"
         style="fill:#8d3922;fill-opacity:1;fill-rule:nonzero;stroke:none"
         id="path358" /><path
         d="m 3894.21,2125.72 c -10.07,-0.99 -22.63,-33.52 -46.48,-98.76 -1.39,-3.84 4.59,-6.22 6.54,-2.74 17.01,30.54 36.44,65.18 46.14,98.89 1.1,3.83 -2.48,2.97 -6.2,2.61"
         style="fill:#8d3922;fill-opacity:1;fill-rule:nonzero;stroke:none"
         id="path360" /><path
         d="m 3921.36,2117.75 c -9.52,-31.57 -17.08,-58.86 -40.36,-83.73 -3.65,-3.88 2.05,-9.63 5.87,-5.86 22.55,22.32 43.12,55.8 40.72,88.75 -0.26,3.5 -5.17,4.41 -6.23,0.84"
         style="fill:#8d3922;fill-opacity:1;fill-rule:nonzero;stroke:none"
         id="path362" /></g></g></svg>
