<?xml version="1.0" encoding="UTF-8" standalone="no"?>
<!DOCTYPE svg PUBLIC "-//W3C//DTD SVG 1.1//EN" "http://www.w3.org/Graphics/SVG/1.1/DTD/svg11.dtd">
<svg version="1.1" xmlns="http://www.w3.org/2000/svg" xmlns:xlink="http://www.w3.org/1999/xlink" preserveAspectRatio="xMidYMid meet" viewBox="0 0 640 640" width="640" height="640"><defs><path d="M280.83 431.43C273.47 429.08 266.3 426.38 259.4 423.37C215.12 404.08 179.11 368.26 165.63 325.28C154.28 289.1 161.59 240.43 205.32 224.69C216.03 220.84 227.91 219.71 239.3 221.34C251.12 223.03 261.53 228.94 273.45 230.58C315.58 236.37 343.92 197.84 384.76 196.95C400.69 196.6 419.91 200.79 432.27 210.31C448.16 222.55 458.05 240.76 466.31 257.69C475.08 275.65 481.49 294.67 483.49 314.26C488.34 361.85 462.61 406.66 415.27 428.84C374.11 448.12 323.51 445.07 280.83 431.43" id="c3WQck2cW"></path><path d="M411.04 205.28C411.04 211.67 405.28 216.85 398.17 216.85C391.07 216.85 385.31 211.67 385.31 205.28C385.31 198.88 391.07 193.7 398.17 193.7C405.28 193.7 411.04 198.88 411.04 205.28" id="a3Lk6EF0kK"></path><path d="M398.52 205.28L397.83 205.28L397.83 186.66L398.52 186.66L398.52 205.28" id="c1DfUhkCXj"></path><path d="M401 186.66C401 188.07 399.73 189.21 398.17 189.21C396.61 189.21 395.35 188.07 395.35 186.66C395.35 185.26 396.61 184.12 398.17 184.12C399.73 184.12 401 185.26 401 186.66" id="ajJ0AnvEz"></path><path d="M397.87 205.43L387.53 189.31L388.13 189L398.47 205.12L397.87 205.43" id="b14b7sCir"></path><path d="M390.28 187.89C391.06 189.1 390.6 190.66 389.25 191.36C387.89 192.06 386.17 191.64 385.39 190.43C384.6 189.21 385.07 187.66 386.42 186.95C387.77 186.25 389.5 186.67 390.28 187.89" id="b43kgL7bA9"></path><path d="M398 205.55L380.09 196.24L380.44 195.7L398.35 205L398 205.55" id="iFKNCszCq"></path><path d="M381.68 193.77C383.03 194.47 383.49 196.02 382.71 197.24C381.93 198.46 380.2 198.87 378.85 198.17C377.5 197.47 377.04 195.91 377.82 194.7C378.6 193.48 380.32 193.06 381.68 193.77" id="b6ZB0pceYR"></path><path d="M398.17 205.59L377.49 205.59L377.49 204.96L398.17 204.96L398.17 205.59" id="b2z2PQAg5I"></path><path d="M377.49 202.73C379.05 202.73 380.32 203.87 380.32 205.28C380.32 206.68 379.05 207.82 377.49 207.82C375.93 207.82 374.67 206.68 374.67 205.28C374.67 203.87 375.93 202.73 377.49 202.73" id="b1YYqbJnfC"></path><path d="M380.44 214.85L380.09 214.31L398 205L398.35 205.55L380.44 214.85" id="bw0HYfeDb"></path><path d="M378.85 212.38C380.2 211.68 381.93 212.09 382.71 213.31C383.49 214.53 383.03 216.08 381.68 216.78C380.32 217.49 378.6 217.07 377.82 215.85C377.04 214.64 377.5 213.08 378.85 212.38" id="e536cbvGLA"></path><path d="M388.13 221.55L387.53 221.24L397.87 205.12L398.47 205.43L388.13 221.55" id="c4P4Gr360u"></path><path d="M385.39 220.12C386.17 218.91 387.89 218.49 389.25 219.19C390.6 219.89 391.06 221.45 390.28 222.67C389.5 223.88 387.77 224.3 386.42 223.6C385.07 222.89 384.6 221.34 385.39 220.12" id="a1Kjhla15"></path><path d="M398.52 223.89L397.83 223.89L397.83 205.28L398.52 205.28L398.52 223.89" id="c2bjlTZ8yZ"></path><path d="M395.35 223.89C395.35 222.48 396.61 221.34 398.17 221.34C399.73 221.34 401 222.48 401 223.89C401 225.29 399.73 226.43 398.17 226.43C396.61 226.43 395.35 225.29 395.35 223.89" id="d1qIYGABqb"></path><path d="M408.21 221.55L397.87 205.43L398.47 205.12L408.81 221.24L408.21 221.55" id="b1QpJKJV9U"></path><path d="M406.07 222.67C405.29 221.45 405.75 219.89 407.1 219.19C408.45 218.49 410.18 218.91 410.96 220.12C411.74 221.34 411.28 222.89 409.93 223.6C408.57 224.3 406.85 223.88 406.07 222.67" id="b1dtRk0DiI"></path><path d="M415.91 214.85L398 205.55L398.35 205L416.26 214.31L415.91 214.85" id="b1SvfJ9L79"></path><path d="M414.67 216.78C413.32 216.08 412.86 214.53 413.64 213.31C414.42 212.09 416.14 211.68 417.5 212.38C418.85 213.08 419.31 214.64 418.53 215.85C417.75 217.07 416.02 217.49 414.67 216.78" id="boFvFH9cM"></path><path d="M418.85 205.59L398.17 205.59L398.17 204.96L418.85 204.96L418.85 205.59" id="c12Drf0QdZ"></path><path d="M418.85 207.82C417.29 207.82 416.03 206.68 416.03 205.28C416.03 203.87 417.29 202.73 418.85 202.73C420.42 202.73 421.68 203.87 421.68 205.28C421.68 206.68 420.42 207.82 418.85 207.82" id="gMz82XGaK"></path><path d="M398.35 205.55L398 205L415.91 195.7L416.26 196.24L398.35 205.55" id="c3g9ExLXLF"></path><path d="M417.5 198.17C416.14 198.87 414.42 198.46 413.64 197.24C412.86 196.02 413.32 194.47 414.67 193.77C416.02 193.06 417.75 193.48 418.53 194.7C419.31 195.91 418.85 197.47 417.5 198.17" id="f3yALyvSED"></path><path d="M398.47 205.43L397.87 205.12L408.21 189L408.81 189.31L398.47 205.43" id="a40uqLGtcD"></path><path d="M410.96 190.43C410.18 191.64 408.45 192.06 407.1 191.36C405.75 190.66 405.29 189.1 406.07 187.89C406.85 186.67 408.57 186.25 409.93 186.95C411.28 187.66 411.74 189.21 410.96 190.43" id="a1j19ooWwp"></path><path d="M481.49 385.02C479.98 388.63 475.51 390.45 471.5 389.09C467.49 387.74 465.47 383.71 466.97 380.11C468.48 376.5 472.95 374.67 476.96 376.03C480.97 377.39 483 381.41 481.49 385.02" id="a6Wu59R4yO"></path><path d="M474.43 382.63L474.04 382.5L478.43 372L478.82 372.13L474.43 382.63" id="a1A8QiJmvn"></path><path d="M480.22 372.6C479.88 373.39 478.9 373.79 478.02 373.5C477.14 373.2 476.7 372.31 477.03 371.52C477.36 370.73 478.34 370.33 479.22 370.63C480.1 370.92 480.55 371.81 480.22 372.6" id="a3Xhb8ZBYK"></path><path d="M474.02 382.59L471.99 371.52L472.4 371.46L474.44 382.53L474.02 382.59" id="a1qJy3SgK2"></path><path d="M473.88 371.24C474.03 372.08 473.41 372.87 472.48 373.01C471.55 373.14 470.67 372.58 470.52 371.74C470.37 370.91 470.99 370.12 471.92 369.98C472.85 369.84 473.73 370.41 473.88 371.24" id="a3UgTipTE"></path><path d="M474.07 382.68L466.16 374.01L466.48 373.77L474.39 382.44L474.07 382.68" id="a13f2tnYvh"></path><path d="M467.64 372.92C468.24 373.57 468.13 374.54 467.4 375.08C466.68 375.61 465.6 375.52 465 374.86C464.41 374.21 464.51 373.24 465.24 372.71C465.97 372.17 467.04 372.26 467.64 372.92" id="cEivdQ9Xu"></path><path d="M474.16 382.74L462.49 378.79L462.64 378.44L474.31 382.39L474.16 382.74" id="b29hKhyFV"></path><path d="M463.16 377.18C464.04 377.48 464.49 378.36 464.16 379.15C463.83 379.94 462.84 380.34 461.96 380.05C461.08 379.75 460.64 378.87 460.97 378.07C461.3 377.28 462.28 376.88 463.16 377.18" id="b6w2ac3S5p"></path><path d="M461.97 384.58L461.9 384.21L474.2 382.38L474.27 382.75L461.97 384.58" id="f592ZqTy4Y"></path><path d="M461.65 382.88C462.58 382.74 463.46 383.31 463.61 384.14C463.77 384.98 463.14 385.77 462.21 385.9C461.28 386.04 460.4 385.48 460.25 384.64C460.1 383.81 460.73 383.02 461.65 382.88" id="bbKKMMLcZ"></path><path d="M464.73 389.83L464.46 389.54L474.1 382.42L474.36 382.71L464.73 389.83" id="aYCyu0ayI"></path><path d="M463.51 388.5C464.24 387.96 465.32 388.05 465.91 388.71C466.51 389.36 466.4 390.33 465.68 390.87C464.95 391.4 463.88 391.31 463.28 390.65C462.68 390 462.79 389.03 463.51 388.5" id="a59YH7IcF"></path><path d="M470.04 393.13L469.65 393L474.04 382.5L474.43 382.63L470.04 393.13" id="k1m5VDWmMF"></path><path d="M468.25 392.52C468.58 391.73 469.56 391.33 470.44 391.63C471.32 391.93 471.77 392.81 471.44 393.6C471.1 394.4 470.12 394.8 469.24 394.5C468.36 394.2 467.92 393.32 468.25 392.52" id="d38MjojERn"></path><path d="M476.06 393.66L474.02 382.59L474.44 382.53L476.47 393.6L476.06 393.66" id="o2wTTm5IS3"></path><path d="M474.58 393.88C474.43 393.05 475.06 392.26 475.99 392.12C476.91 391.98 477.79 392.55 477.94 393.38C478.1 394.22 477.47 395.01 476.54 395.15C475.61 395.28 474.74 394.72 474.58 393.88" id="e6ZjEAXlHA"></path><path d="M481.98 391.35L474.07 382.68L474.39 382.44L482.3 391.12L481.98 391.35" id="aw8KXjOoC"></path><path d="M480.82 392.21C480.23 391.55 480.33 390.59 481.06 390.05C481.79 389.51 482.86 389.61 483.46 390.26C484.05 390.92 483.95 391.88 483.22 392.42C482.49 392.96 481.42 392.86 480.82 392.21" id="m4WvIONtuE"></path><path d="M485.83 386.69L474.16 382.74L474.31 382.39L485.97 386.34L485.83 386.69" id="aakq2V2JWR"></path><path d="M485.3 387.95C484.42 387.65 483.97 386.77 484.31 385.97C484.64 385.18 485.62 384.78 486.5 385.08C487.38 385.38 487.83 386.26 487.49 387.05C487.16 387.85 486.18 388.25 485.3 387.95" id="c3IDPL2CH"></path><path d="M474.27 382.75L474.2 382.38L486.5 380.55L486.56 380.92L474.27 382.75" id="a3IE4CqKlD"></path><path d="M486.81 382.25C485.88 382.38 485 381.82 484.85 380.98C484.7 380.15 485.33 379.36 486.25 379.22C487.18 379.08 488.06 379.65 488.21 380.48C488.37 381.32 487.74 382.11 486.81 382.25" id="bCp8jJjAG"></path><path d="M474.36 382.71L474.1 382.42L483.74 375.3L484 375.59L474.36 382.71" id="oZQX5GBCG"></path><path d="M484.95 376.63C484.22 377.17 483.15 377.07 482.55 376.42C481.95 375.76 482.06 374.8 482.79 374.26C483.51 373.72 484.59 373.82 485.18 374.47C485.78 375.13 485.67 376.09 484.95 376.63" id="dMwwz5Kh"></path><path d="M299.76 223.85C298.26 227.46 293.78 229.28 289.78 227.92C285.77 226.57 283.74 222.54 285.25 218.94C286.76 215.33 291.23 213.51 295.24 214.86C299.25 216.22 301.27 220.24 299.76 223.85" id="dbdLb8lak"></path><path d="M292.7 221.46L292.31 221.33L296.7 210.83L297.09 210.96L292.7 221.46" id="b5RC6HD0"></path><path d="M298.49 211.43C298.16 212.22 297.18 212.63 296.3 212.33C295.42 212.03 294.97 211.14 295.3 210.35C295.63 209.56 296.62 209.16 297.5 209.46C298.38 209.76 298.82 210.64 298.49 211.43" id="aWYTRmY7C"></path><path d="M292.3 221.42L290.27 210.35L290.68 210.29L292.71 221.36L292.3 221.42" id="buSMSYZA"></path><path d="M292.16 210.07C292.31 210.91 291.68 211.7 290.75 211.84C289.82 211.97 288.95 211.41 288.79 210.57C288.64 209.74 289.27 208.95 290.2 208.81C291.13 208.67 292 209.24 292.16 210.07" id="g1CqQzLssN"></path><path d="M292.35 221.51L284.44 212.84L284.76 212.6L292.67 221.27L292.35 221.51" id="a1uGhYe7po"></path><path d="M285.91 211.75C286.51 212.4 286.41 213.37 285.68 213.91C284.95 214.44 283.88 214.35 283.28 213.69C282.68 213.04 282.79 212.07 283.52 211.54C284.24 211 285.32 211.09 285.91 211.75" id="b1O8UB3b29"></path><path d="M292.43 221.57L280.77 217.62L280.91 217.27L292.58 221.22L292.43 221.57" id="dZR5zz6i"></path><path d="M281.44 216.01C282.32 216.31 282.76 217.19 282.43 217.98C282.1 218.78 281.12 219.18 280.24 218.88C279.36 218.58 278.91 217.7 279.24 216.9C279.58 216.11 280.56 215.71 281.44 216.01" id="kt5YWbqYL"></path><path d="M280.24 223.41L280.17 223.04L292.47 221.21L292.54 221.58L280.24 223.41" id="bxdB89y7y"></path><path d="M279.93 221.71C280.86 221.57 281.74 222.14 281.89 222.97C282.04 223.81 281.41 224.6 280.49 224.73C279.56 224.87 278.68 224.31 278.53 223.47C278.37 222.64 279 221.85 279.93 221.71" id="a4iJc6xRAt"></path><path d="M283 228.66L282.74 228.37L292.37 221.25L292.64 221.54L283 228.66" id="gEuDPXjTA"></path><path d="M281.79 227.33C282.52 226.79 283.59 226.89 284.19 227.54C284.79 228.19 284.68 229.16 283.95 229.7C283.23 230.23 282.15 230.14 281.56 229.48C280.96 228.83 281.06 227.86 281.79 227.33" id="jaXpOmeL"></path><path d="M288.31 231.96L287.92 231.83L292.31 221.33L292.7 221.46L288.31 231.96" id="b4brDZwQR"></path><path d="M286.52 231.35C286.86 230.56 287.84 230.16 288.72 230.46C289.6 230.76 290.04 231.64 289.71 232.43C289.38 233.23 288.4 233.63 287.52 233.33C286.64 233.03 286.19 232.15 286.52 231.35" id="a3t2PwF1TX"></path><path d="M294.33 232.49L292.3 221.42L292.71 221.36L294.75 232.43L294.33 232.49" id="bftFMENr9"></path><path d="M292.86 232.71C292.71 231.88 293.33 231.09 294.26 230.95C295.19 230.81 296.07 231.38 296.22 232.21C296.37 233.05 295.75 233.84 294.82 233.98C293.89 234.11 293.01 233.55 292.86 232.71" id="b1khO0wWqI"></path><path d="M300.26 230.19L292.35 221.51L292.67 221.27L300.58 229.95L300.26 230.19" id="c3Np4jgiwR"></path><path d="M299.1 231.04C298.5 230.38 298.61 229.42 299.34 228.88C300.06 228.34 301.14 228.44 301.73 229.09C302.33 229.75 302.23 230.71 301.5 231.25C300.77 231.79 299.7 231.69 299.1 231.04" id="a34Vk9Pbxv"></path><path d="M304.1 225.52L292.43 221.57L292.58 221.22L304.25 225.17L304.1 225.52" id="acuZh3Tmm"></path><path d="M303.58 226.78C302.7 226.48 302.25 225.6 302.58 224.8C302.91 224.01 303.89 223.61 304.78 223.91C305.66 224.21 306.1 225.09 305.77 225.88C305.44 226.68 304.46 227.08 303.58 226.78" id="a1R7HtfQZO"></path><path d="M292.54 221.58L292.47 221.21L304.77 219.38L304.84 219.75L292.54 221.58" id="a9FCfD9ah"></path><path d="M305.09 221.08C304.16 221.22 303.28 220.65 303.13 219.81C302.97 218.98 303.6 218.19 304.53 218.05C305.46 217.91 306.33 218.48 306.49 219.31C306.64 220.15 306.01 220.94 305.09 221.08" id="a1Y5djHZNz"></path><path d="M292.64 221.54L292.37 221.25L302.01 214.13L302.28 214.42L292.64 221.54" id="b3AJa0A2is"></path><path d="M303.22 215.46C302.5 216 301.42 215.9 300.83 215.25C300.23 214.59 300.34 213.63 301.06 213.09C301.79 212.55 302.86 212.65 303.46 213.3C304.06 213.96 303.95 214.92 303.22 215.46" id="mcq7DQDug"></path><path d="M404.37 463.66C404.37 466.6 366.8 468.98 320.46 468.98C274.11 468.98 236.54 466.6 236.54 463.66C236.54 460.71 274.11 458.33 320.46 458.33C366.8 458.33 404.37 460.71 404.37 463.66" id="h70KJg7aw"></path><path d="M474.23 463.66C474.23 466.6 451.22 468.98 422.83 468.98C394.43 468.98 371.42 466.6 371.42 463.66C371.42 460.71 394.43 458.33 422.83 458.33C451.22 458.33 474.23 460.71 474.23 463.66" id="a1QZjwnTsp"></path><path d="M240.13 463.39C204.25 464.54 184.32 465.18 180.34 465.3C175.19 465.3 170.89 462.24 170.47 458.27C168.17 436.89 149.78 265.86 147.48 244.48C147 240.01 151.55 236.17 157.35 236.17C163.33 236.36 211.16 237.89 217.14 238.08C222.29 238.08 226.58 241.14 227.01 245.12C229.31 266.11 247.7 434.09 249.99 455.08C250.48 459.56 245.92 463.39 240.13 463.39" id="a1uVmTxrkS"></path><path d="M248.47 463.39C212.6 464.54 192.67 465.18 188.68 465.3C183.53 465.3 179.24 462.24 178.82 458.27C176.52 436.89 158.13 265.86 155.83 244.48C155.35 240.01 159.9 236.17 165.7 236.17C171.68 236.36 219.51 237.89 225.49 238.08C230.64 238.08 234.93 241.14 235.36 245.12C237.65 266.11 256.05 434.09 258.34 455.08C258.83 459.56 254.27 463.39 248.47 463.39" id="awKxrJ26"></path><path d="M250.12 463.39C214.24 464.54 194.31 465.18 190.33 465.3C185.18 465.3 180.89 462.24 180.46 458.27C178.16 436.89 159.77 265.86 157.47 244.48C156.99 240.01 161.54 236.17 167.34 236.17C173.32 236.36 221.15 237.89 227.13 238.08C232.28 238.08 236.57 241.14 237 245.12C239.3 266.11 257.69 434.09 259.99 455.08C260.47 459.56 255.91 463.39 250.12 463.39" id="d8T9Kkj1B"></path><path d="M253.78 458.33C252.82 459.14 251.52 459.58 250.11 459.58C244.14 459.77 196.3 461.29 190.33 461.48C187.76 461.48 185.58 459.93 185.37 457.95C185.14 455.88 184.03 445.52 182.03 426.89C170.24 317.25 163.69 256.34 162.38 244.16C162.26 243.07 162.72 242.04 163.68 241.23C164.63 240.43 165.93 239.99 167.34 239.99C173.32 240.18 221.15 241.71 227.13 241.9C229.7 241.9 231.88 243.45 232.09 245.43C232.85 252.36 236.64 287.01 243.47 349.37C250.43 412.99 254.3 448.33 255.08 455.4C255.19 456.49 254.73 457.53 253.78 458.33" id="a2ILcI7Y3S"></path><path d="M242.29 337.19L178.8 396.83L175.19 363.25L240.88 325.75L242.29 337.19" id="c53LQwX1No"></path><path d="M253.78 458.33C252.82 459.14 251.52 459.58 250.11 459.58C244.14 459.77 196.3 461.29 190.33 461.48C187.76 461.48 185.58 459.93 185.37 457.95C185.03 454.84 182.36 429.99 182.03 426.89C196.34 408.56 226.56 370.58 243.47 349.37C244.63 359.98 253.92 444.8 255.08 455.4C255.19 456.49 254.73 457.53 253.78 458.33" id="g12aXulwcv"></path><path d="M183.07 239.99C184.93 242.57 185.96 244 186.16 244.29C186.78 244.89 187.65 245.24 188.56 245.25C191.07 245.28 211.16 245.51 213.67 245.54C214.69 245.55 215.66 245.14 216.3 244.43C216.49 244.13 217.43 242.65 219.13 239.99L183.07 239.99" id="b4ahlI98Kq"></path><path d="M204.96 424.87C205.48 430.75 202.71 435.75 198.77 436.04C194.83 436.32 191.2 431.78 190.68 425.9C190.15 420.01 192.93 415.01 196.87 414.73C200.81 414.44 204.43 418.98 204.96 424.87" id="arCVhdQ19"></path><path d="M225.53 423.32C226.05 429.2 223.28 434.2 219.34 434.49C215.4 434.77 211.78 430.23 211.25 424.35C210.73 418.46 213.5 413.46 217.44 413.18C221.38 412.89 225.01 417.43 225.53 423.32" id="afV6jM3pO"></path><path d="M245.55 421.56C246.07 427.45 243.3 432.45 239.36 432.74C235.41 433.02 231.79 428.48 231.27 422.59C230.74 416.71 233.51 411.7 237.46 411.42C241.4 411.14 245.02 415.68 245.55 421.56" id="a3Z3MElzae"></path><path d="M231.78 315.91C233.58 336.38 223.92 353.77 210.2 354.75C196.48 355.72 183.9 339.91 182.11 319.44C180.31 298.96 189.97 281.57 203.69 280.6C217.41 279.62 229.99 295.43 231.78 315.91" id="b2fM6oj2wl"></path><path d="M193.09 323.83C200.26 331.26 204.24 335.39 205.03 336.22C206.83 338.09 210.19 337.58 211.22 335.28C212.52 332.35 222.93 308.9 224.23 305.97C224.59 305.17 224.58 304.27 224.21 303.47C224.2 303.46 224.19 303.42 224.18 303.42C222.91 300.7 218.61 300.73 217.39 303.47C216.66 305.12 213.01 313.34 206.45 328.13C201.8 323 199.22 320.15 198.71 319.58C196.61 317.26 192.45 318.44 192.2 321.41C192.13 322.29 192.45 323.16 193.09 323.83" id="c7ekw4x92"></path><path d="M188.36 378.74C187.43 378.74 186.65 378.09 186.59 377.24C186.54 376.36 187.29 375.61 188.26 375.56C193.35 375.31 234.09 373.27 239.18 373.02C240.15 372.96 240.99 373.64 241.04 374.52C241.1 375.39 240.35 376.14 239.38 376.19C235.98 376.36 219.01 377.21 188.46 378.74L188.36 378.74" id="akxD5cVCx"></path><path d="M226.56 264.22L226.51 264.22C195.96 263.45 178.99 263.03 175.59 262.94C174.61 262.92 173.85 262.19 173.87 261.31C173.9 260.43 174.72 259.75 175.69 259.76C180.78 259.89 221.52 260.91 226.61 261.03C227.59 261.06 228.36 261.79 228.33 262.67C228.3 263.53 227.51 264.22 226.56 264.22" id="a5uyVKEo7R"></path><path d="M188.36 391C187.44 391 186.66 390.35 186.59 389.51C186.53 388.64 187.26 387.88 188.24 387.82C193.33 387.5 234.06 384.95 239.16 384.63C240.14 384.58 240.98 385.24 241.04 386.11C241.11 386.99 240.38 387.75 239.4 387.81C236.01 388.02 219.03 389.08 188.48 390.99L188.36 391" id="c5m3UNxf8M"></path><path d="M256.05 282.37C256.05 282.37 252.72 272.06 252.52 270.39C252.33 268.72 251.29 263.31 254.29 261.72C257.28 260.13 255.51 255.36 258.7 254.4C262.18 253.36 266.53 253.54 270.14 253.65C274.62 253.78 280.41 255.63 282.31 259.73C283.71 262.77 281.99 268.27 281.22 271.41C279.54 272.14 271.15 275.79 256.05 282.37" id="a2A7tjH3V"></path><path d="M256.05 282.37C256.05 282.37 252.72 272.06 252.52 270.39C252.52 270.37 252.52 270.35 252.52 270.33C252.46 269.84 252.34 269.07 252.26 268.17C252.4 268.06 252.64 267.95 252.95 267.83C253.5 267.62 254.29 267.4 255.15 267.2C255.2 268.53 255.4 269.74 255.47 270.39C255.48 270.46 255.49 270.54 255.51 270.63C255.28 271.05 255.13 271.49 255.11 271.93C255.1 271.98 255.1 272.03 255.1 272.08C255.1 272.71 255.32 273.33 255.76 273.83C255.77 273.84 255.78 273.85 255.79 273.86C255.79 273.86 255.79 273.86 255.79 273.86C255.89 273.95 256.18 274.13 256.5 274.31C256.78 275.28 257.1 276.32 257.41 277.32C257.21 278.96 256.67 280.68 256.05 282.37C256.05 282.37 256.05 282.37 256.05 282.37" id="hppnvqI82"></path><path d="M279.37 282.21C279.02 283.66 278.35 284.54 277.5 285.08C274.76 286.89 270.19 285.31 268.91 288.97C268.63 289.77 268.07 290.87 267.8 291.95C267.58 292.82 267.56 293.69 268.03 294.36C268.25 294.67 268.66 294.99 268.56 295.39C268.47 295.78 267.93 296.02 267.55 296.14C266.77 296.4 265.87 296.38 265.05 296.32C261.49 296.07 254.56 294.6 253.6 290.8C253.34 289.78 253.67 288.72 254.01 287.72C255.27 283.94 258.05 278.79 257.38 274.79C257.39 274.82 255.92 274.01 255.76 273.83C255.29 273.29 255.07 272.62 255.11 271.93C255.18 270.5 256.6 269.01 258.02 268.41C260.58 267.33 261.58 270.4 262.42 272.03C262.71 272.61 263.07 273.34 263.89 273.04C264.82 272.7 265.6 272.03 265.56 271.11C265.53 270.38 265.31 269.66 265.61 268.95C266.31 267.3 268.54 266.53 269.74 265.22C270.62 264.24 270.58 263.36 270.61 262.2C270.64 261.33 271.7 261.01 272.48 260.74C273.91 260.25 276.39 259.45 277.85 260.3C278.77 260.84 279.09 262.02 279.46 262.89C279.88 263.89 280.45 264.83 280.78 265.85C282.12 270.22 280.43 277.87 279.37 282.21" id="btA3OwLr5"></path><path d="M257.38 274.79C257.36 274.79 257.12 274.66 256.83 274.5C256.83 274.5 256.83 274.5 256.83 274.5C257.12 274.66 257.36 274.79 257.38 274.79C257.38 274.79 257.38 274.79 257.38 274.79M256.82 274.5C256.72 274.44 256.61 274.37 256.5 274.31C256.5 274.31 256.5 274.31 256.5 274.31C256.61 274.37 256.72 274.44 256.82 274.5C256.82 274.5 256.82 274.5 256.82 274.5" id="b4DhZzDmNG"></path><path d="M256.5 274.31C256.18 274.13 255.89 273.95 255.79 273.86C255.89 273.95 256.18 274.13 256.5 274.31C256.5 274.31 256.5 274.31 256.5 274.31" id="b4IsCUzELr"></path><path d="M257.38 274.79C257.38 274.79 257.38 274.79 257.38 274.79C257.38 274.79 257.38 274.79 257.38 274.79" id="a32cuzqW4j"></path><path d="M256.11 269.8C256.89 268.66 257.99 267.55 258.95 267.55C259.26 267.55 259.55 267.66 259.8 267.92C260 268.11 260.13 268.34 260.22 268.58C259.87 268.33 259.48 268.19 259.03 268.19C258.72 268.19 258.39 268.26 258.02 268.41C257.33 268.7 256.64 269.2 256.11 269.8" id="d9ByXVkIK"></path><path d="M259.17 286.88C258.64 286.61 258.1 286.35 257.55 286.12C256.88 285.83 255.82 285.36 254.91 285.36C254.9 285.36 254.89 285.36 254.88 285.36C256.05 282.41 257.48 279.03 257.48 276.09C257.48 276.06 257.48 276.03 257.48 275.99C257.51 276.05 257.54 276.1 257.57 276.15C257.95 276.79 258.57 277.36 259.1 277.9C259.25 278.06 259.4 278.22 259.56 278.38C259.35 281.09 259.18 284.12 259.17 286.88M259.62 277.64C258.85 276.88 258.13 276.08 257.44 275.26C257.43 275.1 257.41 274.95 257.38 274.79C257.38 274.79 257.38 274.79 257.38 274.79L257.38 274.79C257.38 274.79 257.38 274.79 257.38 274.79C257.38 274.79 257.38 274.79 257.38 274.79C257.38 274.79 257.38 274.79 257.38 274.79C257.36 274.79 257.12 274.66 256.83 274.5C256.81 274.48 256.8 274.46 256.78 274.44C256.78 274.44 256.78 274.44 256.78 274.44C256.78 274.44 256.78 274.44 256.78 274.44C256.8 274.46 256.81 274.48 256.82 274.5C256.72 274.44 256.61 274.37 256.5 274.31C256.18 274.13 255.89 273.95 255.79 273.86C255.79 273.86 255.79 273.86 255.79 273.86C255.78 273.85 255.77 273.84 255.76 273.83C255.32 273.33 255.1 272.71 255.1 272.08C255.1 272.03 255.1 271.98 255.11 271.93C255.13 271.51 255.52 270.65 256.11 269.8C256.64 269.2 257.33 268.7 258.02 268.41C258.39 268.26 258.72 268.19 259.03 268.19C259.48 268.19 259.87 268.33 260.22 268.58C260.42 269.15 260.38 269.82 260.32 270.44C260.25 271.15 259.94 273.8 259.66 277.14C259.65 277.3 259.63 277.47 259.62 277.64" id="bFdTFmLKF"></path><path d="M280.78 265.85C280.45 264.83 279.88 263.89 279.46 262.89C279.09 262.02 278.77 260.84 277.85 260.3C276.48 259.51 274.21 260.16 272.75 260.65C272.94 266.32 273.81 271.99 269.3 276.04C268.6 277 267.01 276.84 265.5 276.68C264 276.52 262.59 276.36 262.23 277.32C259.76 283.05 259.23 289.74 261.09 295.71C262.55 296.05 263.96 296.24 265.05 296.32C265.87 296.38 266.77 296.4 267.55 296.14C267.93 296.02 268.47 295.78 268.56 295.39C268.66 294.99 268.25 294.67 268.03 294.36C267.56 293.69 267.58 292.82 267.8 291.95C268.07 290.87 268.63 289.77 268.91 288.97C270.19 285.31 274.76 286.89 277.5 285.08C278.35 284.54 279.02 283.66 279.37 282.21C280.43 277.87 282.12 270.22 280.78 265.85" id="baWLrm7YO"></path><path d="M276.51 285.26C276.62 285.26 276.69 285.26 276.7 285.26C275.34 286.1 273.69 286.06 272.14 286.43C270.58 286.8 269.41 287.54 268.91 288.97C268.57 289.96 268.14 291.02 267.76 291.94C266.83 291.23 266.76 289.8 266.53 288.8C266.32 287.87 266.2 286.91 266.18 285.96C266.12 283.19 268.78 284.3 270.77 284.6C272.64 284.88 274.6 285.21 276.51 285.26" id="d2EkFIBV2f"></path><path d="M278.63 274.18C275.93 273.85 270.01 274.59 267.71 274.9C267.74 274.81 267.73 274.7 267.64 274.63C266.7 273.86 265.77 273.01 264.76 272.33C263.72 271.62 262.51 271.04 261.4 270.41C261.91 271.5 262.65 271.79 263.61 272.49C264.76 273.33 265.93 274.17 267.12 274.98C266.89 275.02 266.76 275.03 266.76 275.03C266.06 276.35 265.87 277.85 265.94 279.3C265.98 279.98 266.08 280.66 266.22 281.33C266.33 281.83 266.76 282.5 266.51 283C265.61 282.7 264.66 281.84 263.9 281.29C261.19 279.32 258.79 277.01 256.78 274.44C257.18 274.95 257.24 275.61 257.57 276.15C257.95 276.79 258.57 277.36 259.1 277.9C259.93 278.77 260.84 279.56 261.7 280.41C262.29 281 262.89 281.56 263.63 282.02C264.16 282.35 264.71 282.65 265.29 282.92C265.53 283.03 266.78 283.33 266.85 283.53C266.99 283.9 267.09 284.12 267.09 284.12C267.09 284.12 271.27 288.54 276.7 285.26C282.13 281.99 281.27 275.86 281.27 275.86C281.27 275.86 282.03 274.61 278.63 274.18" id="dHqoQn3TC"></path><path d="M267.09 284.12C267.09 284.12 267.09 284.12 267.09 284.12C267.09 284.12 267.09 284.12 267.09 284.12" id="d1WIHLFLB"></path><path d="M271.99 286.44C269.05 286.18 267.12 284.16 267.09 284.12C267.09 284.12 267.09 284.12 267.09 284.12C267.09 284.12 267.09 284.12 267.09 284.12C267.09 284.12 267.09 284.12 267.09 284.12C267.09 284.12 266.99 283.9 266.85 283.53C266.78 283.33 265.53 283.03 265.29 282.92C264.71 282.65 264.16 282.35 263.63 282.02C262.89 281.56 262.29 281 261.7 280.41C261 279.72 260.26 279.07 259.56 278.38C259.4 278.22 259.25 278.06 259.1 277.9C258.57 277.36 257.95 276.79 257.57 276.15C257.54 276.1 257.51 276.05 257.48 275.99C257.23 275.48 257.14 274.9 256.78 274.44C258.79 277.01 261.19 279.32 263.9 281.29C264.66 281.84 265.61 282.7 266.51 283C266.57 282.89 266.59 282.77 266.59 282.65C266.59 282.21 266.3 281.72 266.22 281.33C266.08 280.66 265.98 279.98 265.94 279.3C265.94 279.13 265.93 278.96 265.93 278.79C265.92 277.5 266.14 276.2 266.76 275.03C266.76 275.03 266.89 275.02 267.12 274.98C267.12 274.98 267.12 274.98 267.12 274.98C267.12 274.98 267.12 274.98 267.12 274.98C265.93 274.17 264.76 273.33 263.61 272.49C263.61 272.49 263.61 272.49 263.61 272.49C262.68 271.8 261.95 271.52 261.44 270.49C261.42 270.46 261.41 270.44 261.4 270.41C262.51 271.04 263.72 271.62 264.76 272.33C265.77 273.01 266.7 273.86 267.64 274.63C267.7 274.68 267.72 274.74 267.72 274.81C267.72 274.84 267.72 274.87 267.71 274.9C267.71 274.9 267.71 274.9 267.71 274.9C267.71 274.9 267.71 274.9 267.71 274.9C268.07 274.85 268.53 274.79 269.05 274.72C268.52 279.02 269.61 283.12 271.99 286.44" id="d2aNVYiT9W"></path><path d="M270.93 294.64C270.16 295.72 268.48 296.66 267.04 296.26C266.4 296.09 265.84 295.71 265.3 295.38C264.32 294.78 263.34 294.2 262.33 293.65C260.47 292.64 258.51 291.65 256.43 291.03C255.53 290.76 254.6 290.64 253.67 290.44C253.01 290.3 252.51 290.09 252.52 289.41C252.54 288.66 252.85 287.85 253.06 287.13C253.21 286.59 253.4 285.97 253.92 285.62C254.93 284.95 256.61 285.72 257.55 286.12C259.7 287.04 261.67 288.26 263.7 289.37C265.42 290.3 267.17 290.92 269.08 291.49C270.15 291.81 271.45 292.26 271.37 293.48C271.35 293.9 271.18 294.3 270.93 294.64" id="j6P7MuaU8"></path><path d="M232.57 457.31C229.95 455.75 230.21 452.53 229.07 450.24C227.67 447.44 224.87 444.82 221.95 443.29C218.6 441.54 213.43 440.73 209.99 442.78C207.26 444.42 203.88 448.8 206.94 451.38C213.27 456.77 222.39 461.95 230.75 464.27C232.56 464.77 236.04 466.38 237.32 464.36C238.11 463.12 238.78 461.19 237.81 459.77C236.69 458.11 234.24 458.3 232.57 457.31" id="c3gwy1zqPg"></path><path d="M221.03 460.5C215.83 457.96 210.85 454.71 206.94 451.38C206.94 451.38 206.94 451.38 206.94 451.38C206.08 450.65 205.73 449.78 205.73 448.87C205.73 446.55 208.03 443.96 209.99 442.78C210.12 442.7 210.26 442.63 210.39 442.56C210.56 443.12 210.87 443.61 211.4 444.02C212.04 444.5 212.65 444.88 213.16 445.43C210.85 447.45 208.91 450.86 211.47 453.01C214.56 455.65 218.33 458.24 222.34 460.46C222.26 460.47 221.82 460.48 221.03 460.5" id="a2iHqb42lX"></path><path d="M268.7 398.34C267.68 402.16 267.71 406.12 264.52 409.25C263.75 410.02 262.83 410.67 261.9 411.28C261.24 411.72 260.57 412.14 259.93 412.58C258.41 413.61 256.94 414.72 255.55 415.91C252.86 418.2 250.56 420.78 248.36 423.45C245.8 426.58 243.34 429.85 240.39 432.72C239.02 434.04 237.49 435.21 235.96 436.37C234.98 437.12 233.92 437.88 233.21 438.86C232.65 439.65 232.44 440.58 231.91 441.38C231.24 442.38 229.95 442.8 229.16 443.68C228.4 444.5 228 445.55 228.18 446.6C228.35 447.57 229.12 448.79 227.93 449.45C226.84 450.05 225.39 450.13 224.2 450.37C222.14 450.79 220.35 451.2 218.38 450.33C216.1 449.33 214.84 447.65 213.47 445.81C212.91 445.04 212.18 444.6 211.4 444.02C210.63 443.43 210.31 442.66 210.27 441.77C210.19 440.36 210.74 438.99 211.69 437.88C212.83 436.51 214.4 435.44 215.82 434.31C217.29 433.15 218.77 431.96 220.17 430.72C223.04 428.17 225.59 425.4 227.88 422.41C230.22 419.36 232.35 416.18 234.71 413.14C236.98 410.21 239.52 407.59 242.54 405.26C245.27 403.15 248.7 401.16 250.36 398.18C251.09 396.87 251.45 395.4 251.98 394.02C253.93 388.89 252.37 383.05 251.9 377.7C251.5 373.25 251.27 368.31 254.42 364.87C255.56 365.11 256.69 365.35 257.83 365.6C258.85 365.41 259.95 365.5 260.95 365.81C261.65 366.02 262.3 366.34 262.92 366.71C264.11 366.97 265.29 367.23 266.48 367.49C266.39 367.63 265.74 368.75 265.66 368.89C268.63 371.76 270.81 375.33 271.98 379.13C272.42 380.53 272.71 381.96 272.86 383.4C273.41 388.86 270.09 393.11 268.7 398.34" id="a4CKIfKlK"></path><path d="M213.58 445.96C213.54 445.91 213.51 445.86 213.47 445.81C213.37 445.67 213.26 445.55 213.16 445.43C213.16 445.43 213.16 445.43 213.16 445.43C213.26 445.55 213.37 445.67 213.47 445.81C213.51 445.86 213.54 445.91 213.58 445.96" id="dfgZfdSXl"></path><path d="M218.16 450.22C216.09 449.24 214.87 447.68 213.58 445.96C213.54 445.91 213.51 445.86 213.47 445.81C213.37 445.67 213.26 445.55 213.16 445.43C212.65 444.88 212.04 444.5 211.4 444.02C210.87 443.61 210.56 443.12 210.39 442.56C210.32 442.31 210.28 442.05 210.27 441.77C210.26 441.68 210.26 441.6 210.26 441.51C210.26 440.19 210.8 438.92 211.69 437.88C212.83 436.51 214.4 435.44 215.82 434.31C217.29 433.15 218.77 431.96 220.17 430.72C223.04 428.17 225.59 425.4 227.88 422.41C230.22 419.36 232.35 416.18 234.71 413.14C236.98 410.21 239.52 407.59 242.54 405.26C245.27 403.15 248.7 401.16 250.36 398.18C251.09 396.87 251.45 395.4 251.98 394.02C252.69 392.15 252.94 390.18 252.94 388.17C252.94 384.69 252.2 381.09 251.9 377.7C251.78 376.35 251.68 374.96 251.67 373.58C251.67 372.01 251.81 370.45 252.21 368.99C252.96 369.19 253.75 369.3 254.54 369.39C254.76 370.05 255.05 370.69 255.42 371.31C255.72 371.82 256.08 372.31 256.47 372.77C255.7 375.53 255.89 378.63 256.15 381.52C256.62 386.87 258.18 392.71 256.22 397.84C255.7 399.22 255.34 400.7 254.6 402C252.94 404.99 249.52 406.97 246.78 409.08C243.76 411.41 241.22 414.04 238.95 416.96C236.6 420 234.47 423.18 232.13 426.23C229.84 429.22 227.29 431.99 224.42 434.54C223.01 435.78 221.54 436.97 220.06 438.13C218.64 439.26 217.08 440.34 215.93 441.7C214.99 442.81 214.43 444.18 214.51 445.59C214.56 446.48 214.88 447.26 215.65 447.84C216.42 448.43 217.16 448.87 217.72 449.63C217.87 449.83 218.01 450.03 218.16 450.22" id="a4LLqYD9iN"></path><path d="M268.7 398.34C267.68 402.16 267.71 406.12 264.52 409.25C263.75 410.02 262.83 410.67 261.9 411.28C260.97 405.55 263.79 401.9 263.73 396.28C263.67 390.57 258.14 387.98 257.41 383.05C257.18 381.46 256.96 379.88 256.75 378.3C256.24 374.33 255.56 369.59 261.24 371.42C262.04 371.68 262.83 372.01 263.61 372.4C266.78 373.98 269.71 376.54 271.98 379.13C272.42 380.53 272.71 381.96 272.86 383.4C273.41 388.86 270.09 393.11 268.7 398.34" id="d2FTPHD753"></path><path d="M253.87 366.16C254.06 367.95 254.47 369.71 255.42 371.31C256.19 372.61 257.29 373.73 258.44 374.76C260.02 376.18 261.78 377.42 263.33 378.86C264.83 380.24 265.97 381.86 267.02 383.53C269.4 387.32 271.61 391.23 274.4 394.8C275.65 396.4 277.25 397.73 278.51 399.31C279.24 400.22 279.36 401.33 279.97 402.28C280.7 403.4 281.83 404.19 282.22 405.49C282.48 406.4 282.47 407.36 282.14 408.26C281.84 409.06 281.39 409.82 281.08 410.62C280.73 411.49 280.49 412.38 280.3 413.29C279.95 414.93 279.75 416.59 279.57 418.25C278.99 423.2 278.41 428.15 277.86 433.11C277.62 435.22 277.41 437.33 277.31 439.46C277.22 441.04 277.11 442.74 277.5 444.3C277.81 445.52 278.53 446.37 278.02 447.66C277.59 448.73 276.72 449.56 276.16 450.57C275.45 451.91 275.32 453.49 275.11 454.93C274.98 455.84 274.61 457.28 275.21 458.15C275.85 459.07 277.56 458.79 278.54 458.65C280.66 458.35 282.79 457.91 284.81 457.26C286.61 456.67 288.31 455.87 289.92 454.94C291.39 454.09 293.25 453.09 294.13 451.68C294.85 450.51 294.73 449.04 294.79 447.76C294.86 445.96 295.53 444.3 295.81 442.53C296.47 438.53 295.73 434.44 296.34 430.42C296.66 428.31 297.28 426.27 297.68 424.18C298.06 422.19 297.98 420.22 298.03 418.21C298.06 416.74 298.28 415.34 298.87 413.97C299.48 412.53 300.46 411.17 300.64 409.61C300.84 407.84 300.49 405.94 300.27 404.19C300.02 402.21 299.71 400.2 299.02 398.31C298.3 396.35 297.03 394.61 296.19 392.69C295.23 390.51 294.49 388.25 293.68 386.02C292.18 381.9 290.3 377.93 288.55 373.91C287.71 371.98 286.99 370 286.1 368.08C285.62 367.02 285.09 366.06 284.17 365.27C283.37 364.59 282.87 363.93 282.45 363.01C280.54 363.22 271.02 364.27 253.87 366.16" id="eJJGXmKon"></path><path d="M276.95 458.8C276.25 458.8 275.57 458.66 275.21 458.15C274.96 457.79 274.88 457.32 274.88 456.84C274.88 456.17 275.04 455.46 275.11 454.93C275.32 453.49 275.45 451.91 276.16 450.57C276.72 449.56 277.59 448.73 278.02 447.66C278.15 447.34 278.2 447.05 278.2 446.77C278.2 445.93 277.73 445.22 277.5 444.3C277.29 443.44 277.23 442.55 277.23 441.66C277.23 440.92 277.27 440.18 277.31 439.46C277.41 437.33 277.62 435.22 277.86 433.11C278.41 428.15 278.99 423.2 279.57 418.25C279.75 416.59 279.95 414.93 280.3 413.29C280.49 412.38 280.73 411.49 281.08 410.62C281.39 409.82 281.84 409.06 282.14 408.26C282.32 407.77 282.4 407.27 282.4 406.76C282.4 406.34 282.34 405.91 282.22 405.49C281.83 404.19 280.7 403.4 279.97 402.28C279.36 401.33 279.24 400.22 278.51 399.31C277.25 397.73 275.65 396.4 274.4 394.8C273.39 393.51 272.46 392.17 271.56 390.81C269.99 388.41 268.54 385.95 267.02 383.53C265.97 381.86 264.83 380.24 263.33 378.86C261.78 377.42 260.02 376.18 258.44 374.76C257.8 374.18 257.17 373.58 256.6 372.93C256.16 372.42 255.76 371.88 255.42 371.31C255.05 370.69 254.76 370.05 254.54 369.39C254.66 369.4 254.78 369.42 254.9 369.43C254.9 369.43 254.9 369.43 254.9 369.43C257.86 369.76 260.25 370.11 262.53 370.26C262.68 370.62 262.86 370.97 263.06 371.31C263.84 372.61 264.94 373.73 266.09 374.76C267.67 376.18 269.43 377.42 270.98 378.86C272.48 380.24 273.62 381.86 274.67 383.53C277.05 387.32 279.26 391.23 282.05 394.8C283.3 396.4 284.9 397.73 286.16 399.31C286.89 400.22 287.01 401.33 287.62 402.28C288.35 403.4 289.48 404.19 289.87 405.49C290.13 406.4 290.11 407.36 289.78 408.26C289.49 409.06 289.04 409.82 288.73 410.62C288.38 411.49 288.13 412.38 287.95 413.29C287.6 414.93 287.4 416.59 287.21 418.25C286.64 423.2 286.06 428.15 285.51 433.11C285.27 435.22 285.06 437.33 284.96 439.46C284.87 441.04 284.76 442.74 285.15 444.3C285.46 445.52 286.18 446.37 285.67 447.66C285.24 448.73 284.36 449.56 283.81 450.57C283.1 451.91 282.97 453.49 282.76 454.93C282.65 455.75 282.34 456.97 282.7 457.85C281.34 458.18 279.96 458.45 278.57 458.64C278.56 458.64 278.55 458.64 278.54 458.65C278.1 458.71 277.52 458.8 276.95 458.8" id="c1P7HCs3oS"></path><path d="M252.52 289.57C251.74 290.28 250.98 291 250.25 291.75C247.15 294.93 245.11 298.67 244.31 302.85C243.51 307 244.11 311.13 245 315.22C245.96 319.62 247.04 324.01 247.97 328.41C248.85 332.56 249.49 336.74 249.96 340.94C250.44 345.27 249.43 349.15 249.46 353.47C249.49 356.46 248.04 359.23 248.27 362.2C248.42 364.29 248.73 367.39 250.96 368.52C252.15 369.12 253.55 369.28 254.9 369.43C262.22 370.24 266.12 371.21 273.18 368.95C276.5 367.9 280.34 367.72 283.47 366.23C284.63 365.67 285.35 365.39 285.67 364.19C285.8 363.7 285.49 361.3 284.61 361.31C285.94 361.29 286.67 359.74 286.24 358.61C285.61 356.96 284.2 356.41 283.69 354.68C283.04 352.46 283.15 349.87 282.91 347.59C282.8 346.5 281.89 337.8 281.78 336.71C280.96 331.02 280.19 325.32 279.24 319.64C278.28 313.87 277.51 307.95 275.6 302.36C274.6 299.46 273.04 297 270.92 294.64C269.7 294.31 263.56 292.62 252.52 289.57" id="b4CNyWPUlF"></path><path d="M264.76 370.34C261.78 370.34 258.83 369.86 254.9 369.43C254.9 369.43 254.9 369.43 254.9 369.43C253.55 369.28 252.15 369.12 250.96 368.52C250.79 368.43 250.63 368.33 250.48 368.22C248.69 366.92 248.41 364.13 248.27 362.2C248.25 361.98 248.24 361.77 248.24 361.56C248.25 358.85 249.46 356.29 249.46 353.54C249.46 353.51 249.46 353.49 249.46 353.47C249.46 353.4 249.46 353.33 249.46 353.26C249.46 349.86 250.09 346.72 250.09 343.41C250.09 342.6 250.05 341.78 249.96 340.94C249.49 336.74 248.85 332.56 247.97 328.41C247.88 327.97 247.78 327.52 247.68 327.07C246.82 323.12 245.86 319.18 245 315.22C244.11 311.13 243.51 307 244.31 302.85C245.11 298.67 247.15 294.93 250.25 291.75C250.98 291 251.74 290.28 252.52 289.57C253.01 289.71 256.9 290.78 257.39 290.91C257.1 291.19 256.81 291.46 256.54 291.75C255.69 292.62 254.92 293.53 254.23 294.49C253.78 294.41 253.33 294.37 252.9 294.37C252.46 294.37 252.03 294.41 251.62 294.5C251.53 294.51 251.45 294.53 251.36 294.56C251.36 294.56 251.36 294.56 251.36 294.56C246.59 295.76 245.55 299.42 245.55 303.15C245.55 304.29 245.65 305.44 245.76 306.52C245.97 308.4 246.22 310.23 246.78 312.05C247.4 314.06 248.13 316.04 248.73 318.06C248.78 318.22 248.82 318.38 248.86 318.54C248.76 318.82 248.67 319.22 248.61 319.73C248.11 323.98 250.54 329.35 251.53 333.51C252.33 336.89 253.25 340.46 255.95 342.91C256.09 343.04 256.23 343.16 256.38 343.28C256.39 346.71 255.73 349.94 255.75 353.47C255.77 356.46 254.33 359.23 254.55 362.2C254.71 364.29 255.02 367.39 257.25 368.52C258.44 369.12 259.84 369.28 261.19 369.43C263.67 369.7 265.76 369.99 267.71 370.17C266.7 370.29 265.73 370.34 264.76 370.34" id="a6BFqMcDuo"></path><path d="M251.53 333.51C252.33 336.89 253.25 340.46 255.95 342.91C257.96 344.74 260.71 345.72 263.37 346.64C269.51 348.77 275.65 350.9 281.79 353.03C281.61 349.44 281.43 345.85 281.25 342.27C273.67 339.7 266.73 335.67 260.94 330.59C258.02 328.02 255.4 325.19 253.14 322.14C251.98 320.59 249.17 314.96 248.61 319.73C248.11 323.98 250.54 329.35 251.53 333.51" id="a3KbjNqsNh"></path><path d="M269.65 316.11C270.65 322.43 268.63 329.01 270.36 335.2C270.07 334.17 267.84 332.56 267.11 331.62C266.1 330.31 265.2 328.94 264.41 327.51C262.81 324.61 261.67 321.5 261.04 318.31C260.4 315.12 260.27 311.85 260.67 308.63C260.91 306.73 261.96 300.56 264.75 304.18C267.29 307.48 269.02 312.18 269.65 316.11" id="b2dzWzHifE"></path><path d="M275.99 458.68C275.47 460.52 275.38 462.84 275.97 464.68C276.54 466.46 278.61 466.44 280.33 466.51C286.52 466.76 292.75 466.64 298.95 466.61C302.33 466.59 305.71 466.62 309.09 466.46C310.62 466.39 313.37 466.52 314.37 465.14C315.21 463.98 314.79 462.02 314.34 460.82C314.02 459.98 313.55 459.46 312.58 459.24C311.3 458.94 309.91 458.93 308.6 458.81C306.39 458.59 304.29 458.16 302.44 457C300.26 455.64 298.6 453.78 296.22 452.65C295.53 452.32 294.84 452.02 294.14 451.71" id="b7zFM1Fn7P"></path><path d="M332.38 313.32C332.42 313.47 332.37 313.67 332.39 313.89C332.42 314.33 332.45 314.76 332.48 315.2C332.57 316.57 333.3 327.57 333.39 328.94C333.57 331.62 333.75 334.31 333.92 336.99C334.21 341.31 334.49 345.61 334.78 349.92C334.85 350.91 334.91 351.9 334.98 352.89C327.87 353.27 320.76 353.65 313.65 354.03C312.66 354.08 311.67 354.13 310.69 354.19C309.44 354.25 299.46 354.79 298.21 354.86C293.28 355.12 288.34 355.39 283.41 355.65C283.37 355.66 283.01 355.67 282.97 355.68C282.24 355.72 281.51 355.76 280.79 355.79C280.49 351.31 280.19 346.83 279.9 342.36C279.43 335.21 278.96 328.08 278.48 320.94C278.37 319.29 278.27 317.65 278.15 316.01C278.2 316.09 279.6 315.93 279.72 315.93C281.15 315.85 282.58 315.77 284.01 315.7C288.61 315.46 293.22 315.21 297.82 314.96C303.27 314.67 308.73 314.38 314.18 314.09C318.61 313.85 323.04 313.61 327.47 313.37C328.74 313.3 330.01 313.24 331.28 313.17C331.52 313.16 331.94 313.06 332.17 313.12C332.3 313.16 332.36 313.23 332.38 313.32" id="j4ECY2f5Mp"></path><path d="M333.3 313.42L278.66 315.87L280.82 355.01L335.46 352.56L333.3 313.42" id="c2g6sM31FY"></path><path d="M311.19 338.66L303.44 339.01L302.11 314.82L309.85 314.47L311.19 338.66" id="b56GvgIFL9"></path><path d="M333.19 313.55C333.22 313.7 333.17 313.9 333.19 314.13C333.22 314.56 333.25 314.99 333.28 315.43C333.37 316.8 334.11 327.8 334.2 329.17C334.37 331.85 334.55 334.54 334.73 337.22C335.02 341.54 335.3 345.84 335.59 350.15C335.65 351.14 335.71 352.13 335.78 353.12C328.67 353.5 321.56 353.88 314.46 354.26C313.47 354.31 312.48 354.36 311.49 354.42C310.24 354.48 300.26 355.02 299.01 355.09C294.08 355.35 289.15 355.62 284.22 355.88C283.99 355.88 282.84 355.85 280.79 355.79L328.88 348.89L332.08 313.4L333.19 313.55" id="b1KaXgWIjE"></path><path d="M332.03 349.24L323.72 349.61L323.3 342.13L331.62 341.76L332.03 349.24" id="b4J0QhA690"></path><path d="M320.77 344.93L312.45 345.3L312.39 344.14L320.7 343.77L320.77 344.93" id="b93h3nqaF"></path><path d="M320.92 347.65L312.6 348.02L312.54 346.86L320.85 346.49L320.92 347.65" id="gDVqeHYan"></path><path d="M306.94 344.78C305.77 344.8 304.61 345.13 303.41 345.16C300.67 345.22 298.26 343.85 295.89 342.81C287.76 339.27 279.14 335.92 271.58 331.44C269.68 330.32 263.63 317.93 264.65 317.76C260.09 318.52 255.53 319.28 250.97 320.04C252.86 325.78 253.53 336.62 260.73 339.32C266.38 341.44 271.97 343.84 277.7 345.76C283.77 347.79 290.26 348.52 296.36 350.5C301.12 352.05 304.79 356.57 310.08 356.62C311.12 356.63 312.15 356.5 313.18 356.37C314.27 356.23 315.36 356.09 316.44 355.95C317.01 355.88 317.59 355.8 318.08 355.55C318.57 355.29 318.96 354.81 318.9 354.3C318.36 354.37 316.88 352.89 316.17 352.67C314.6 352.19 313.28 351.72 312.7 350.29C313.5 352.46 316.79 351.74 318.46 351.09C315.77 349.03 311.71 345.77 308.26 344.92C307.82 344.81 307.38 344.77 306.94 344.78" id="cf2weGPYs"></path><path d="M317.57 351.39C317.36 351.19 317.17 350.97 317.02 350.71C317.2 350.99 317.43 351.19 317.7 351.35C317.69 351.35 317.65 351.36 317.57 351.39" id="aheIsdh2Q"></path><path d="M307.35 345.16C306.68 345.16 306.04 345.07 305.41 344.93C305.92 344.86 306.43 344.79 306.94 344.78C306.98 344.78 307.02 344.78 307.05 344.78C307.45 344.78 307.85 344.82 308.26 344.92C308.41 344.95 308.56 345 308.71 345.05C308.32 345.1 307.92 345.15 307.51 345.16C307.46 345.16 307.4 345.16 307.35 345.16" id="b1xA8JwjiB"></path><path d="M310.19 356.62C310.15 356.62 310.11 356.62 310.08 356.62C307.9 356.6 306 355.82 304.19 354.81C304.19 354.81 304.19 354.81 304.19 354.81C306 355.82 307.9 356.6 310.08 356.62C310.11 356.62 310.15 356.62 310.18 356.62C310.66 356.62 311.13 356.59 311.6 356.55C311.13 356.59 310.66 356.62 310.19 356.62" id="f4AcyoAtk"></path><path d="M310.18 356.62C310.15 356.62 310.11 356.62 310.08 356.62C307.9 356.6 306 355.82 304.19 354.81C303.13 354.22 302.09 353.54 301.05 352.88C299.54 351.94 298.01 351.04 296.36 350.5C296.26 350.47 296.16 350.44 296.07 350.41C290.06 348.5 283.68 347.76 277.7 345.76C277.7 345.76 277.7 345.76 277.7 345.76C271.97 343.84 266.38 341.44 260.73 339.32C254.78 337.09 253.29 329.3 251.89 323.43C252.2 323.28 252.5 323.12 252.8 322.98C252.8 322.98 252.8 322.97 252.8 322.97C252.87 322.94 252.94 322.91 253.02 322.88C253.87 322.51 254.75 322.24 255.64 322.04C257.18 328 258.4 336.91 264.83 339.32C270.49 341.44 276.07 343.84 281.8 345.76C287.87 347.79 294.37 348.52 300.46 350.5C304.71 351.88 308.09 355.62 312.53 356.45C312.22 356.49 311.91 356.52 311.6 356.55C311.13 356.59 310.66 356.62 310.18 356.62" id="c1nmc0FsmC"></path><path d="M266.09 304.02C266.22 304.54 266.33 305.05 266.45 305.57C267.24 309.27 266.41 313.01 266.43 316.73C266.44 317.74 266.55 318.75 266.66 319.76C266.71 320.24 266.79 320.75 266.71 321.23C266.5 322.47 264.82 322.07 263.85 321.92C260.2 321.37 256.43 321.43 253.02 322.88C252.32 323.17 251.59 323.66 250.82 323.79C250.13 323.92 249.93 323.46 249.79 322.93C249.37 321.32 249.21 319.67 248.73 318.06C248.13 316.04 247.4 314.06 246.78 312.05C246.22 310.23 245.97 308.4 245.76 306.52C245.26 301.9 245.13 296.13 251.36 294.56C256.61 293.23 265.01 299.47 266.09 304.02" id="c7IrHBSRwD"></path><path d="M250.6 323.81C250.6 323.81 250.6 323.81 250.6 323.81C250.6 323.81 250.6 323.81 250.6 323.81C250.6 323.81 250.6 323.81 250.6 323.81M250.6 323.81C250.67 323.81 250.74 323.81 250.82 323.79C250.82 323.79 250.82 323.79 250.82 323.79C250.82 323.79 250.82 323.79 250.82 323.79C250.74 323.81 250.67 323.81 250.6 323.81M250.91 323.77C251.24 323.71 251.57 323.57 251.88 323.42C251.88 323.42 251.88 323.43 251.89 323.43C251.57 323.57 251.24 323.71 250.91 323.77" id="bcYXudlJ"></path><path d="M251.36 294.56C251.45 294.53 251.53 294.51 251.62 294.5C251.53 294.51 251.45 294.53 251.36 294.56" id="bF8JDyQIw"></path><path d="M251.89 323.43C251.88 323.43 251.88 323.42 251.88 323.42C252.19 323.28 252.5 323.11 252.8 322.97C252.8 322.97 252.8 322.98 252.8 322.98C252.5 323.12 252.2 323.28 251.89 323.43" id="bmri1aLZm"></path><path d="M250.6 323.81C250.6 323.81 250.6 323.81 250.6 323.81C250.1 323.81 249.92 323.41 249.8 322.96C249.79 322.95 249.79 322.94 249.79 322.93C249.41 321.48 249.25 320 248.86 318.54C248.82 318.38 248.78 318.22 248.73 318.06C248.13 316.04 247.4 314.06 246.78 312.05C246.22 310.23 245.97 308.4 245.76 306.52C245.65 305.44 245.55 304.29 245.55 303.15C245.55 299.42 246.59 295.76 251.36 294.56C251.36 294.56 251.36 294.56 251.36 294.56C251.45 294.53 251.53 294.51 251.62 294.5C252.03 294.41 252.45 294.38 252.89 294.38C253.4 294.38 253.93 294.43 254.48 294.53C254.47 294.53 254.37 294.55 254.35 294.56C248.12 296.13 248.25 301.9 248.76 306.52C248.96 308.4 249.22 310.23 249.78 312.05C250.39 314.06 251.12 316.04 251.72 318.06C252.21 319.67 252.37 321.32 252.78 322.93C252.79 322.94 252.79 322.97 252.8 322.97C252.5 323.11 252.19 323.28 251.88 323.42C251.88 323.42 251.88 323.42 251.88 323.42C251.57 323.57 251.24 323.71 250.91 323.77C250.88 323.78 250.85 323.79 250.82 323.79C250.82 323.79 250.82 323.79 250.82 323.79C250.74 323.81 250.67 323.81 250.6 323.81C250.6 323.81 250.6 323.81 250.6 323.81" id="b1lDIbm5O3"></path><path d="M252.95 267.83C254.89 267.1 259.67 266.25 260.29 266.35C261.68 266.58 263.06 267.08 264.44 266.86C265.67 266.66 266.82 265.81 267.98 265.38C269.83 264.7 271.72 264.47 273.68 264.19C276.34 263.82 278.72 263.69 281.3 264.6C281.68 264.74 282.08 264.89 282.48 264.79C283.76 264.48 283.37 261.35 283.09 260.56C282.5 258.89 280.76 257.11 279.47 255.83C276.69 253.07 272.94 251.06 268.7 251.06C264.4 251.06 259.59 252.13 256.35 254.98C252.96 257.95 250.16 264.31 252.15 268.41C252.07 268.24 252.39 268.04 252.95 267.83" id="bfYj2PEM2"></path><path d="M265.78 266.35C265.47 266.3 264.07 266.5 262.52 266.8C263.16 266.91 263.8 266.96 264.44 266.86C264.94 266.78 265.42 266.59 265.89 266.37C265.88 266.37 265.85 266.36 265.78 266.35" id="a10fQQL4jN"></path><path d="M252.13 268.37C252.13 268.37 252.13 268.36 252.13 268.36C252.13 268.36 252.13 268.37 252.13 268.37M268.81 251.06L268.81 251.06L268.81 251.06M268.8 251.06C268.8 251.06 268.79 251.06 268.79 251.06C268.79 251.06 268.8 251.06 268.8 251.06M268.77 251.06C268.77 251.06 268.76 251.06 268.76 251.06C268.76 251.06 268.77 251.06 268.77 251.06M268.75 251.06C268.74 251.06 268.74 251.06 268.73 251.06C268.74 251.06 268.74 251.06 268.75 251.06M268.73 251.06C268.72 251.06 268.71 251.06 268.7 251.06C268.71 251.06 268.72 251.06 268.73 251.06" id="b2zTeHAJPr"></path><path d="M252.15 268.41C251.69 267.46 251.48 266.4 251.48 265.28C251.48 261.56 253.74 257.27 256.35 254.98C259.59 252.13 264.39 251.06 268.7 251.06C268.7 251.06 268.7 251.06 268.7 251.06C268.7 251.06 268.7 251.06 268.7 251.06C268.71 251.06 268.72 251.06 268.73 251.06C268.73 251.06 268.73 251.06 268.73 251.06C268.74 251.06 268.74 251.06 268.75 251.06C268.75 251.06 268.75 251.06 268.76 251.06C268.76 251.06 268.77 251.06 268.77 251.06C268.78 251.06 268.78 251.06 268.79 251.06C268.79 251.06 268.8 251.06 268.8 251.06C268.8 251.06 268.81 251.06 268.81 251.06C268.81 251.06 268.81 251.06 268.81 251.06C269.56 251.07 270.29 251.14 271.01 251.26C267.65 251.68 264.29 252.82 261.84 254.98C258.87 257.58 256.35 262.78 257.11 266.78C255.59 267.07 253.92 267.47 252.95 267.83C252.45 268.02 252.13 268.2 252.13 268.36C252.13 268.36 252.13 268.37 252.13 268.37C252.14 268.38 252.14 268.4 252.15 268.41" id="c8ZIZeo8s"></path><path d="M279.57 264.14C280.14 264.25 280.71 264.4 281.3 264.6C281.68 264.74 282.08 264.89 282.48 264.79C282.85 264.7 283.08 264.37 283.21 263.93C282.02 263.88 280.83 263.98 279.57 264.14" id="b15eJp1Vey"></path><path d="M272.89 254.02C275.5 253.5 278.16 255.13 279.45 257.23C280.74 259.34 280.96 261.82 281.16 264.21C281.12 263.65 269.04 265.15 268.25 265.21C266.71 261.7 268.03 254.99 272.89 254.02" id="c1SMzgFuM1"></path><path d="M265.34 266.91C265.06 266.91 264.78 266.88 264.51 266.84C263.65 266.71 262.81 266.12 262.75 265.34C262.57 262.73 270.6 261.62 272.45 261.41C277.02 260.9 281.58 261.4 286.01 262.41C286.99 262.63 288.01 262.95 288.58 263.69C290.68 266.45 284.91 266.03 283.56 265.99C279.71 265.88 275.87 265.86 272.02 266.06C269.97 266.17 267.47 266.96 265.34 266.91" id="e47xRH0Pj9"></path><path d="M283.56 264.52C279.71 264.41 275.87 264.39 272.02 264.59C268.59 264.76 265.25 265.86 261.99 266.72C265.44 266.74 268.62 266.2 272.02 266.06C275.87 265.86 279.71 265.88 283.56 265.99C284.88 266.03 290.39 266.42 288.73 263.9C287.71 264.76 284.52 264.55 283.56 264.52" id="i45REapQZ"></path><path d="M256 365.98C263.59 368.03 271.91 367.84 279.38 365.44C281.92 364.6 283.11 363.32 284.94 361.53C281.26 362.59 277.4 363.82 273.62 364.49C268.83 365.34 260.78 367.27 256 365.98" id="cySznWflA"></path><path d="M316.69 354.94C315.15 354.46 313.55 353.99 311.96 353.68C311.56 353.6 311.24 354.16 311.66 354.32C313.2 354.9 314.83 355.36 316.43 355.79C317.04 355.95 317.28 355.12 316.69 354.94" id="a3upIwNpdE"></path><path d="M313.11 356.25C311.67 355.7 310.04 355.4 308.53 355.09C308.18 355.02 308.05 355.46 308.38 355.57C309.81 356.05 311.32 356.6 312.82 356.85C313.2 356.91 313.52 356.41 313.11 356.25" id="a1BmxbvyUa"></path><path d="M403.41 315.73C402.16 318.05 400.89 320.43 400.51 322.99C400.13 325.55 400.79 328.38 402.9 330.14C406.39 333.03 412.38 331.73 415.56 328.57C418.74 325.41 419.85 321.03 420.83 316.86C422.38 310.31 423.93 303.76 425.48 297.21C426.31 293.67 430.05 286.84 423.92 286.94C418.86 287.02 415.86 292.62 414.07 295.92C410.5 302.51 406.97 309.12 403.41 315.73" id="bhe0vWKE3"></path><path d="M405.08 318.67C404.18 318.3 403.28 317.92 402.41 317.52C398.22 315.59 394.41 313.11 390.3 311.07C387.68 309.84 385.09 308.52 382.48 307.25C380.53 306.31 378.17 304.36 376.02 303.97C375.56 305.46 376.31 306.93 377.28 308.1C373.4 308.57 369.52 309.25 365.58 309.63C364.98 311.09 365.61 312.8 366.85 313.89C368.08 314.98 369.82 315.51 371.54 315.65C376.02 316.02 380.76 314.18 385.14 315.57C388.08 316.5 390.46 319.43 392.72 321.32C395.99 324.06 399.25 326.73 402.72 329.25C405.21 328.63 406.24 327.3 406.79 325.03C407.34 322.76 407.43 319.64 405.08 318.67" id="c6wLxtEpr"></path><path d="M442.58 444.34C444 446.9 449.09 455.89 445.65 458.19C445.16 458.51 444.58 458.7 444.01 458.89C442.75 459.29 441.49 459.7 440.23 460.11C432.58 462.6 425.81 463.55 417.74 464.13C416.96 464.18 416.1 464.22 415.5 463.78C412.73 461.77 418.32 461.26 419.21 460.87C421.69 459.79 424.1 457.07 425.93 455.26C428.37 452.85 430.59 450.53 432.31 447.65C433.4 445.82 432.68 445.88 434.51 444.74C434.99 444.44 441.72 442.83 441.75 442.89C442.02 443.35 442.3 443.84 442.58 444.34" id="a1onOoN58s"></path><path d="M411.14 361.73C411.15 361.06 411.16 360.39 411.18 359.72C413.58 357.83 432.84 342.66 435.25 340.76C435.81 341.54 436.33 342.35 436.81 343.18C438.8 346.59 439.88 350.34 440.01 354.19C440.13 357.69 439.46 361.14 438.5 364.52C437.39 368.4 436.15 372.25 435.25 376.17C434.27 380.43 433.46 384.78 432.06 388.95C430.95 392.25 429.33 395.37 429.52 398.89C429.59 400.36 429.76 401.93 430.34 403.32C430.93 404.72 432 405.9 432.99 407.08C435.4 409.95 437.65 412.85 439.3 416.15C441.02 419.59 441.75 423.14 442.09 426.88C442.46 430.85 442.58 434.94 443.6 438.84C443.95 440.17 444.69 441.36 445.08 442.68C445.39 443.75 445.34 444.9 445.18 445.99C444.14 446.21 435.77 447.97 434.72 448.19C434.26 447.19 433.89 446.16 433.7 445.09C433.47 443.78 433.58 442.44 433.38 441.12C432.94 438.11 431.67 435.41 430.13 432.73C428.33 429.6 426.54 426.47 424.97 423.24C423.54 420.29 422.32 417.2 420.45 414.45C418.67 411.8 416.09 409.81 413.87 407.49C412.53 406.09 411.56 404.59 411.34 402.73C411.15 401.18 411.35 399.6 411.43 398.05C411.5 396.72 411.48 395.39 411.43 394.06C411.29 390.25 411.14 386.44 411.08 382.63C410.94 375.36 412.18 367.25 410.89 360.16C409.65 353.41 408.27 347.63 414.22 342C419.67 336.85 429.04 335.5 436.01 338.85C436.53 340.07 435.97 341.58 434.75 342.28" id="aKBqkM8wO"></path><path d="M430.59 449.05C431.35 451.82 434.13 461.59 430.21 463.16C429.66 463.38 429.05 463.45 428.45 463.52C427.12 463.67 425.78 463.82 424.45 463.97C417.29 464.77 410.34 464.98 403.13 465.05C399.78 465.08 395.21 463.52 400.8 461.67C404.63 460.4 408.36 458.52 411.69 456.42C414.65 454.54 417.38 452.72 419.76 450.25C421.27 448.68 420.56 448.6 422.62 447.85C423.16 447.65 430.11 447.4 430.13 447.47C430.28 447.97 430.44 448.5 430.59 449.05" id="b59lE9tkOO"></path><path d="M425.77 341.14C430.5 338.3 439.87 336.88 444.72 340.48C449.73 344.2 446.46 349.92 445.2 355.58C441.82 370.81 433.73 382.54 427.93 396.6C424.86 404.05 429.95 409.7 431.68 416.7C434.07 426.32 430.89 435.87 431.28 445.45C431.32 446.56 430.99 447.67 430.57 448.71C429.5 448.72 420.9 448.77 419.83 448.78C419.62 447.72 419.51 446.63 419.59 445.56C419.69 444.23 420.12 442.94 420.25 441.62C420.55 438.59 419.97 435.71 419.12 432.8C417.39 426.85 415.93 419.81 413.67 413.61C411.18 406.8 408.64 403.14 409.5 395.83C410.85 384.29 415.49 373.43 417.52 362.04C418.89 354.36 417.57 346.06 425.77 341.14" id="a6TgUER4tS"></path><path d="M414.26 350.43C417.57 353.8 421.96 356.36 426.82 357.37C431.69 358.39 437.01 357.79 441.28 355.46C442.87 354.59 444.35 353.43 445.05 351.88C445.75 350.33 445.47 348.34 444.03 347.29C442.9 346.48 441.37 346.37 439.93 346.3C430.2 345.8 420.46 345.3 410.72 344.8C411.09 349.2 415.11 353.15 419.96 353.86" id="gYnYLL9EU"></path><path d="M418.77 278.87C422.8 280.92 427.75 279.3 432.26 278.96C433.08 278.87 432.15 275.1 432.01 274.71C430.79 271.39 429.54 268 427.2 265.21C425.34 262.99 423.82 260.62 421.39 258.8C420.75 258.33 412.87 254.51 412.84 255.01C412.59 259.15 413.25 263.1 413.82 267.24C414.28 270.55 414.02 274.94 416.89 277.57C417.49 278.11 418.12 278.54 418.77 278.87" id="b40uKMhMui"></path><path d="M420.55 245.77C425.09 243.96 430.79 243.73 434.67 245.37C442.17 248.51 442.9 255.02 444.01 261.52C444.54 264.58 448.19 274.17 445.55 276.65C444.88 277.28 443.9 277.51 442.97 277.72C440.32 278.32 437.68 278.92 435.03 279.52C433.15 279.94 431.2 280.37 429.28 280.09C424.74 279.43 424.46 276.23 422.89 273.24C421.05 269.73 418.02 266.64 416.14 263.08C414.15 259.33 411.88 254.1 414.58 250.17C415.89 248.25 418.05 246.77 420.55 245.77" id="d163ZZVD22"></path><path d="M444.79 331.89C444.79 332.77 444.82 333.64 444.87 334.52C445.19 340.07 450.35 344.44 444.1 349.34C441.05 351.74 436.82 352.53 432.77 352.68C421.04 353.14 402.88 349.94 408 336.79C410.43 330.57 411.42 322.23 410.84 315.66C410.53 312.21 409.74 308.79 409.6 305.33C409.34 298.74 413.04 295.9 416.38 290.68C419.22 286.24 422.47 282.73 428.24 281.48C431.32 280.82 434.81 280.92 437.95 280.85C441.03 280.78 443.27 281.65 445.28 283.76C448.24 286.87 446.7 290.11 446.3 294.06C445.42 302.89 445.38 311.77 445.18 320.64C445.1 324.35 444.77 328.15 444.79 331.89" id="b1P0NzhRVj"></path><path d="M433.23 309.44C433.72 311.22 434.85 312.81 435.97 314.36C439.82 319.7 443.67 325.04 447.52 330.39C447.83 321.94 447.29 313.46 445.93 305.1C445.59 303.05 445.17 300.94 443.86 299.23C437.65 291.16 431.93 304.74 433.23 309.44" id="c3wcFh1oVu"></path><path d="M439.23 332.74C438.81 333.55 438.39 334.35 437.93 335.14C436.04 338.4 433.66 341.45 431.08 344.29C426.31 349.52 421.25 354.64 418.34 360.8C418.08 361.35 421.28 360.32 421.45 360.23C422.6 359.61 423.45 357.93 424.2 356.98C423.55 360.96 421.81 364.5 420.29 368.27C419.89 369.28 427.41 366.61 428.29 365.61C430.65 362.93 431.99 358.82 432.98 355.57C433.34 354.35 433.6 353.13 434.3 352.02C436.21 348.95 439.4 346.42 442.06 343.9C445.13 340.98 448.13 338.07 450.97 334.97C450.3 332.73 448.83 331.79 446.31 331.27C443.79 330.76 440.33 330.64 439.23 332.74" id="fUV99Gobr"></path><path d="M441.93 315.36C442.37 317.09 442.93 318.8 443.46 320.51C443.76 321.49 444.17 322.52 444.21 323.54C444.25 324.7 443.25 325.97 442.65 326.94C441.83 328.25 440.86 329.44 439.92 330.68C439.52 331.19 438.36 332.46 439.47 332.82C440.57 333.18 442.14 332.8 443.24 332.72C445.14 332.58 447.35 332.42 449.02 333.44C449.3 333.61 449.56 333.81 449.82 334.02C450.15 334.3 450.76 335.08 451.3 335.08C451.73 335.08 451.99 334.64 452.19 334.36C452.68 333.66 453.13 332.95 453.62 332.25C454.91 330.39 456.32 328.46 456.69 326.25C457.14 323.52 456.54 320.54 456.23 317.81C455.85 314.43 455.51 311.04 454.81 307.7C454.5 306.21 454.1 304.72 454.05 303.2C454 301.65 454.15 300.1 454.08 298.55C453.96 295.99 453.16 293.6 451.84 291.33C450.44 288.91 448.55 286.48 446.01 284.94C444.9 284.27 443.68 283.74 442.42 283.35C441.74 283.14 440.89 282.89 440.17 283.05C438.99 283.31 439.02 284.77 438.86 285.63C438.47 287.76 437.06 289.3 436.48 291.28C435.4 294.98 435.57 298.61 437.43 301.98C439.87 306.42 440.72 310.56 441.93 315.36" id="bc8vOt6vu"></path><path d="M415.4 271.93C415.73 273.29 416.35 274.11 417.15 274.62C419.72 276.31 423.99 274.83 425.2 278.26C425.46 279.01 425.98 280.04 426.23 281.05C426.44 281.87 426.46 282.68 426.02 283.31C425.81 283.59 425.43 283.89 425.52 284.27C425.61 284.64 426.11 284.86 426.46 284.98C427.2 285.22 428.04 285.2 428.8 285.14C433.39 284.8 436.88 282.66 440.91 281.13C439.73 279.57 437.36 278.83 436.17 277.16C434.21 274.39 434.1 270.31 434.52 267.15C434.86 264.59 437.27 262.42 436.25 259.88C435.52 258.08 433.54 258.56 432.58 259.89C432.02 260.67 431.7 261.57 431.27 262.4C430.99 262.94 430.66 263.62 429.9 263.34C427.2 262.38 428.49 257.71 427.28 255.65C426.14 253.69 424.07 252.59 421.86 251.83C420.51 251.37 418.19 250.62 416.83 251.41C415.96 251.92 415.66 253.03 415.32 253.84C414.92 254.77 414.39 255.66 414.08 256.61C412.82 260.71 414.4 267.87 415.4 271.93" id="aoZJGT5Uv"></path><path d="M427.97 245.11C432.48 246.57 436.1 250.35 437.47 254.7C438.7 258.6 438.15 261.45 437.2 265.31C436.35 263.05 435.5 260.78 434.65 258.51C433.56 258.73 432.06 258.67 431.72 259.74C431.44 260.62 431.9 261.54 431.47 262.51C429.93 261.63 427.83 260.35 427.25 258.7C426.72 257.19 426.66 255.29 426.41 253.73C426.6 254.93 425.76 256.35 425.75 257.58C424.72 257.46 423.67 257.65 422.63 257.71C418.02 257.99 419.41 254.96 418.56 252.35C418.51 252.75 418.15 257.13 418.07 257.13C416.29 257.18 414.51 257.23 412.73 257.28C411.94 255.39 412 254.04 412.87 252.13C414.23 249.16 414.85 247.42 417.99 245.89C421.45 244.2 424.91 244.12 427.97 245.11" id="b1BHv0Exw0"></path><path d="M418.07 274.78C417.97 274.79 417.91 274.79 417.9 274.79C419.17 275.57 420.72 275.54 422.17 275.88C423.63 276.23 424.73 276.92 425.2 278.26C425.52 279.19 425.91 280.17 426.27 281.04C427.14 280.38 427.21 279.04 427.42 278.1C427.62 277.23 427.73 276.33 427.75 275.44C427.81 272.84 425.32 273.88 423.45 274.16C421.7 274.43 419.86 274.74 418.07 274.78" id="axL8EY0Rs"></path><path d="M416.09 264.41C418.62 264.1 424.16 264.79 426.32 265.09C426.29 265 426.3 264.9 426.39 264.83C427.93 263.56 429.51 262.34 431.13 261.15C431.53 260.86 432.11 261.36 431.7 261.67C430.13 262.87 428.51 264.04 426.87 265.16C427.08 265.19 427.2 265.21 427.2 265.21C428.58 267.78 427.83 271.02 427.29 272.66C428.84 271.89 430.29 271.33 431.53 270.08C432.95 268.65 433.33 267.11 434.05 265.38C434.16 265.14 434.57 265.16 434.58 265.45C434.71 268.66 430.66 272.83 427.12 273.16C426.99 273.51 426.9 273.72 426.9 273.72C426.9 273.72 422.98 277.86 417.9 274.79C412.82 271.72 413.62 265.98 413.62 265.98C413.62 265.98 412.91 264.81 416.09 264.41" id="h3OXxWIeIW"></path><path d="M376.82 313.42C376.48 312.69 375.73 312.07 375.17 311.47C374.54 310.79 373.9 310.11 373.27 309.42C372.96 309.09 372.45 309.56 372.75 309.89C372.81 309.96 372.87 310.02 372.93 310.09C370.42 310.14 367.8 310.64 365.38 311.1C365.07 311.16 365.13 311.64 365.46 311.62C368.05 311.44 370.88 311.26 373.39 310.59C373.8 311.05 374.21 311.5 374.63 311.96C375.18 312.57 375.71 313.32 376.44 313.76C376.7 313.92 376.92 313.63 376.82 313.42" id="b2SS3UYyS1"></path><path d="M374.42 311.99C371.92 312.01 369.34 312.63 366.87 313.01C366.42 313.08 366.61 313.69 367.06 313.63C369.5 313.3 372.14 313.16 374.5 312.48C374.79 312.4 374.74 311.99 374.42 311.99" id="dwj5fCR6U"></path><path d="M375.73 313.33C374.86 313.35 374 313.69 373.17 313.93C372.23 314.2 371.28 314.48 370.34 314.75C369.9 314.88 370.09 315.49 370.53 315.37C371.48 315.12 372.43 314.87 373.38 314.61C374.21 314.39 375.14 314.23 375.88 313.8C376.1 313.67 376.03 313.32 375.73 313.33" id="ayY1RVhgH"></path><path d="M426.21 360.65C425.39 360.73 424.37 363.1 422.43 367.87C422.32 368.15 422.81 368.32 422.96 368.07C424.35 365.84 425.92 363.31 426.71 360.84C426.8 360.56 426.51 360.63 426.21 360.65" id="i2HxHF1KyM"></path><path d="M428.41 361.24C427.64 363.54 427.02 365.54 425.13 367.35C424.84 367.64 425.3 368.06 425.61 367.78C427.44 366.15 429.11 363.7 428.92 361.3C428.9 361.04 428.5 360.97 428.41 361.24" id="a6LlhecdD"></path></defs><g><g><g><use xlink:href="#c3WQck2cW" opacity="1" fill="#a3e0e1" fill-opacity="1"></use><g><use xlink:href="#c3WQck2cW" opacity="1" fill-opacity="0" stroke="#000000" stroke-width="1" stroke-opacity="0"></use></g></g><g><use xlink:href="#a3Lk6EF0kK" opacity="1" fill="#72bccc" fill-opacity="1"></use><g><use xlink:href="#a3Lk6EF0kK" opacity="1" fill-opacity="0" stroke="#000000" stroke-width="1" stroke-opacity="0"></use></g></g><g><use xlink:href="#c1DfUhkCXj" opacity="1" fill="#72bccc" fill-opacity="1"></use><g><use xlink:href="#c1DfUhkCXj" opacity="1" fill-opacity="0" stroke="#000000" stroke-width="1" stroke-opacity="0"></use></g></g><g><use xlink:href="#ajJ0AnvEz" opacity="1" fill="#72bccc" fill-opacity="1"></use><g><use xlink:href="#ajJ0AnvEz" opacity="1" fill-opacity="0" stroke="#000000" stroke-width="1" stroke-opacity="0"></use></g></g><g><use xlink:href="#b14b7sCir" opacity="1" fill="#72bccc" fill-opacity="1"></use><g><use xlink:href="#b14b7sCir" opacity="1" fill-opacity="0" stroke="#000000" stroke-width="1" stroke-opacity="0"></use></g></g><g><use xlink:href="#b43kgL7bA9" opacity="1" fill="#72bccc" fill-opacity="1"></use><g><use xlink:href="#b43kgL7bA9" opacity="1" fill-opacity="0" stroke="#000000" stroke-width="1" stroke-opacity="0"></use></g></g><g><use xlink:href="#iFKNCszCq" opacity="1" fill="#72bccc" fill-opacity="1"></use><g><use xlink:href="#iFKNCszCq" opacity="1" fill-opacity="0" stroke="#000000" stroke-width="1" stroke-opacity="0"></use></g></g><g><use xlink:href="#b6ZB0pceYR" opacity="1" fill="#72bccc" fill-opacity="1"></use><g><use xlink:href="#b6ZB0pceYR" opacity="1" fill-opacity="0" stroke="#000000" stroke-width="1" stroke-opacity="0"></use></g></g><g><use xlink:href="#b2z2PQAg5I" opacity="1" fill="#72bccc" fill-opacity="1"></use><g><use xlink:href="#b2z2PQAg5I" opacity="1" fill-opacity="0" stroke="#000000" stroke-width="1" stroke-opacity="0"></use></g></g><g><use xlink:href="#b1YYqbJnfC" opacity="1" fill="#72bccc" fill-opacity="1"></use><g><use xlink:href="#b1YYqbJnfC" opacity="1" fill-opacity="0" stroke="#000000" stroke-width="1" stroke-opacity="0"></use></g></g><g><use xlink:href="#bw0HYfeDb" opacity="1" fill="#72bccc" fill-opacity="1"></use><g><use xlink:href="#bw0HYfeDb" opacity="1" fill-opacity="0" stroke="#000000" stroke-width="1" stroke-opacity="0"></use></g></g><g><use xlink:href="#e536cbvGLA" opacity="1" fill="#72bccc" fill-opacity="1"></use><g><use xlink:href="#e536cbvGLA" opacity="1" fill-opacity="0" stroke="#000000" stroke-width="1" stroke-opacity="0"></use></g></g><g><use xlink:href="#c4P4Gr360u" opacity="1" fill="#72bccc" fill-opacity="1"></use><g><use xlink:href="#c4P4Gr360u" opacity="1" fill-opacity="0" stroke="#000000" stroke-width="1" stroke-opacity="0"></use></g></g><g><use xlink:href="#a1Kjhla15" opacity="1" fill="#72bccc" fill-opacity="1"></use><g><use xlink:href="#a1Kjhla15" opacity="1" fill-opacity="0" stroke="#000000" stroke-width="1" stroke-opacity="0"></use></g></g><g><use xlink:href="#c2bjlTZ8yZ" opacity="1" fill="#72bccc" fill-opacity="1"></use><g><use xlink:href="#c2bjlTZ8yZ" opacity="1" fill-opacity="0" stroke="#000000" stroke-width="1" stroke-opacity="0"></use></g></g><g><use xlink:href="#d1qIYGABqb" opacity="1" fill="#72bccc" fill-opacity="1"></use><g><use xlink:href="#d1qIYGABqb" opacity="1" fill-opacity="0" stroke="#000000" stroke-width="1" stroke-opacity="0"></use></g></g><g><use xlink:href="#b1QpJKJV9U" opacity="1" fill="#72bccc" fill-opacity="1"></use><g><use xlink:href="#b1QpJKJV9U" opacity="1" fill-opacity="0" stroke="#000000" stroke-width="1" stroke-opacity="0"></use></g></g><g><use xlink:href="#b1dtRk0DiI" opacity="1" fill="#72bccc" fill-opacity="1"></use><g><use xlink:href="#b1dtRk0DiI" opacity="1" fill-opacity="0" stroke="#000000" stroke-width="1" stroke-opacity="0"></use></g></g><g><use xlink:href="#b1SvfJ9L79" opacity="1" fill="#72bccc" fill-opacity="1"></use><g><use xlink:href="#b1SvfJ9L79" opacity="1" fill-opacity="0" stroke="#000000" stroke-width="1" stroke-opacity="0"></use></g></g><g><use xlink:href="#boFvFH9cM" opacity="1" fill="#72bccc" fill-opacity="1"></use><g><use xlink:href="#boFvFH9cM" opacity="1" fill-opacity="0" stroke="#000000" stroke-width="1" stroke-opacity="0"></use></g></g><g><use xlink:href="#c12Drf0QdZ" opacity="1" fill="#72bccc" fill-opacity="1"></use><g><use xlink:href="#c12Drf0QdZ" opacity="1" fill-opacity="0" stroke="#000000" stroke-width="1" stroke-opacity="0"></use></g></g><g><use xlink:href="#gMz82XGaK" opacity="1" fill="#72bccc" fill-opacity="1"></use><g><use xlink:href="#gMz82XGaK" opacity="1" fill-opacity="0" stroke="#000000" stroke-width="1" stroke-opacity="0"></use></g></g><g><use xlink:href="#c3g9ExLXLF" opacity="1" fill="#72bccc" fill-opacity="1"></use><g><use xlink:href="#c3g9ExLXLF" opacity="1" fill-opacity="0" stroke="#000000" stroke-width="1" stroke-opacity="0"></use></g></g><g><use xlink:href="#f3yALyvSED" opacity="1" fill="#72bccc" fill-opacity="1"></use><g><use xlink:href="#f3yALyvSED" opacity="1" fill-opacity="0" stroke="#000000" stroke-width="1" stroke-opacity="0"></use></g></g><g><use xlink:href="#a40uqLGtcD" opacity="1" fill="#72bccc" fill-opacity="1"></use><g><use xlink:href="#a40uqLGtcD" opacity="1" fill-opacity="0" stroke="#000000" stroke-width="1" stroke-opacity="0"></use></g></g><g><use xlink:href="#a1j19ooWwp" opacity="1" fill="#72bccc" fill-opacity="1"></use><g><use xlink:href="#a1j19ooWwp" opacity="1" fill-opacity="0" stroke="#000000" stroke-width="1" stroke-opacity="0"></use></g></g><g><use xlink:href="#a6Wu59R4yO" opacity="1" fill="#72bccc" fill-opacity="1"></use><g><use xlink:href="#a6Wu59R4yO" opacity="1" fill-opacity="0" stroke="#000000" stroke-width="1" stroke-opacity="0"></use></g></g><g><use xlink:href="#a1A8QiJmvn" opacity="1" fill="#72bccc" fill-opacity="1"></use><g><use xlink:href="#a1A8QiJmvn" opacity="1" fill-opacity="0" stroke="#000000" stroke-width="1" stroke-opacity="0"></use></g></g><g><use xlink:href="#a3Xhb8ZBYK" opacity="1" fill="#72bccc" fill-opacity="1"></use><g><use xlink:href="#a3Xhb8ZBYK" opacity="1" fill-opacity="0" stroke="#000000" stroke-width="1" stroke-opacity="0"></use></g></g><g><use xlink:href="#a1qJy3SgK2" opacity="1" fill="#72bccc" fill-opacity="1"></use><g><use xlink:href="#a1qJy3SgK2" opacity="1" fill-opacity="0" stroke="#000000" stroke-width="1" stroke-opacity="0"></use></g></g><g><use xlink:href="#a3UgTipTE" opacity="1" fill="#72bccc" fill-opacity="1"></use><g><use xlink:href="#a3UgTipTE" opacity="1" fill-opacity="0" stroke="#000000" stroke-width="1" stroke-opacity="0"></use></g></g><g><use xlink:href="#a13f2tnYvh" opacity="1" fill="#72bccc" fill-opacity="1"></use><g><use xlink:href="#a13f2tnYvh" opacity="1" fill-opacity="0" stroke="#000000" stroke-width="1" stroke-opacity="0"></use></g></g><g><use xlink:href="#cEivdQ9Xu" opacity="1" fill="#72bccc" fill-opacity="1"></use><g><use xlink:href="#cEivdQ9Xu" opacity="1" fill-opacity="0" stroke="#000000" stroke-width="1" stroke-opacity="0"></use></g></g><g><use xlink:href="#b29hKhyFV" opacity="1" fill="#72bccc" fill-opacity="1"></use><g><use xlink:href="#b29hKhyFV" opacity="1" fill-opacity="0" stroke="#000000" stroke-width="1" stroke-opacity="0"></use></g></g><g><use xlink:href="#b6w2ac3S5p" opacity="1" fill="#72bccc" fill-opacity="1"></use><g><use xlink:href="#b6w2ac3S5p" opacity="1" fill-opacity="0" stroke="#000000" stroke-width="1" stroke-opacity="0"></use></g></g><g><use xlink:href="#f592ZqTy4Y" opacity="1" fill="#72bccc" fill-opacity="1"></use><g><use xlink:href="#f592ZqTy4Y" opacity="1" fill-opacity="0" stroke="#000000" stroke-width="1" stroke-opacity="0"></use></g></g><g><use xlink:href="#bbKKMMLcZ" opacity="1" fill="#72bccc" fill-opacity="1"></use><g><use xlink:href="#bbKKMMLcZ" opacity="1" fill-opacity="0" stroke="#000000" stroke-width="1" stroke-opacity="0"></use></g></g><g><use xlink:href="#aYCyu0ayI" opacity="1" fill="#72bccc" fill-opacity="1"></use><g><use xlink:href="#aYCyu0ayI" opacity="1" fill-opacity="0" stroke="#000000" stroke-width="1" stroke-opacity="0"></use></g></g><g><use xlink:href="#a59YH7IcF" opacity="1" fill="#72bccc" fill-opacity="1"></use><g><use xlink:href="#a59YH7IcF" opacity="1" fill-opacity="0" stroke="#000000" stroke-width="1" stroke-opacity="0"></use></g></g><g><use xlink:href="#k1m5VDWmMF" opacity="1" fill="#72bccc" fill-opacity="1"></use><g><use xlink:href="#k1m5VDWmMF" opacity="1" fill-opacity="0" stroke="#000000" stroke-width="1" stroke-opacity="0"></use></g></g><g><use xlink:href="#d38MjojERn" opacity="1" fill="#72bccc" fill-opacity="1"></use><g><use xlink:href="#d38MjojERn" opacity="1" fill-opacity="0" stroke="#000000" stroke-width="1" stroke-opacity="0"></use></g></g><g><use xlink:href="#o2wTTm5IS3" opacity="1" fill="#72bccc" fill-opacity="1"></use><g><use xlink:href="#o2wTTm5IS3" opacity="1" fill-opacity="0" stroke="#000000" stroke-width="1" stroke-opacity="0"></use></g></g><g><use xlink:href="#e6ZjEAXlHA" opacity="1" fill="#72bccc" fill-opacity="1"></use><g><use xlink:href="#e6ZjEAXlHA" opacity="1" fill-opacity="0" stroke="#000000" stroke-width="1" stroke-opacity="0"></use></g></g><g><use xlink:href="#aw8KXjOoC" opacity="1" fill="#72bccc" fill-opacity="1"></use><g><use xlink:href="#aw8KXjOoC" opacity="1" fill-opacity="0" stroke="#000000" stroke-width="1" stroke-opacity="0"></use></g></g><g><use xlink:href="#m4WvIONtuE" opacity="1" fill="#72bccc" fill-opacity="1"></use><g><use xlink:href="#m4WvIONtuE" opacity="1" fill-opacity="0" stroke="#000000" stroke-width="1" stroke-opacity="0"></use></g></g><g><use xlink:href="#aakq2V2JWR" opacity="1" fill="#72bccc" fill-opacity="1"></use><g><use xlink:href="#aakq2V2JWR" opacity="1" fill-opacity="0" stroke="#000000" stroke-width="1" stroke-opacity="0"></use></g></g><g><use xlink:href="#c3IDPL2CH" opacity="1" fill="#72bccc" fill-opacity="1"></use><g><use xlink:href="#c3IDPL2CH" opacity="1" fill-opacity="0" stroke="#000000" stroke-width="1" stroke-opacity="0"></use></g></g><g><use xlink:href="#a3IE4CqKlD" opacity="1" fill="#72bccc" fill-opacity="1"></use><g><use xlink:href="#a3IE4CqKlD" opacity="1" fill-opacity="0" stroke="#000000" stroke-width="1" stroke-opacity="0"></use></g></g><g><use xlink:href="#bCp8jJjAG" opacity="1" fill="#72bccc" fill-opacity="1"></use><g><use xlink:href="#bCp8jJjAG" opacity="1" fill-opacity="0" stroke="#000000" stroke-width="1" stroke-opacity="0"></use></g></g><g><use xlink:href="#oZQX5GBCG" opacity="1" fill="#72bccc" fill-opacity="1"></use><g><use xlink:href="#oZQX5GBCG" opacity="1" fill-opacity="0" stroke="#000000" stroke-width="1" stroke-opacity="0"></use></g></g><g><use xlink:href="#dMwwz5Kh" opacity="1" fill="#72bccc" fill-opacity="1"></use><g><use xlink:href="#dMwwz5Kh" opacity="1" fill-opacity="0" stroke="#000000" stroke-width="1" stroke-opacity="0"></use></g></g><g><use xlink:href="#dbdLb8lak" opacity="1" fill="#72bccc" fill-opacity="1"></use><g><use xlink:href="#dbdLb8lak" opacity="1" fill-opacity="0" stroke="#000000" stroke-width="1" stroke-opacity="0"></use></g></g><g><use xlink:href="#b5RC6HD0" opacity="1" fill="#72bccc" fill-opacity="1"></use><g><use xlink:href="#b5RC6HD0" opacity="1" fill-opacity="0" stroke="#000000" stroke-width="1" stroke-opacity="0"></use></g></g><g><use xlink:href="#aWYTRmY7C" opacity="1" fill="#72bccc" fill-opacity="1"></use><g><use xlink:href="#aWYTRmY7C" opacity="1" fill-opacity="0" stroke="#000000" stroke-width="1" stroke-opacity="0"></use></g></g><g><use xlink:href="#buSMSYZA" opacity="1" fill="#72bccc" fill-opacity="1"></use><g><use xlink:href="#buSMSYZA" opacity="1" fill-opacity="0" stroke="#000000" stroke-width="1" stroke-opacity="0"></use></g></g><g><use xlink:href="#g1CqQzLssN" opacity="1" fill="#72bccc" fill-opacity="1"></use><g><use xlink:href="#g1CqQzLssN" opacity="1" fill-opacity="0" stroke="#000000" stroke-width="1" stroke-opacity="0"></use></g></g><g><use xlink:href="#a1uGhYe7po" opacity="1" fill="#72bccc" fill-opacity="1"></use><g><use xlink:href="#a1uGhYe7po" opacity="1" fill-opacity="0" stroke="#000000" stroke-width="1" stroke-opacity="0"></use></g></g><g><use xlink:href="#b1O8UB3b29" opacity="1" fill="#72bccc" fill-opacity="1"></use><g><use xlink:href="#b1O8UB3b29" opacity="1" fill-opacity="0" stroke="#000000" stroke-width="1" stroke-opacity="0"></use></g></g><g><use xlink:href="#dZR5zz6i" opacity="1" fill="#72bccc" fill-opacity="1"></use><g><use xlink:href="#dZR5zz6i" opacity="1" fill-opacity="0" stroke="#000000" stroke-width="1" stroke-opacity="0"></use></g></g><g><use xlink:href="#kt5YWbqYL" opacity="1" fill="#72bccc" fill-opacity="1"></use><g><use xlink:href="#kt5YWbqYL" opacity="1" fill-opacity="0" stroke="#000000" stroke-width="1" stroke-opacity="0"></use></g></g><g><use xlink:href="#bxdB89y7y" opacity="1" fill="#72bccc" fill-opacity="1"></use><g><use xlink:href="#bxdB89y7y" opacity="1" fill-opacity="0" stroke="#000000" stroke-width="1" stroke-opacity="0"></use></g></g><g><use xlink:href="#a4iJc6xRAt" opacity="1" fill="#72bccc" fill-opacity="1"></use><g><use xlink:href="#a4iJc6xRAt" opacity="1" fill-opacity="0" stroke="#000000" stroke-width="1" stroke-opacity="0"></use></g></g><g><use xlink:href="#gEuDPXjTA" opacity="1" fill="#72bccc" fill-opacity="1"></use><g><use xlink:href="#gEuDPXjTA" opacity="1" fill-opacity="0" stroke="#000000" stroke-width="1" stroke-opacity="0"></use></g></g><g><use xlink:href="#jaXpOmeL" opacity="1" fill="#72bccc" fill-opacity="1"></use><g><use xlink:href="#jaXpOmeL" opacity="1" fill-opacity="0" stroke="#000000" stroke-width="1" stroke-opacity="0"></use></g></g><g><use xlink:href="#b4brDZwQR" opacity="1" fill="#72bccc" fill-opacity="1"></use><g><use xlink:href="#b4brDZwQR" opacity="1" fill-opacity="0" stroke="#000000" stroke-width="1" stroke-opacity="0"></use></g></g><g><use xlink:href="#a3t2PwF1TX" opacity="1" fill="#72bccc" fill-opacity="1"></use><g><use xlink:href="#a3t2PwF1TX" opacity="1" fill-opacity="0" stroke="#000000" stroke-width="1" stroke-opacity="0"></use></g></g><g><use xlink:href="#bftFMENr9" opacity="1" fill="#72bccc" fill-opacity="1"></use><g><use xlink:href="#bftFMENr9" opacity="1" fill-opacity="0" stroke="#000000" stroke-width="1" stroke-opacity="0"></use></g></g><g><use xlink:href="#b1khO0wWqI" opacity="1" fill="#72bccc" fill-opacity="1"></use><g><use xlink:href="#b1khO0wWqI" opacity="1" fill-opacity="0" stroke="#000000" stroke-width="1" stroke-opacity="0"></use></g></g><g><use xlink:href="#c3Np4jgiwR" opacity="1" fill="#72bccc" fill-opacity="1"></use><g><use xlink:href="#c3Np4jgiwR" opacity="1" fill-opacity="0" stroke="#000000" stroke-width="1" stroke-opacity="0"></use></g></g><g><use xlink:href="#a34Vk9Pbxv" opacity="1" fill="#72bccc" fill-opacity="1"></use><g><use xlink:href="#a34Vk9Pbxv" opacity="1" fill-opacity="0" stroke="#000000" stroke-width="1" stroke-opacity="0"></use></g></g><g><use xlink:href="#acuZh3Tmm" opacity="1" fill="#72bccc" fill-opacity="1"></use><g><use xlink:href="#acuZh3Tmm" opacity="1" fill-opacity="0" stroke="#000000" stroke-width="1" stroke-opacity="0"></use></g></g><g><use xlink:href="#a1R7HtfQZO" opacity="1" fill="#72bccc" fill-opacity="1"></use><g><use xlink:href="#a1R7HtfQZO" opacity="1" fill-opacity="0" stroke="#000000" stroke-width="1" stroke-opacity="0"></use></g></g><g><use xlink:href="#a9FCfD9ah" opacity="1" fill="#72bccc" fill-opacity="1"></use><g><use xlink:href="#a9FCfD9ah" opacity="1" fill-opacity="0" stroke="#000000" stroke-width="1" stroke-opacity="0"></use></g></g><g><use xlink:href="#a1Y5djHZNz" opacity="1" fill="#72bccc" fill-opacity="1"></use><g><use xlink:href="#a1Y5djHZNz" opacity="1" fill-opacity="0" stroke="#000000" stroke-width="1" stroke-opacity="0"></use></g></g><g><use xlink:href="#b3AJa0A2is" opacity="1" fill="#72bccc" fill-opacity="1"></use><g><use xlink:href="#b3AJa0A2is" opacity="1" fill-opacity="0" stroke="#000000" stroke-width="1" stroke-opacity="0"></use></g></g><g><use xlink:href="#mcq7DQDug" opacity="1" fill="#72bccc" fill-opacity="1"></use><g><use xlink:href="#mcq7DQDug" opacity="1" fill-opacity="0" stroke="#000000" stroke-width="1" stroke-opacity="0"></use></g></g><g><use xlink:href="#h70KJg7aw" opacity="1" fill="#92b9c9" fill-opacity="1"></use><g><use xlink:href="#h70KJg7aw" opacity="1" fill-opacity="0" stroke="#000000" stroke-width="1" stroke-opacity="0"></use></g></g><g><use xlink:href="#a1QZjwnTsp" opacity="1" fill="#92b9c9" fill-opacity="1"></use><g><use xlink:href="#a1QZjwnTsp" opacity="1" fill-opacity="0" stroke="#000000" stroke-width="1" stroke-opacity="0"></use></g></g><g><use xlink:href="#a1uVmTxrkS" opacity="1" fill="#496378" fill-opacity="1"></use><g><use xlink:href="#a1uVmTxrkS" opacity="1" fill-opacity="0" stroke="#000000" stroke-width="1" stroke-opacity="0"></use></g></g><g><use xlink:href="#awKxrJ26" opacity="1" fill="#80a1b4" fill-opacity="1"></use><g><use xlink:href="#awKxrJ26" opacity="1" fill-opacity="0" stroke="#000000" stroke-width="1" stroke-opacity="0"></use></g></g><g><use xlink:href="#d8T9Kkj1B" opacity="1" fill="#23313a" fill-opacity="1"></use><g><use xlink:href="#d8T9Kkj1B" opacity="1" fill-opacity="0" stroke="#000000" stroke-width="1" stroke-opacity="0"></use></g></g><g><use xlink:href="#a2ILcI7Y3S" opacity="1" fill="#dbd125" fill-opacity="1"></use><g><use xlink:href="#a2ILcI7Y3S" opacity="1" fill-opacity="0" stroke="#000000" stroke-width="1" stroke-opacity="0"></use></g></g><g><use xlink:href="#c53LQwX1No" opacity="1" fill="#eef042" fill-opacity="1"></use><g><use xlink:href="#c53LQwX1No" opacity="1" fill-opacity="0" stroke="#000000" stroke-width="1" stroke-opacity="0"></use></g></g><g><use xlink:href="#g12aXulwcv" opacity="1" fill="#eef042" fill-opacity="1"></use><g><use xlink:href="#g12aXulwcv" opacity="1" fill-opacity="0" stroke="#000000" stroke-width="1" stroke-opacity="0"></use></g></g><g><use xlink:href="#b4ahlI98Kq" opacity="1" fill="#23313a" fill-opacity="1"></use><g><use xlink:href="#b4ahlI98Kq" opacity="1" fill-opacity="0" stroke="#000000" stroke-width="1" stroke-opacity="0"></use></g></g><g><use xlink:href="#arCVhdQ19" opacity="1" fill="#50c19a" fill-opacity="1"></use><g><use xlink:href="#arCVhdQ19" opacity="1" fill-opacity="0" stroke="#000000" stroke-width="1" stroke-opacity="0"></use></g></g><g><use xlink:href="#afV6jM3pO" opacity="1" fill="#50c19a" fill-opacity="1"></use><g><use xlink:href="#afV6jM3pO" opacity="1" fill-opacity="0" stroke="#000000" stroke-width="1" stroke-opacity="0"></use></g></g><g><use xlink:href="#a3Z3MElzae" opacity="1" fill="#50c19a" fill-opacity="1"></use><g><use xlink:href="#a3Z3MElzae" opacity="1" fill-opacity="0" stroke="#000000" stroke-width="1" stroke-opacity="0"></use></g></g><g><use xlink:href="#b2fM6oj2wl" opacity="1" fill="#ecf8f4" fill-opacity="1"></use><g><use xlink:href="#b2fM6oj2wl" opacity="1" fill-opacity="0" stroke="#000000" stroke-width="1" stroke-opacity="0"></use></g></g><g><use xlink:href="#c7ekw4x92" opacity="1" fill="#50c19a" fill-opacity="1"></use><g><use xlink:href="#c7ekw4x92" opacity="1" fill-opacity="0" stroke="#000000" stroke-width="1" stroke-opacity="0"></use></g></g><g><use xlink:href="#akxD5cVCx" opacity="1" fill="#ecf8f4" fill-opacity="1"></use><g><use xlink:href="#akxD5cVCx" opacity="1" fill-opacity="0" stroke="#000000" stroke-width="1" stroke-opacity="0"></use></g></g><g><use xlink:href="#a5uyVKEo7R" opacity="1" fill="#ecf8f4" fill-opacity="1"></use><g><use xlink:href="#a5uyVKEo7R" opacity="1" fill-opacity="0" stroke="#000000" stroke-width="1" stroke-opacity="0"></use></g></g><g><use xlink:href="#c5m3UNxf8M" opacity="1" fill="#ecf8f4" fill-opacity="1"></use><g><use xlink:href="#c5m3UNxf8M" opacity="1" fill-opacity="0" stroke="#000000" stroke-width="1" stroke-opacity="0"></use></g></g><g><use xlink:href="#a2A7tjH3V" opacity="1" fill="#3e271f" fill-opacity="1"></use><g><use xlink:href="#a2A7tjH3V" opacity="1" fill-opacity="0" stroke="#000000" stroke-width="1" stroke-opacity="0"></use></g></g><g><use xlink:href="#hppnvqI82" opacity="1" fill="#654016" fill-opacity="1"></use><g><use xlink:href="#hppnvqI82" opacity="1" fill-opacity="0" stroke="#000000" stroke-width="1" stroke-opacity="0"></use></g></g><g><use xlink:href="#btA3OwLr5" opacity="1" fill="#f9a76c" fill-opacity="1"></use><g><use xlink:href="#btA3OwLr5" opacity="1" fill-opacity="0" stroke="#000000" stroke-width="1" stroke-opacity="0"></use></g></g><g><use xlink:href="#b4DhZzDmNG" opacity="1" fill="#654016" fill-opacity="1"></use><g><use xlink:href="#b4DhZzDmNG" opacity="1" fill-opacity="0" stroke="#000000" stroke-width="1" stroke-opacity="0"></use></g></g><g><use xlink:href="#b4IsCUzELr" opacity="1" fill="#a7651b" fill-opacity="1"></use><g><use xlink:href="#b4IsCUzELr" opacity="1" fill-opacity="0" stroke="#000000" stroke-width="1" stroke-opacity="0"></use></g></g><g><use xlink:href="#a32cuzqW4j" opacity="1" fill="#654016" fill-opacity="1"></use><g><use xlink:href="#a32cuzqW4j" opacity="1" fill-opacity="0" stroke="#000000" stroke-width="1" stroke-opacity="0"></use></g></g><g><use xlink:href="#d9ByXVkIK" opacity="1" fill="#654016" fill-opacity="1"></use><g><use xlink:href="#d9ByXVkIK" opacity="1" fill-opacity="0" stroke="#000000" stroke-width="1" stroke-opacity="0"></use></g></g><g><use xlink:href="#bFdTFmLKF" opacity="1" fill="#f9d831" fill-opacity="1"></use><g><use xlink:href="#bFdTFmLKF" opacity="1" fill-opacity="0" stroke="#000000" stroke-width="1" stroke-opacity="0"></use></g></g><g><use xlink:href="#baWLrm7YO" opacity="1" fill="#f9a76c" fill-opacity="1"></use><g><use xlink:href="#baWLrm7YO" opacity="1" fill-opacity="0" stroke="#000000" stroke-width="1" stroke-opacity="0"></use></g></g><g><use xlink:href="#d2EkFIBV2f" opacity="1" fill="#f36152" fill-opacity="1"></use><g><use xlink:href="#d2EkFIBV2f" opacity="1" fill-opacity="0" stroke="#000000" stroke-width="1" stroke-opacity="0"></use></g></g><g><use xlink:href="#dHqoQn3TC" opacity="1" fill="#50c19a" fill-opacity="1"></use><g><use xlink:href="#dHqoQn3TC" opacity="1" fill-opacity="0" stroke="#000000" stroke-width="1" stroke-opacity="0"></use></g></g><g><use xlink:href="#d1WIHLFLB" opacity="1" fill="#f9d831" fill-opacity="1"></use><g><use xlink:href="#d1WIHLFLB" opacity="1" fill-opacity="0" stroke="#000000" stroke-width="1" stroke-opacity="0"></use></g></g><g><use xlink:href="#d2aNVYiT9W" opacity="1" fill="#6cc964" fill-opacity="1"></use><g><use xlink:href="#d2aNVYiT9W" opacity="1" fill-opacity="0" stroke="#000000" stroke-width="1" stroke-opacity="0"></use></g></g><g><use xlink:href="#j6P7MuaU8" opacity="1" fill="#f1494e" fill-opacity="1"></use><g><use xlink:href="#j6P7MuaU8" opacity="1" fill-opacity="0" stroke="#000000" stroke-width="1" stroke-opacity="0"></use></g></g><g><use xlink:href="#c3gwy1zqPg" opacity="1" fill="#323c47" fill-opacity="1"></use><g><use xlink:href="#c3gwy1zqPg" opacity="1" fill-opacity="0" stroke="#000000" stroke-width="1" stroke-opacity="0"></use></g></g><g><use xlink:href="#a2iHqb42lX" opacity="1" fill="#4b6024" fill-opacity="1"></use><g><use xlink:href="#a2iHqb42lX" opacity="1" fill-opacity="0" stroke="#000000" stroke-width="1" stroke-opacity="0"></use></g></g><g><use xlink:href="#a4CKIfKlK" opacity="1" fill="#355485" fill-opacity="1"></use><g><use xlink:href="#a4CKIfKlK" opacity="1" fill-opacity="0" stroke="#000000" stroke-width="1" stroke-opacity="0"></use></g></g><g><use xlink:href="#dfgZfdSXl" opacity="1" fill="#4b6024" fill-opacity="1"></use><g><use xlink:href="#dfgZfdSXl" opacity="1" fill-opacity="0" stroke="#000000" stroke-width="1" stroke-opacity="0"></use></g></g><g><use xlink:href="#a4LLqYD9iN" opacity="1" fill="#457a3e" fill-opacity="1"></use><g><use xlink:href="#a4LLqYD9iN" opacity="1" fill-opacity="0" stroke="#000000" stroke-width="1" stroke-opacity="0"></use></g></g><g><use xlink:href="#d2FTPHD753" opacity="1" fill="#2b4977" fill-opacity="1"></use><g><use xlink:href="#d2FTPHD753" opacity="1" fill-opacity="0" stroke="#000000" stroke-width="1" stroke-opacity="0"></use></g></g><g><use xlink:href="#eJJGXmKon" opacity="1" fill="#406194" fill-opacity="1"></use><g><use xlink:href="#eJJGXmKon" opacity="1" fill-opacity="0" stroke="#000000" stroke-width="1" stroke-opacity="0"></use></g></g><g><use xlink:href="#c1P7HCs3oS" opacity="1" fill="#569253" fill-opacity="1"></use><g><use xlink:href="#c1P7HCs3oS" opacity="1" fill-opacity="0" stroke="#000000" stroke-width="1" stroke-opacity="0"></use></g></g><g><use xlink:href="#b4CNyWPUlF" opacity="1" fill="#f1494e" fill-opacity="1"></use><g><use xlink:href="#b4CNyWPUlF" opacity="1" fill-opacity="0" stroke="#000000" stroke-width="1" stroke-opacity="0"></use></g></g><g><use xlink:href="#a6BFqMcDuo" opacity="1" fill="#f57629" fill-opacity="1"></use><g><use xlink:href="#a6BFqMcDuo" opacity="1" fill-opacity="0" stroke="#000000" stroke-width="1" stroke-opacity="0"></use></g></g><g><use xlink:href="#a3KbjNqsNh" opacity="1" fill="#d9393c" fill-opacity="1"></use><g><use xlink:href="#a3KbjNqsNh" opacity="1" fill-opacity="0" stroke="#000000" stroke-width="1" stroke-opacity="0"></use></g></g><g><use xlink:href="#b2dzWzHifE" opacity="1" fill="#d9393c" fill-opacity="1"></use><g><use xlink:href="#b2dzWzHifE" opacity="1" fill-opacity="0" stroke="#000000" stroke-width="1" stroke-opacity="0"></use></g></g><g><use xlink:href="#b7zFM1Fn7P" opacity="1" fill="#323c47" fill-opacity="1"></use><g><use xlink:href="#b7zFM1Fn7P" opacity="1" fill-opacity="0" stroke="#000000" stroke-width="1" stroke-opacity="0"></use></g></g><g><use xlink:href="#j4ECY2f5Mp" opacity="1" fill="#ca9347" fill-opacity="1"></use><g><use xlink:href="#j4ECY2f5Mp" opacity="1" fill-opacity="0" stroke="#000000" stroke-width="1" stroke-opacity="0"></use></g></g><g><use xlink:href="#c2g6sM31FY" opacity="1" fill="#ca9347" fill-opacity="1"></use><g><use xlink:href="#c2g6sM31FY" opacity="1" fill-opacity="0" stroke="#000000" stroke-width="1" stroke-opacity="0"></use></g></g><g><use xlink:href="#b56GvgIFL9" opacity="1" fill="#ebc286" fill-opacity="1"></use><g><use xlink:href="#b56GvgIFL9" opacity="1" fill-opacity="0" stroke="#000000" stroke-width="1" stroke-opacity="0"></use></g></g><g><use xlink:href="#b1KaXgWIjE" opacity="1" fill="#cc6a36" fill-opacity="1"></use><g><use xlink:href="#b1KaXgWIjE" opacity="1" fill-opacity="0" stroke="#000000" stroke-width="1" stroke-opacity="0"></use></g></g><g><use xlink:href="#b4J0QhA690" opacity="1" fill="#425d69" fill-opacity="1"></use><g><use xlink:href="#b4J0QhA690" opacity="1" fill-opacity="0" stroke="#000000" stroke-width="1" stroke-opacity="0"></use></g></g><g><use xlink:href="#b93h3nqaF" opacity="1" fill="#425d69" fill-opacity="1"></use><g><use xlink:href="#b93h3nqaF" opacity="1" fill-opacity="0" stroke="#000000" stroke-width="1" stroke-opacity="0"></use></g></g><g><use xlink:href="#gDVqeHYan" opacity="1" fill="#425d69" fill-opacity="1"></use><g><use xlink:href="#gDVqeHYan" opacity="1" fill-opacity="0" stroke="#000000" stroke-width="1" stroke-opacity="0"></use></g></g><g><use xlink:href="#cf2weGPYs" opacity="1" fill="#f9a76c" fill-opacity="1"></use><g><use xlink:href="#cf2weGPYs" opacity="1" fill-opacity="0" stroke="#000000" stroke-width="1" stroke-opacity="0"></use></g></g><g><use xlink:href="#aheIsdh2Q" opacity="1" fill="#f9d831" fill-opacity="1"></use><g><use xlink:href="#aheIsdh2Q" opacity="1" fill-opacity="0" stroke="#000000" stroke-width="1" stroke-opacity="0"></use></g></g><g><use xlink:href="#b1xA8JwjiB" opacity="1" fill="#f9d831" fill-opacity="1"></use><g><use xlink:href="#b1xA8JwjiB" opacity="1" fill-opacity="0" stroke="#000000" stroke-width="1" stroke-opacity="0"></use></g></g><g><use xlink:href="#f4AcyoAtk" opacity="1" fill="#cdedd0" fill-opacity="1"></use><g><use xlink:href="#f4AcyoAtk" opacity="1" fill-opacity="0" stroke="#000000" stroke-width="1" stroke-opacity="0"></use></g></g><g><use xlink:href="#c1nmc0FsmC" opacity="1" fill="#f9d831" fill-opacity="1"></use><g><use xlink:href="#c1nmc0FsmC" opacity="1" fill-opacity="0" stroke="#000000" stroke-width="1" stroke-opacity="0"></use></g></g><g><use xlink:href="#c7IrHBSRwD" opacity="1" fill="#f1494e" fill-opacity="1"></use><g><use xlink:href="#c7IrHBSRwD" opacity="1" fill-opacity="0" stroke="#000000" stroke-width="1" stroke-opacity="0"></use></g></g><g><use xlink:href="#bcYXudlJ" opacity="1" fill="#f05622" fill-opacity="1"></use><g><use xlink:href="#bcYXudlJ" opacity="1" fill-opacity="0" stroke="#000000" stroke-width="1" stroke-opacity="0"></use></g></g><g><use xlink:href="#bF8JDyQIw" opacity="1" fill="#f8b61b" fill-opacity="1"></use><g><use xlink:href="#bF8JDyQIw" opacity="1" fill-opacity="0" stroke="#000000" stroke-width="1" stroke-opacity="0"></use></g></g><g><use xlink:href="#bmri1aLZm" opacity="1" fill="#f5f125" fill-opacity="1"></use><g><use xlink:href="#bmri1aLZm" opacity="1" fill-opacity="0" stroke="#000000" stroke-width="1" stroke-opacity="0"></use></g></g><g><use xlink:href="#b1lDIbm5O3" opacity="1" fill="#f57629" fill-opacity="1"></use><g><use xlink:href="#b1lDIbm5O3" opacity="1" fill-opacity="0" stroke="#000000" stroke-width="1" stroke-opacity="0"></use></g></g><g><use xlink:href="#bfYj2PEM2" opacity="1" fill="#f1494e" fill-opacity="1"></use><g><use xlink:href="#bfYj2PEM2" opacity="1" fill-opacity="0" stroke="#000000" stroke-width="1" stroke-opacity="0"></use></g></g><g><use xlink:href="#a10fQQL4jN" opacity="1" fill="#d9393c" fill-opacity="1"></use><g><use xlink:href="#a10fQQL4jN" opacity="1" fill-opacity="0" stroke="#000000" stroke-width="1" stroke-opacity="0"></use></g></g><g><use xlink:href="#b2zTeHAJPr" opacity="1" fill="#cdedd0" fill-opacity="1"></use><g><use xlink:href="#b2zTeHAJPr" opacity="1" fill-opacity="0" stroke="#000000" stroke-width="1" stroke-opacity="0"></use></g></g><g><use xlink:href="#c8ZIZeo8s" opacity="1" fill="#f57629" fill-opacity="1"></use><g><use xlink:href="#c8ZIZeo8s" opacity="1" fill-opacity="0" stroke="#000000" stroke-width="1" stroke-opacity="0"></use></g></g><g><use xlink:href="#b15eJp1Vey" opacity="1" fill="#d9393c" fill-opacity="1"></use><g><use xlink:href="#b15eJp1Vey" opacity="1" fill-opacity="0" stroke="#000000" stroke-width="1" stroke-opacity="0"></use></g></g><g><use xlink:href="#c1SMzgFuM1" opacity="1" fill="#ffffff" fill-opacity="1"></use><g><use xlink:href="#c1SMzgFuM1" opacity="1" fill-opacity="0" stroke="#000000" stroke-width="1" stroke-opacity="0"></use></g></g><g><use xlink:href="#e47xRH0Pj9" opacity="1" fill="#f1494e" fill-opacity="1"></use><g><use xlink:href="#e47xRH0Pj9" opacity="1" fill-opacity="0" stroke="#000000" stroke-width="1" stroke-opacity="0"></use></g></g><g><use xlink:href="#i45REapQZ" opacity="1" fill="#d9393c" fill-opacity="1"></use><g><use xlink:href="#i45REapQZ" opacity="1" fill-opacity="0" stroke="#000000" stroke-width="1" stroke-opacity="0"></use></g></g><g><use xlink:href="#cySznWflA" opacity="1" fill="#d9393c" fill-opacity="1"></use><g><use xlink:href="#cySznWflA" opacity="1" fill-opacity="0" stroke="#000000" stroke-width="1" stroke-opacity="0"></use></g></g><g><use xlink:href="#a3upIwNpdE" opacity="1" fill="#f36152" fill-opacity="1"></use><g><use xlink:href="#a3upIwNpdE" opacity="1" fill-opacity="0" stroke="#000000" stroke-width="1" stroke-opacity="0"></use></g></g><g><use xlink:href="#a1BmxbvyUa" opacity="1" fill="#f36152" fill-opacity="1"></use><g><use xlink:href="#a1BmxbvyUa" opacity="1" fill-opacity="0" stroke="#000000" stroke-width="1" stroke-opacity="0"></use></g></g><g><use xlink:href="#bhe0vWKE3" opacity="1" fill="#41937b" fill-opacity="1"></use><g><use xlink:href="#bhe0vWKE3" opacity="1" fill-opacity="0" stroke="#000000" stroke-width="1" stroke-opacity="0"></use></g></g><g><use xlink:href="#c6wLxtEpr" opacity="1" fill="#9d592b" fill-opacity="1"></use><g><use xlink:href="#c6wLxtEpr" opacity="1" fill-opacity="0" stroke="#000000" stroke-width="1" stroke-opacity="0"></use></g></g><g><use xlink:href="#a1onOoN58s" opacity="1" fill="#354a54" fill-opacity="1"></use><g><use xlink:href="#a1onOoN58s" opacity="1" fill-opacity="0" stroke="#000000" stroke-width="1" stroke-opacity="0"></use></g></g><g><use xlink:href="#aKBqkM8wO" opacity="1" fill="#558397" fill-opacity="1"></use><g><use xlink:href="#aKBqkM8wO" opacity="1" fill-opacity="0" stroke="#000000" stroke-width="1" stroke-opacity="0"></use></g></g><g><use xlink:href="#b59lE9tkOO" opacity="1" fill="#425d69" fill-opacity="1"></use><g><use xlink:href="#b59lE9tkOO" opacity="1" fill-opacity="0" stroke="#000000" stroke-width="1" stroke-opacity="0"></use></g></g><g><use xlink:href="#a6TgUER4tS" opacity="1" fill="#6a98a7" fill-opacity="1"></use><g><use xlink:href="#a6TgUER4tS" opacity="1" fill-opacity="0" stroke="#000000" stroke-width="1" stroke-opacity="0"></use></g></g><g><use xlink:href="#gYnYLL9EU" opacity="1" fill="#558397" fill-opacity="1"></use><g><use xlink:href="#gYnYLL9EU" opacity="1" fill-opacity="0" stroke="#000000" stroke-width="1" stroke-opacity="0"></use></g></g><g><use xlink:href="#b40uKMhMui" opacity="1" fill="#3e271f" fill-opacity="1"></use><g><use xlink:href="#b40uKMhMui" opacity="1" fill-opacity="0" stroke="#000000" stroke-width="1" stroke-opacity="0"></use></g></g><g><use xlink:href="#d163ZZVD22" opacity="1" fill="#3e271f" fill-opacity="1"></use><g><use xlink:href="#d163ZZVD22" opacity="1" fill-opacity="0" stroke="#000000" stroke-width="1" stroke-opacity="0"></use></g></g><g><use xlink:href="#b1P0NzhRVj" opacity="1" fill="#50c19a" fill-opacity="1"></use><g><use xlink:href="#b1P0NzhRVj" opacity="1" fill-opacity="0" stroke="#000000" stroke-width="1" stroke-opacity="0"></use></g></g><g><use xlink:href="#c3wcFh1oVu" opacity="1" fill="#41937b" fill-opacity="1"></use><g><use xlink:href="#c3wcFh1oVu" opacity="1" fill-opacity="0" stroke="#000000" stroke-width="1" stroke-opacity="0"></use></g></g><g><use xlink:href="#fUV99Gobr" opacity="1" fill="#9d592b" fill-opacity="1"></use><g><use xlink:href="#fUV99Gobr" opacity="1" fill-opacity="0" stroke="#000000" stroke-width="1" stroke-opacity="0"></use></g></g><g><use xlink:href="#bc8vOt6vu" opacity="1" fill="#50c19a" fill-opacity="1"></use><g><use xlink:href="#bc8vOt6vu" opacity="1" fill-opacity="0" stroke="#000000" stroke-width="1" stroke-opacity="0"></use></g></g><g><use xlink:href="#aoZJGT5Uv" opacity="1" fill="#9d592b" fill-opacity="1"></use><g><use xlink:href="#aoZJGT5Uv" opacity="1" fill-opacity="0" stroke="#000000" stroke-width="1" stroke-opacity="0"></use></g></g><g><use xlink:href="#b1BHv0Exw0" opacity="1" fill="#3e271f" fill-opacity="1"></use><g><use xlink:href="#b1BHv0Exw0" opacity="1" fill-opacity="0" stroke="#000000" stroke-width="1" stroke-opacity="0"></use></g></g><g><use xlink:href="#axL8EY0Rs" opacity="1" fill="#8d3922" fill-opacity="1"></use><g><use xlink:href="#axL8EY0Rs" opacity="1" fill-opacity="0" stroke="#000000" stroke-width="1" stroke-opacity="0"></use></g></g><g><use xlink:href="#h3OXxWIeIW" opacity="1" fill="#ffffff" fill-opacity="1"></use><g><use xlink:href="#h3OXxWIeIW" opacity="1" fill-opacity="0" stroke="#000000" stroke-width="1" stroke-opacity="0"></use></g></g><g><use xlink:href="#b2SS3UYyS1" opacity="1" fill="#8d3922" fill-opacity="1"></use><g><use xlink:href="#b2SS3UYyS1" opacity="1" fill-opacity="0" stroke="#000000" stroke-width="1" stroke-opacity="0"></use></g></g><g><use xlink:href="#dwj5fCR6U" opacity="1" fill="#8d3922" fill-opacity="1"></use><g><use xlink:href="#dwj5fCR6U" opacity="1" fill-opacity="0" stroke="#000000" stroke-width="1" stroke-opacity="0"></use></g></g><g><use xlink:href="#ayY1RVhgH" opacity="1" fill="#8d3922" fill-opacity="1"></use><g><use xlink:href="#ayY1RVhgH" opacity="1" fill-opacity="0" stroke="#000000" stroke-width="1" stroke-opacity="0"></use></g></g><g><use xlink:href="#i2HxHF1KyM" opacity="1" fill="#8d3922" fill-opacity="1"></use><g><use xlink:href="#i2HxHF1KyM" opacity="1" fill-opacity="0" stroke="#000000" stroke-width="1" stroke-opacity="0"></use></g></g><g><use xlink:href="#a6LlhecdD" opacity="1" fill="#8d3922" fill-opacity="1"></use><g><use xlink:href="#a6LlhecdD" opacity="1" fill-opacity="0" stroke="#000000" stroke-width="1" stroke-opacity="0"></use></g></g></g></g></svg>